<mxfile host="app.diagrams.net" modified="2020-11-10T11:15:32.425Z" agent="5.0 (Windows NT 10.0; Win64; x64) AppleWebKit/537.36 (KHTML, like Gecko) Chrome/86.0.4240.111 Safari/537.36" etag="wPYMkxBFoYdZOrgQtRyR" version="13.8.5" type="github">
  <diagram id="vFcsvwYLtnisdRrZx7pI" name="Page-1">
    <mxGraphModel dx="1422" dy="1874" grid="1" gridSize="10" guides="1" tooltips="1" connect="1" arrows="1" fold="1" page="1" pageScale="1" pageWidth="827" pageHeight="1169" math="0" shadow="0">
      <root>
        <mxCell id="0" />
        <mxCell id="1" parent="0" />
        <mxCell id="aD3c_HmT-s8xsHDP89Bb-1" value="Data Engineering" style="rounded=1;whiteSpace=wrap;html=1;" vertex="1" parent="1">
          <mxGeometry x="350" y="330" width="120" height="60" as="geometry" />
        </mxCell>
        <mxCell id="aD3c_HmT-s8xsHDP89Bb-12" style="edgeStyle=orthogonalEdgeStyle;rounded=0;orthogonalLoop=1;jettySize=auto;html=1;exitX=0.5;exitY=0;exitDx=0;exitDy=0;" edge="1" parent="1" source="aD3c_HmT-s8xsHDP89Bb-3" target="aD3c_HmT-s8xsHDP89Bb-11">
          <mxGeometry relative="1" as="geometry">
            <Array as="points">
              <mxPoint x="790" y="230" />
              <mxPoint x="790" y="190" />
              <mxPoint x="936" y="190" />
            </Array>
          </mxGeometry>
        </mxCell>
        <mxCell id="aD3c_HmT-s8xsHDP89Bb-16" style="edgeStyle=orthogonalEdgeStyle;rounded=0;orthogonalLoop=1;jettySize=auto;html=1;entryX=0.5;entryY=1;entryDx=0;entryDy=0;" edge="1" parent="1" source="aD3c_HmT-s8xsHDP89Bb-3" target="aD3c_HmT-s8xsHDP89Bb-15">
          <mxGeometry relative="1" as="geometry">
            <Array as="points">
              <mxPoint x="790" y="190" />
              <mxPoint x="681" y="190" />
            </Array>
          </mxGeometry>
        </mxCell>
        <mxCell id="aD3c_HmT-s8xsHDP89Bb-3" value="Data Lake&lt;br&gt;" style="whiteSpace=wrap;html=1;rounded=1;arcSize=50;align=center;verticalAlign=middle;strokeWidth=1;autosize=1;spacing=4;treeFolding=1;treeMoving=1;newEdgeStyle={&quot;edgeStyle&quot;:&quot;entityRelationEdgeStyle&quot;,&quot;startArrow&quot;:&quot;none&quot;,&quot;endArrow&quot;:&quot;none&quot;,&quot;segment&quot;:10,&quot;curved&quot;:1};" vertex="1" parent="1">
          <mxGeometry x="727" y="230" width="100" height="30" as="geometry" />
        </mxCell>
        <mxCell id="aD3c_HmT-s8xsHDP89Bb-4" value="" style="edgeStyle=entityRelationEdgeStyle;startArrow=none;endArrow=none;segment=10;curved=1;exitX=0.5;exitY=0;exitDx=0;exitDy=0;" edge="1" target="aD3c_HmT-s8xsHDP89Bb-3" parent="1" source="aD3c_HmT-s8xsHDP89Bb-1">
          <mxGeometry relative="1" as="geometry">
            <mxPoint x="460" y="330" as="sourcePoint" />
          </mxGeometry>
        </mxCell>
        <mxCell id="aD3c_HmT-s8xsHDP89Bb-5" value="Data Warehouse&lt;br&gt;" style="whiteSpace=wrap;html=1;rounded=1;arcSize=50;align=center;verticalAlign=middle;strokeWidth=1;autosize=1;spacing=4;treeFolding=1;treeMoving=1;newEdgeStyle={&quot;edgeStyle&quot;:&quot;entityRelationEdgeStyle&quot;,&quot;startArrow&quot;:&quot;none&quot;,&quot;endArrow&quot;:&quot;none&quot;,&quot;segment&quot;:10,&quot;curved&quot;:1};" vertex="1" parent="1">
          <mxGeometry x="60" y="230" width="130" height="30" as="geometry" />
        </mxCell>
        <mxCell id="aD3c_HmT-s8xsHDP89Bb-6" value="" style="edgeStyle=entityRelationEdgeStyle;startArrow=none;endArrow=none;segment=10;curved=1;exitX=0.5;exitY=0;exitDx=0;exitDy=0;" edge="1" target="aD3c_HmT-s8xsHDP89Bb-5" parent="1" source="aD3c_HmT-s8xsHDP89Bb-1">
          <mxGeometry relative="1" as="geometry">
            <mxPoint x="360" y="330" as="sourcePoint" />
          </mxGeometry>
        </mxCell>
        <mxCell id="aD3c_HmT-s8xsHDP89Bb-7" value="Processing Pipelines&lt;br&gt;" style="whiteSpace=wrap;html=1;rounded=1;arcSize=50;align=center;verticalAlign=middle;strokeWidth=1;autosize=1;spacing=4;treeFolding=1;treeMoving=1;newEdgeStyle={&quot;edgeStyle&quot;:&quot;entityRelationEdgeStyle&quot;,&quot;startArrow&quot;:&quot;none&quot;,&quot;endArrow&quot;:&quot;none&quot;,&quot;segment&quot;:10,&quot;curved&quot;:1};" vertex="1" parent="1">
          <mxGeometry x="490" y="460" width="140" height="30" as="geometry" />
        </mxCell>
        <mxCell id="aD3c_HmT-s8xsHDP89Bb-8" value="" style="edgeStyle=entityRelationEdgeStyle;startArrow=none;endArrow=none;segment=10;curved=1;exitX=0.5;exitY=1;exitDx=0;exitDy=0;" edge="1" target="aD3c_HmT-s8xsHDP89Bb-7" parent="1" source="aD3c_HmT-s8xsHDP89Bb-1">
          <mxGeometry relative="1" as="geometry">
            <mxPoint x="470" y="380" as="sourcePoint" />
          </mxGeometry>
        </mxCell>
        <mxCell id="aD3c_HmT-s8xsHDP89Bb-9" value="Workflow Orchstration&lt;br&gt;" style="whiteSpace=wrap;html=1;rounded=1;arcSize=50;align=center;verticalAlign=middle;strokeWidth=1;autosize=1;spacing=4;treeFolding=1;treeMoving=1;newEdgeStyle={&quot;edgeStyle&quot;:&quot;entityRelationEdgeStyle&quot;,&quot;startArrow&quot;:&quot;none&quot;,&quot;endArrow&quot;:&quot;none&quot;,&quot;segment&quot;:10,&quot;curved&quot;:1};" vertex="1" parent="1">
          <mxGeometry x="156" y="460" width="160" height="30" as="geometry" />
        </mxCell>
        <mxCell id="aD3c_HmT-s8xsHDP89Bb-10" value="" style="edgeStyle=entityRelationEdgeStyle;startArrow=none;endArrow=none;segment=10;curved=1;exitX=0.5;exitY=1;exitDx=0;exitDy=0;" edge="1" target="aD3c_HmT-s8xsHDP89Bb-9" parent="1" source="aD3c_HmT-s8xsHDP89Bb-1">
          <mxGeometry relative="1" as="geometry">
            <mxPoint x="160" y="510" as="sourcePoint" />
          </mxGeometry>
        </mxCell>
        <mxCell id="aD3c_HmT-s8xsHDP89Bb-18" value="" style="group" vertex="1" connectable="0" parent="1">
          <mxGeometry x="610" y="-70.7" width="492.1600000000001" height="250.7" as="geometry" />
        </mxCell>
        <mxCell id="aD3c_HmT-s8xsHDP89Bb-11" value="" style="shape=image;verticalLabelPosition=bottom;labelBackgroundColor=#ffffff;verticalAlign=top;aspect=fixed;imageAspect=0;image=data:image/png,iVBORw0KGgoAAAANSUhEUgAAAeQAAAEyCAYAAAAryaPLAAAgAElEQVR4Aeyd919T1//Hv3+KGTdsFFFAQBRFxIF1g9bRooio4MIqrXVU69b20zpbrXviwIUiSlHEUbDW3SpIFXHgQBlJ5Jfn93FDAgkESCIj2vPDfYRxc895v9+vc55n3//Tv69CXMIHQgNCA0IDQgNCA22rgf8TAWjbAAj/C/8LDQgNCA0IDcgaEEAWIwRihERoQGhAaEBowAk0IIDsBEEQrWPROhYaEBoQGhAaEEAWQBYtY6EBoQGhAaEBJ9CAALITBEG0jEXLWGhAaEBoQGhAAFkAWbSMhQaEBoQGhAacQAMCyE4QBNEyFi1joQGhAaEBoQEBZAFk0TIWGhAaEBoQGnACDdgN5JJXbygqfiYu4QOhAaEBoQGhAaGBRjRQ8uq1XQ0du4F87vwlrt+8y43bf4tL+EBoQGhAaEBoQGjAigau37qLzEt7piLsBnLmhctU6vR2JWJPhsS9Yh5FaEBoQGhAaOBj14BWp0fmpT12CCA7wbyBPQET94qKSmhAaEBowPk1IIAs4GpXa0wUaucv1CJGIkZCAx+nBgSQBZAFkIUGhAaEBoQGnEADAshOEATRmv04W7MibiJuQgNCA82pAQFkAWTRMhYaEBoQGhAacAINCCA7QRCas4UlniVa7EIDQgNCAx+nBgSQBZBFy1hoQGhAaEBowAk0IIDsBEEQrdmPszUr4ibiJjQgNNCcGhBAFkAWLWOhAaEBoQGhASfQgACyEwShOVtY4lmixS40IDQgNPBxakAAWQBZtIyFBoQGhAaEBpxAAwLIThAE0Zr9OFuzIm4ibkIDQgPNqQEBZAFk0TIWGhAaEBoQGnACDQggO0EQmrOFJZ4lWuxCA0IDQgMfpwYEkAWQRctYaEBoQGhAaMAJNCCA7ARB+KRas6UFZG5byazJccTEJvLVil1kFZQ7Vth1xVzcu4kNB/N4obNs8VY8vsr+dcuYN+971hy+TanNcXzLg993sOyrBMaNi2Py7FVsP1/IO5u/b5mPD4+dnueXtpA8czH7bznoJwfyrn2Sw+4NG1i7YQ9Zjxt/V3npzeNsXL+BtZvSuFXZ3PaL5324hoQPPxUfCiA7UJl9KsFvbju0j0/xdUR7FAoJyTuQoKDOuKrUKLwi+SbtCVp7fV15jSXhrqgHrecfbW2lU3F3O1/4u9JO6YZHe2/cR27jcR1gW7VN94ST3/TDQ6lGofHBLzgEHzcN7ZQd6DP3NI9seYa9NjR5/1sOxnnTTuFCyPwcxxouTaZR6zuTX8pylxGmVtNO4UqflTepaPAZJaRM9EWhUNNOE8veN/WfZXqm+Gxu35Tyz+VMMq4+tKPB2dx5EM9rTV0LIDdYEQkh2ifEV5yYFohS3ZVxv1zliQGgel7kbSM22BVlp0kceNJ4T6xeelaBXE56UheUUgTJGcVUvtfx8sWrRoBSG8eSkzPwU7nQZfxmLhXrDPDTlvzJlgkhqFX+xKUU299oaAb9lPyxk/lzVnL4XkUbAFmNKvQ7cspr/WQeB+3jnYzylMEtgGzul1b5ufIGyyPqN0hbJe1m0LXIp/Uy1ZhfBJCF8JoHAuVZzAnUIA37lfw6Pc2S7F2sO3yNJw1U+g0K1BqQdcX8NtINVcgCLtj1vAoyk7ui1ESzsaBOw+BlDtvXp5Jb3HpAbNDmVtKjoYcsudE/aiiuqiBmnim1ogMd99YNR6MOZNDg7qhED9mKj+yvdG2OvQBy6/q7lcpeY/EXQHaCIDQWoI/mf+UXmdtVg7rfGm7YNM+oo/iPvSyKG06v4C507tKLgbHfsePq89peqgWQdTw8tpyEyXFE+mtQeIbz+aQEJk2ZxabLtoC0gvPfdkcpRbLyptamgl75NJddi+MZHN4NP79gQgfFMX9nLk9rGhw6HhxZQsLU9WQVXWfXvBj6BAfi32cRZ//NYNXURGb9do2yehp7S86mr5g8cyPZb6ooy9lIYsJcdprnS/eKG6k/Mv3zAXTvEkDn4AiGTVpBys3XdfJugx/rpV9F9ZC1G6PWbiHGW0OH+FSe171PBkIfV1Rhi/jlmx51gKzlUfZ25scNJyw4kE7+3QmPSmTZodu8qnmOmX+e/c2xVVMZGhaCn38ofUYls/myWazfV1HxOIffFsQzuFc3/DoHEtx7BJOXH+HG6zrQq3xC9tb5xAwII8A/mO4DxjN362Ue3drPt4lf8ctVMz1on3F19xImDIkgyD+AgB5DGL9gN1eemTXKtAUcXjyNxHXZFN9KZUncELoHBBLUezRJv16iWFdFWX46axJHEBbUBb/gfoycvZ0/SsyeIdtsQ1qV+aksSpzB2vPPuXt8DVOG9SbQP5Cufcfw1ZYrRm0ZtT4phvD2EkrfAcRMTmBS4ipOFtVJs8bXdXwk/l6nnHwc/hFAFsJtJuGWci65OyqFFz0mbSKz4F0jz9VRcGQm3V3UqH37MSZxNjOnjKGXjyvtXMNIOmGcb64D5Ltb4gjr0ZPOHhLtNL4E9QgjtEck89JtWwz1OnMuwWo1bj0TWP97YaPzcpUPU5kW6k47yY/eY6eTlJTI5+G+qBUehM5KM843a8ldGoFaimRkdGdUniH0ixrJwMi5HC/9h7WD3VH6zyKtLlBepDLRR4NXzF7D3PfrfbFIqkBmnTWCRPeEE3MicFNIuHeNYsKM2UwdP4Qu7hIKr4Esu2iCso1+tKJxE5CjNv/D8ekBKD1j2FFncVdZzkK6qd347KdbnPs6BGVND1nHg/2T6SJJuHQZysSvl/D9d7MZE+aDUunDkJ+vGxshJv/0ISrKH1f/QYyfMZvp4wfip1Gj8B7JxjvVUweV+SlMDHRF4RrMoPi5LFqymJlje+OlkvAauo4802hIZT5740NQK1xpHzaaSUlfMWV0XzpInoQOGUhHVXsmphq1py3k8PSeaBSudIyIIWHWbCaPiqCDpMalx2yOm+w16az3SIZ28iZo6GRmJiUQ1c0bhbIDg+evZJy/G149RpOQNIsJg4LQKCR84w7WrjuwMa2KvOX0klwJjx6Br1sgkbFJJM2Io7+/G+2UPkRtumuYhqnWejd8XNS0c/Onq6z18ClsL6j210fTULeiPZH3hhsHAshCMI2As2HhWC1Ur67xa1xP3AzzjZ3pNXo2a1LyKKrTY9Y+TmF8Rw2asG9Ie1xbwVQWZTAnzA1lwFekvapCb6oozRd16YrZMsKt0XlPq3kzxPk1uZvj6e4uz4m64RP+BUk/HOKPJ3V6zLon7IvtjNKlN3NOPaHSpBFtMaeTeyPJQ7ynZCgagaNQo+4+g0P5Zj2z93oe7YzBQ+VL3MESMx/rebTjSzxUAUw9UQ1WSyDreZwyCV+VKyGJB7lbVhuD0lvbGNtZg8fn28nXVmGzH035N/usBXIRpRfm01XtwZAND2ptfV/K6aRAVJ5j2Fr4jt8Nw/21i7rK7h9ncfJ6Lpn3Estusz7aB2X7eFJeyPmu9Y+m9wLOPTX17vQ8Tp2Kv8qF7guvVMO7/AGp389l7eWXtSMk78u5sWEkXqqOTDD4UM/D3eNpr3SnV3I6j2oW+ukpyvyOvoa4moCs59H+OHxU7vS0uFfH4/S59NRo8E9K56XsE6PO2ik86fd9Ts2Kfu2zk0wN0NBOIdHh883cNMVCW8iOL3xRuIzkl0LZJtvTqgaymnYuffg281mNrdqio0wJ0KAKXcSlmsaHmENuuCzXlotP6R4BZLNK6lMKbNvZ8o4HmVuZH/sZfq4S7RQaPMMS2HSlxFj56Mj/ZQQaVRempZl6eqbCpefJ7nF4KH2JTy2tqSgtVlk3CGQd+cfXkDzna2ZbXN+y/rw5EKsozc9i8wK5V+JhWD2s9OpN/C9/8Nw4FF1ZsJnhLhr8pp+qrrDNNKIt3ssXnhLtJx3llQk4Sl8mHrJMw+D/kmNM9tXgMWaXWU/qPuuGuKPqtoALxgreAsjah2wc7o4yYBYnX5r8YvrUU3TnNo8NFbYdfjTLv0kX5kDWVv5VvXio72r+MjWejL34DvFHePa+oh6QTc/R68p5/riQ/MclvNNVUbIvFld1TxYYphGMQJb9c/ilWaOkCn3ZKaZ2lJC+2EuJRf70vHtRRH5BEc/L9OhfHiDGrRrcem0+64a4oQr+hnP1Vnu/48L8nqgURiBrC9kUJY9QzOSk3LgzT0P3lF1ftkfRIYEj8uiFEcgKn0RSLe59y6H4DrSrscf0HD2Pt3yOpOrGNxcq0NuRVjWQJcMUwQvzPL0v5+S0zig0MewyxV3MIVvGzcJfplh8Wp8CyP+BIFtURq1ob+Xzm6SuiaeHp4Siw2h+vSf3hss5MbUTClVnwkd8yegxlteowd1xU7jSd9WtmorSNiBrufXbVIYMHsogiyua5CPF1gu2toS/jv7IhJ7y0KQvIzb/beghvjs5gw5KDT69R9XL3+jRQwl2Vxvnyk1DsoP40WBb3crhHZnJIahcolh/v3okoOKv1URIsn21W40sgFyWRoI8nD3pGG8ajZUdfrTyHAsgv9dxb30ULuqezL8k9/KNvXu1abGXFSCXP+DY0lh6dXSrXoEtjxJ4d6N/vxAkdVfmZMnPMflnID8Yh6ZrtFh+geRgDdKoHYY5Wv37Cv45vpyY8M5I8giLfEk+BEVGEqhxoUvyefSybzpo8J5ywup0w7u0mfiYhqzL0kj0kVB27EN0HY2NHvMFg7p60c60nsA0EhP5E7dret1yLMtJm+lfDUkLUFfxau94w0jJV/I0gx1pmYas+/8oD02b66WCLMO0wBi2mkYSBJCtl1sLv5n78OP/WQD5Ew5uTeXXpjbqeZo2i0CVCz0W51L2/h2HJnrTTtOdYfEJTJIXq9S7prHoyEM7gex4YdQ+O8WMIA2qnku5Wl5F6eFJeCjcCB4+xUreqvObsDiVfK0JOEP42Qjcuj43VcB9DXt9K8iWe3HuI/nFbC7QAshvU4nz1NAp6UwTh5XY4Ucr8bcEsjz8vYexXi74J2XwWvuA9cM8UPVYbBw+rQvkV5xJ7oFa6UNE4loOnMkh52ImqVtXMDGiI0pVXSBb8U8dIJdkfEOIJOHVZzr/S8ngwqUcMo5uZ2l8P7xVmmogG33TOSnDqm/Kzibjrzb2kA33qpG6RjOxnr6MmktcymE5DiYgm0+NGHxmAvIE9r+11JcFkO1Iy6SHgWvNpwfkZwsg1y07/8XfBZCtVFb/RSF8qM2leTuZGR3NgrNWts+UHmS8m4R3wgneva/g8uJeqKxtP6obC2sVZYND1pYVZj173v7JtqTPGbbwHK/rpvP+LQdiPVG0n8rRsirKriwhVO3GsE2FNXN89Z5neEbTQNZrqxd3yXODOc/PMNPfhfaxKcZeYXWeLYBcnsuini6oP1vLXYveWl377PBjPXtrV1lHbS4y2viS1Cl+qHymcODiavrKW6J+uGPc310HyIaeqoRm+K88sMijnuIdY9HYDeRyjifKc7LRbMyvXVMg+1z7dBejXIxALr/Kwh4uSEM21klX9o2egl9GIJmGrMv/YJF87/D62/DqxdKazgw+sxHIdqQlgFxXx+J3cz0KIFuprMwdJH62rcBU3Pwf/V0k3Aes4nKdVcUv0mcTpHKl19Jrhgq+7PJiQiVXQpPPmW0hktPR8fDg14xJXEumvALWWkXpKJArb7Mm0h2FxyCWX6nTaCjJIClYgzp8ObnyHGr5FRb2cEXdYy4Z5ttj3ldRWXiY2WOn8b/f5ZXgNgBZHv6VF3Gpg5g4ezwd1IHMPG2ZvgWQDQ2W3qhVwUw+UmQ5rKl9yK6EoYz+7rgBSDb70YrG6/aQZZ2/Ofs1gWovuoYGonL/nF9revF1gPzmEOM9JDxiU7CYB317ndWfedHObiCXciDWG4VnHPtLzPX2jrw1g3FTGIH8vpwL83qgknoy56xpTYLx/pIsvu7hSjsTkN9XcOm7MNRSGHPOWm6v0mv/JWVODAk/ZVXP7VvTmT1AtiMt+4B8ixV9XVH3/8HGrYTmvhM/f4x1twCylcrqYwxk2+e5lJyVg/FSSniExbN0ayon00+wY2UiEd4SCp8v2Woa1tU95URSKGple3pOXM2u0zlcunCaHUvH0dVVwiNyNZdLaxfb2DaH3HQF9OrSagbIefHszYRl2zmUlsHRnauZ3McHhbITo7eZhhH1PDk5m66SbMskVuw+Q/bli5zcuZwvQjxQeA5kxZW3ZnOkVoZkzXVVcpRJvvICNzWqHt/XrqI13mMJ5Cq0zzKY08MNhWsPvly2h1PZl8k6uZPvv+yJq9KLfsuvVs8v2+pH87wYf7YGZH15LovDXAyrir0tevF1gKz7l+1jfVBoehK77hS5d//meuYe5kcH4t3eB7XdQNbzcEcMXko3uk1Yz8m8e9z9K4udC0bi174jXpIJyPLQ+hEmBbig8O5Pwk+HyMi5zLmD60js44OLtw8uStMq6yq0xWnMDHE1xDtu5V5OXbzC+bTdLPkyFBelN/1X/lHtxw8Gsu1p2QXk9yXsG98BhSaCmbuyyD6bSZ5pftlKTNu+Dmi6DIo8Nu4jAWQh7OZbOKEr4fLmGfSV9xObFuYo3PDtP4Mtf5hvZ5F7oQ9IXTiaYHlPseleVXu6j/+ZrGLj9hhrFaWjPWRDnPU8v/Ibif06oTalqVAjdRrA1N9ya7a7VFcaFfxzdBEjunpXn+NsuF+DR2gcP55/ahzmtaWHLBfAd5xLDkGpcCPyxzuWvd73VdQFspx+xcN0ln0ZhpfhvOnqRU4K926MWpFBofkwsS1+tKJxq0B+r+P2/wYjqbowPc28F18HyPJIwcM05g3yN/OjO/7RKzixLQGveou6rDRY6swhyyuVj88fgq9kXNClUKMJ+JylJ7cT721c1GW0483NPcwcEFC7+EvhRqfB80nZ9zVBah8mHa3dA192/xgLRnbHXVn7XKVnT8b9L5snpgNerOnMkJaNQ9bGfNmSln1AruJN7nqiOxvLkxTJiht1tuhZia2AXuPQc2b/CCALQTcfkE2+LCvmZs5Z0k5nceXvkkbPma4sySf3fAYnT50nt6C0iTnb5ipo5RTdusSZU2fIvHqf56atPqb8m39qX3I/L5v0tHR+zyvklakSN7+nxX7W8+rhX2RnnOZkZi73SyznV80rlrbxYwVFN3M4cyqDC7eKrZxIZn+8yp7cJjsjnfTsOxSZ9uNa9e87Ht28RMbps2Qb035zNAFvdTBzfjffDy7nQceLB9fIOnOKtKw/yX9t2g9tf/7MfW795+ZPS/uqkNysdE6ev8PTxrRq1U8tYaN4pvXYf7hfBJCFiJsfyMKnwqctogE9zy5tYeaoSay7UQe6uqccniyfOBbLbjGsK/TXIvr7cOA2BXIB5I80cE0FVvy/5QuP8HHr+7js2o9EekhIwTEsPXCRG/mF/JOXwZY5g2ivcqPHgmwrq+hbP59CG8LnjmhAAFkAWbSmhQY+Ig3oKDy1lCj57GezdQDtNAEM+iaVe40OcwtIOAIJ8Z3W040AsqiMP6LKuPUKhqiEnNzXZcVcP3uMvbv3sDf1HHmPaxdyidg5eexEndtgnSuALMTRoDhExSYqNqEBoQGhgdbTgACyALIAstCA0IDQgNCAE2hAANkJgiBaoK3XAhW+Fr4WGhAacFYNCCALIIuWsdCA0IDQgNCAE2hAANkJguCsrTWRL9GTEBoQGhAaaD0NCCALIIuWsdCA0IDQgNCAE2hAANkJgiBaoK3XAhW+Fr4WGhAacFYNCCALIIuWsdCA0IDQgNCAE2hAANkJguCsrTWRL9GTEBoQGhAaaD0NCCALIIuWsdCA0IDQgNCAE2igVYB87vwl/n1czOMnTz/6q/jZC169LhWX8IHQgNCA0ICTaECulz8FvvxbVIzMS3tGJf7Pnpvle+UELv/xJ1fy/vroL9kW+fo9+4q4hA+EBoQGhAbaWAOZFy5z4VLuR88WmY+X/7je8kCWHVapa8mXgrfeGL8M4zel76jU6sQlfCA0IDQgNNDGGiiv1NoNMXs7la11f6sMWX9qQH5bVm7XkEJrBVOk03oNM+Fr4WuhAefQgCMQc9bYOWKL3UPWAsjOIVxnFaHIl9CH0IDQgKMacARijqbV0t9zxBYBZNFDFiMETrAis6UrB/F8AcmPQQOOQMxZ7XLEFgFkAWQBZAFkoQGhAafQgCMQE0D+hBZ1iTlk0XNw1gIt8iW0+V/TgACynS1DMYcsKon/WiUh7BWaFxpoHQ0IIAsgO8VQjSjwrVPghZ+Fn4UGnFcDAsgCyALIdmrAaSs0XTHZezaxdt2G6mv9Rjb8sp1dqZnk/fvW6eKsfZLD7g3GvK7bwLr1v7Bp616OnL1OYam1SlPP80tbSJ65mP23xHY9p9Xhp1Ke2sAOAWQ7nS6GrK1VlOJvTlE5lufxfS8X2inU9S9VB7p/sZTDd0odBvOr+1fIOJtL/tvmiXdZ7jLC1FbyqlCj9OrJ2O9Tuf3GPK23HIzzpp3ChZD5OQ7b4RSxsrPeEXk218Gn+7MAsp0FQwD50y0MH32lZwSy+rPVXHpQwIP8Av65e5NLZ1L4OXkUQe5qFB2GsuLiKwdgpuX6in6opSH8fF/nwPfr66YayK4MWHmF+/lyfh9w58ZV0vevZ86IbrgpJNoPXk32y9rvlvyxk/lzVnL4XkWz5OGjj7md9Zewt1ZLzugLAWQ7BS2A7NyCdsZC1mp5MgJZGvYr+bq6cdLz4o+NjOqsQRU8m7Tn9h7/2lJAdmPopkK0dcuh7iVX14+lk8qFoKR0ntWzp6594vdW01ndWInfm61xKIBsp5gEkEXF57QVX6NAluOm58mhKXRSuTNo3T81lUjF4xx+WxDP4F7d8OscSHDvEUxefoQbr6tjXVl4giWJCYzp3RGFyo9+4xKYNHk6y9OKq59R+YQLW79jwpAIgvwD8Oval+FTVnLwZuPD49U95AaALJdL3VMOxgegdBnG2nvVvfKynI0kJsxl501tTf5f3T7K8inR9Arugl9gGP2/+Jr1Zx9SZlG29ZTcPMrqGaPpFxpMJ78Qeg1PYOnBW7y0uK+K1/dOs/arGPr3DMGvS08ioqey/MA1nhobBdqnGayamsis367VSUP211tyNn3F5JkbyTYOt1c+zWXX4ngGh3fDzy+Y0EFxzN+ZW/M8/XsdD44sIWHqerKKrrNrXgx9ggPx77OIzOLz/G96IjM25PC6Tj7171+TtTaJyTM3cMEYK6fVZr28i3rEWqwEkO0UigCyKEjWCpJT/K1JIFehL8tidhcNUtRmA9Aq81OYGOiKwjWYQfFzWbRkMTPH9sZLJeE1dB155VVU3tvK+F5hBHV0p53CE9+QMEJ7RDBxx0P02gL2xXdFrfQgYPAUkhcvY2FSDD29NSi8o/jpWsNDy00C+X0V7zK/JkDlxvBfCg35fb0vFkkVyKyz1c+tvLuNUR01qDtGMj55CYsXJPF5aHsUUhDxKf8aoa3n0cmvCZOH7D26MyQuiZnT4hgY6IVC2YH+y3OMUNbzJOM7+npJKNy78tm4GcycOZmoHj6oFG4ET9rPvfIq9Np/WDvYHaX/LNLqgvBFKhN9NHjF7OWxrorKh6lMC3WnneRH77HTSUpK5PNwX9QKD0JnpfHIAHktuUsjUEuRjIzujMozhH5RIxkYOZfjb5+w80sflN7j2VVkOaqhfbyHsV4avMcfoEiMINQ00JyiLNrJFVOeBZDtdJwAsgCyqfA43actQNY9Zevnbii7fF1dgZU/IPX7uay9/NJs2LicGxtG4qXqyISDJcaKrqEh6wr+ObqUOeuu8MIMCu9ubiLKW4N33GGeN1DGbAGytng7IzUaAuZkGfJhCWQtN1ZGolaHseCy2arrlzms+3YFu/94ZviOtugQcZ00qLtN48A9s/ve3mHLFwEoPUfzW4EO7dNjJPhrUHdNYO/dd0a7q9BXFnF6fiTuSm+GbbhH5Xs9j3bG4KHyJa7GP3K50PNox5d4qAKYeuI1et0T9sV2RunSmzmnnlBp8oO2mNPJvZFUQcw89Rr9eyOQFWrU3WdwKN+yEfMqfTYBKncG/iynbSp/Ou6uHYpG1ZVZZxsfiXA6ndbYYLJFfJpiJIBspzgEkEXhMRUep/u0BcjvS9k7zg2Fb1ItcAxlQM+7F0XkFxTxvEyP/uUBYtxc6L7wivG+hoBcqwdtWQmPCgp59KIc7ftX7B3niSp0EZfkXqWVcmYLkPVvDhCjkeg447ThGZZA1nF/3TAkZSdG/XLLypCunK6O/E3RaFRBzEirv5hN++QuN4pkAOop2DwSF1UwM0/Vv09f/ifLIlxRhS6utqfkGJN9NXiM2WXs5co95/usG+KOqtsCLpRVUVmwmeEuGvymn6o3LK4t3ssXnhLtJx3llQnISl8mHjI1gMx8Vnmd5Ya0F5Fj8mV5LovDXFH3WcWflWb3WvGzNd+LvzmnzwSQ7RSwALJzCllUMFXobQGy9j4/D3JF1eN7IyQr+Of4cmLCOyOZtktJPgRFRhKocaFL8vkmgVx2/yRLxkXgozFtYXLFK3ggfYPcUAXO5XcTROqUNVuAXPn3egZKLoQuumoFyFXI87nf9vZGoXClQ4+RTPzmR7afvsXTGkiVczzRF6V3AqlW9zab9FzOiamdGrmvgksLe6LSjOSXf+Wh43dkJoegcolivXHVecVfq4mQXOm76iYV8nD7yRl0UGrw6T2K0WO+tLxGDyXYXY263xpuVJqGrAfxo3Gu3FLPegq2jjH0vBOPVzcWXmfMIUDtzcjfrCyIq+Nny2eZ7BWfzugXAWQ7xSuALAqyMxZkQ55sALL28U5GeUp0mHTUALiSjG8IkSS8+kznfykZXLiUQ8bR7SyN74e3StM0kF+eZU43VxTe/Un46SDp2ZfJPnuM35ZNoXd7DcoPArKeR9u/wEPpS3yqPLRbhWUP2ajFN/c5/csiJkf3xc9dQzuFhGevGey6LQ9Pv+PQRG+Unb/iVFlj2n3H4Y21DIQAACAASURBVPjG7tPyZ51tXxV5y+klA3ilDOAKsuf3ROU+kl8KqheglR6ehIc89zx8CpMmywvh6l8Ji1PJ15qA3MiWspdpJPpr8Bi9k0Ltc1Im+qLqPI3UksZsEv9z2rLaAHcEkBtwTEOBFEAWhbwhbbT535sCsq6EjOSeqFVdmZkuzztW9x4VLtFszLfcW6x9uotRLk0D+d2JabRXujNsU4HZ/Ka8QvoZ20e7fxCQtc/PMSfUFWXgbE4bF09ZBbJ5GX77Lxe3zSLcXcIt6lf07yu4ujgclTSY/1ntfZr0bIJiA/fpnrN3fAeUPlM5auppGxd3ycPyOc/PMNPfhfaxKRQb59LLriwhVO3GMGvbuszzbBqybnSPdwVXFvdGrfmMlRmbifZwpfvCy1ZWeZvsEZ9tXh4tYmxbPASQ7XSaALJtwvoYC8NHn+dGgKx9dYeUbwfirXTBL/4QDw3QKOVArDcKzzj2W/S03pG3ZjBuCksgGxZQSQNYZbbl6HVKnGGx0/gDL41D29X6KL32IwPc1Q4CWc/L24eZG9kRhTqQiSn/1iw4swTya3J3fcsX8Rv403xYXFfMbyPdUPrPMeSp7MpSekoaAqak8khrrl8d+bunMmjMYlLzdZTlraK3RoP/pMM8tLivihdZCwnTaPCbmsaLmjrDuIhLHcTE2ePpoA5k5mmzBVblV1jYwxV1j7lkPLNcIV1ZeJjZY6fxv9+foLUJyFVUPtjMcHcNHTr7oXYdWrMV7KPXbY0/zWPz3/xZANlOMQgg/zcLykdR6RmBrOwykpnzFzJv/kK+/Xo2CeOG0a29K+0UHnSd8Bt5NVt19DzcEYOX0o1uE9ZzMu8ed//KYueCkfi174iXZA7kKp7tj8NT6UZY0h7OXcwk49oztIW7GOMtIXWfyNq0a9y5d4Nzu74jyr8j3t5y77apOWQNAdGzDXmdN38BybOmETO4J96SmnauocRuvs4rszJqCeQK/vppKB5KN4K+WM3BnDvcu5tH2i8z6CWDa0JKdSNB95zTyWFISg9CYlaw63QOOefT2LZkHN3cJNz6r+SSodf7knPzI3CRnzdqEVuOZ5NzMYPdqybTy1NC5T+Rvcbh6Bo9lBxlkq9kOKpUnpe3XMCm58nJ2XSVJDzCJrFi9xmyL1/k5M7lfBHigcJzICuuyGeMm3rnjQxZG3xQwuFJfigUktjqZKaJmlh8An8TQLYziALIAshOWwEYgWx+lrVC7YanfxifjfuGn0/erbfaV68t5Pj8IfjKADQu6tIEfM7Sk9uJ9zZf1FWFvjSPtSMCUBvuc6XPypuGVcwFJxYysJMMfOMzXIKIWpbG1kk+Nizqqk1XnvtVaTrg12MwMcnrOXGnet7Y3N+WQJZXNj/hzIoxBLpVQ9GQB6UnQaNXkWG+b7eykLTl4wj1NjvrW+lluC/9X7Phem0RGavjCOtgZo/Sm6DoBRy4Y7YVqqbeeMe55BCUCjcif7xjOWxvuEfeFraIEV3lhWcmWzV4hMbx4/mnxp6/rUDWU7w7Bjd1CF+ddb6XhZjHSfzsWD0pgFxTsGxzoACybX4SBfLj8lPZk9tkZ6STnn2HIvPh37rlQ/ea/LzzpKVd4Oaz2tOy9OXF3Lh4lrQzOdx8YrmPtjW0UPHiPpfPnubk6fP8UfDaChir46F9XcifF89yMi2LKw9eNnzfmyJuXMrk1JmL5OY3fJ/Ntmlfcj8vm/S0dH7PK+SV2Z5t25/xgI1RXkh9VoutTnV1+Yn8LoBsZyAFkD8u0Nhc2dmpA/FcoYPW1sC7nIV0l7wZuVVsdWpt37dWegLIdlbEAsiiIm6twinSEVqr0YDuKQcmVG91OmqxAE/4qMZHdtblzvg9AWQ7gyiALCoAZyzIIk+fti4rbv1EpEY+OU1sdfqUtS6ALIBssV3lUxa7sO3ThtYnHd+ylxQ9eUpJY/P7dtZln7S/PlJfCCDbGTjRQxaVuqjIhAaEBoQGWkIDAsgCyKKHbKcGWqIgimeKCl5oQGhAANnOyvhT6yFfvXaD6zfvikv4QGhAaEBooI018OeNO5w7f+mT6CQ50rj4P3tbpZ8akP99/ITiZy/EJXwgNCA0IDTQxhp48vS5ALI9UP7UgPy2zOyF7XaOFtjjN3GvGI4TGhAaEBpoXAOO9Cqd1aeO2PKf7yELIDdeQJxV7CJfIm5CA5+eBhyBmLPqwBFbBJBFD/mTmK9x1kIp8vXpQUPEtOVi6gjEnDUejtjSzEDW8+5VCU+fPbfreva69c/+lYMoLx4QPeSWK1zOWlBEvkTMhQacUwOOQMxZY+mILc0LZG0B64aYvSWm5u0upre8WP+UxhlfE9fKc7gCyM5ZKJ21gIl8Cb0IDbSsBhyBmN0xKS3k6ukj7N6xg63btte7tmfcb5ZRQ0dsaV4g60rI+nWx8d2u1e+jXbBwNlFd3GgndaLXmCTmLV3FkgVf8UUffySFC37R37Am9XazOMDewAggt2zhsjcede/XPslh94YNrF1Xfa1b/wubtu7lyNnrFBre3+u8+X9TcJG9Py1iZvwExn4Ry8SZC1mzO4t/at7F7Lx5r42DnueXtpA8czH7b7Xi4kddCTm/zmXGdyncLPsY/CTyWKuZD/OFIxCzPW09xb+vYri/W+2rUq10Gpurg+iILc0L5Ho93FKyF/fDrUM0Ky4+N7771Bgw3Uuu/Dyaji49ST5bIoBcz3cfJmzbReq86ZTlLiNMbX1URenVk7Hfp3L7jeP5f3X/Chlnc8l/6/gz6vm5/CEnvx9FgIucbwnJK4AuQQF4aTSGSkDyi2LekX9491HE+y0H47xpp3AhZH5OC5TRUv65nEnG1YeUmvuj9AgTPNS0U/dg3sW2mc6qF1fz/ImfW0AL1WXQEYjZHKs3Z5kVqEHhGcHkH/ZzIjOb8xcu1ruybz1tFvscsaVFgax9vINRHvKLy+9af++qNp+Nwz1wGbapWRxgc2CMBUr0kJsRRC1QSVUD2ZUBK69wP7+AB/kPuHPjKun71zNnRDfcFBLtB68m+6Ujdmi5vqIfamkIP9/XNY/+KvPZFx+CWulJ1y+WsvvSo1rwlj/hSsoqxvfwRqHuwpfb7lLWAj6ztww0dX/JHzuZP2clh++1ABgrb7A8whX1oPX8ozWP4Suubv+O2ctTuSvOrm4ebX4EWpO16AjEmtKw6f9ll76ju9qNgT//bZ1HzewjR2xpUSCXZX5NgBTE7MyGCnMFOQt6ovaZ0SaiE0A2rwSd7+dqILsxdJOV99/qXnJ1/Vg6qVwISkrnmd0vvG9uIOu4s2kknkovIuaf40kD+dE+z2HpZx1QuA1k9fWGyoXzxcJUqTXrZ4NA/o/Y38wAaNbYtFHeHIGYrXaXZc0lUApuhEfNqztHbGlZIF/5nlDJi8+3PbEcrjYFW/ecveN9UAXNFUA2+UR81mihUSDLftI95WB8AEqXYay9V9vLrXicw28L4hncqxt+nQMJ7j2CycuPcMM4f1tZeIIliQmM6d0RhcqPfuMSmDR5OsvTiqvTrnzCha3fMWFIBEH+Afh17cvwKSs5eLO0Jm/1KoHXZ5jpr0Hqu4rcJnp1FbfXMchNQ4f4Izw1gFvHgyNLSJi6nqyi6+yaF0Of4ED8+ywi0/AsLY8ubmfuuEGEdulCQOggvvx2OzmP77Bn3jRm/ppbk6+mbJfzXZmfyqLEGaw9/5y7x9cwZVhvAv0D6dp3DF9tuWLMU3XlVJazkcSEuey8qUWvLSR1yTQmTZb9VfeaypwdN6gw6FfLo+ztzI8bTlhwIJ38uxMelciyQ7d5Zfi/jofHlpMwKYbw9hJK3wHEyM9LXMXJIj369xVcXD+DKV/v4UalWSX55m9OrpvDmMhwAv2D6d5nJFNWpJD7TP6O8T5tAYcXTyNxXTZP751kZUI0PYO64BcSyeezt3LJ/F7Td8Rnrf/a2BeOQKwm9k3l/flh4nw8GbYx/7/ZQ9a/PU9ysAvq7rM49ri2wqx2oJ4nZ+bSQ6PBLym9TQQheshmlV1TYm6D/zcJ5PdVvJNHYVRuDP+l0KChyvwUJga6onANZlD8XBYtWczMsb3xUkl4DV1HXnkVlfe2Mr5XGEEd3Wmn8MQ3JIzQHhFM3PEQvbaAffFdUSs9CBg8heTFy1iYFENPbw0K7yh+uma9V/vu9Cw6qTyI3vLIeuPTwn/P2TuuAwrveFJeyTHQkrs0ArUUycjozqg8Q+gXNZKBkXM5Xqbl/r4pBElq1B16M2LyV8xM+IJwH1dcewynv68Gj/ijNtsul72KvOX0klwJjx6Br1sgkbFJJM2Io7+82EXpQ9Sm2imm1/tikVSBzDpbgV77N7/GRhDaQ/ZX7RXSyZN2Cg1dks9T9l7Hg/2T6SJJuHQZysSvl/D9d7MZE+aDUunDkJ+vG+65uyWOsB7d8JHn2t386So/L3wK2wvkeqKUvePcUPrPIcPYuNEWn2V+vw4olF50GTiBqUmzmBgdhpdajdQ1gT1/G+NSeY0l4a6oe49keCdP/AbEMX1WEuMiA5EUEl7Rv3LbYnjcucuAzbCx0NfHa1OLAvm9lrvbYvDzGcy84/d508I+c8SWFu0h69/reXR0Jl01aiT/YUxfuZ1DaRmcPLKT1UnRdHFRo+4yhQOGQtj6IhJAbn2f21PB2AJkbfF2Rmo0BMzJqm7UlT8g9fu5rL380gyM5dzYMBIvVUcmHDQtIGxoyLqCf44uZc66K7wwG3Z+d3MTUd4avOMO87xeQdZxb+0Q1OpefHfFOrAt7dZy64cBqKU+LMvT1gJZoUbdfQaH8mufoS3cw5cdJDThc0kza9Rqn2Qxv5+XYaGYCch6G22vBrKadi59+DbzWY2ftEVHmRKgQRW6iEtGEFoAuZ7dVWifnOarHm6ogxI5WFjd6C67f5zFyeu5VGLWcy27zfpoH5Tt40l5YdRdg0PWdYCse0ZqYiBKqTuT9t0zWwCm5VH6Qvp6SHgM38QdGbRGILdTuBM+L4tiUwx1xRxJCEKp7smCy7X+tYyLc5eH/0JeHYGYzX4pv8LPE0fTx0/emuuCZ5cI+g0YRGSda8jijGbpIDpiSwsDWRZ4BfmnVhET5ovafIm52ofuo5dy9H7bFQ4BZOeugGwBsv7NAWI0Eh1nnK5TiPS8e1FEfkERz8v06F8eIMbNhe4LrxjvawjItT7RlpXwqKCQRy/K0b5/xd5xnhawqq0ItNxYGWno4a6Uh3atgMvyb3ryN0YjqXsy/5Ksf2MPWenLxEOmBoOcDx331w9HUndjTmb94fLS7IV0V6tresi1aTRuezWQJTrEp/LCIq/lnJzWGYUmhl3GhXKNArnsNhtHdkLpOZgVl+vnT68r5/njQvIfl/BOV0XJvlhczYFoI5C1D38jylVDQFI6JRb5ra5fcpf3Q63uyUIZtEYgK3ymcKikNpayb96lzcBH6cbY3a9siJHld2t9K/7ekr5wBGI256c8k4WRvSxGd8xHekw/h399qln04YgtrQBkk4DLeXQzhzMnjnEs/SLX/33bLEbbHIx6BVmc1PUhvmuN79oC5Mq/1zNQciF00VWjnir45/hyYsI7I5kagJIPQZGRBGpcDMOq1XlvGMhl90+yZFwEPhrTlitXvIIH0jfIDVXgXH6vN0esp2jbaMPQbpI8tGtFa5Z/q+DSwp6o5BXef8u9StOQ9SB+NJsL178v53iiL8r2iRy1tjWr7DTTOtYOWcuNX1tsNw1Z96+3+6GCrK9DUGrGsPVpde+2QSDrnnI6ORyNFMzElELLObnyBxxbGkuvjrX7PdXe3ejfLwRJ3ZU5WUYf2Qjkdydn0EHlw6Sj1uuMssuLDKtno359hNY0ZB35U72h6bLzcwlSufH5ttpRAcu4mOoq8dlWfnEEYm2V16bSdcSW1gFyK52M0pSD6v5f9JCdu+JpGsh6Hm3/Ag+lL/Gprw0gLMn4hhBJwqvPdP6XksGFSzlkHN3O0vh+eKuq5zmrddAAkF+eZU43VxTe/Un46SDp2ZfJPnuM35ZNoXd7DUqrQK6i4q/VREgudJufU7vVqSEwV143bPdRdVvIReOireo55LpbsN5xaKI3Sr+vOG3tgIzyTL4KcKnpIdtquwnIA9c+sATpe1uBXMHNX8fgo/Km/7JLvLSw8xVnknugVvoQkbiWA2dyyLmYSerWFUyM6IhSZT+QS49MxkMVwMzT1g8nqbi+it6SKwZ7TECut5WqCgFk5y7vcrl0BGJ163Wbfi9/yvUzB9n2y0Y2bkshLa+42bchOmJLCwO5dU9GsSkQZpWHALJzF9CmgKx9fo45oa4oA2dz2rCCurpHqXCJZmO+5SJC7dNdjHJpGsjvTkyjvdKdYZsKLGGle8b20e4NAlmvvc/GKG8U3qPYdLexXrKO/F3j8VG503/NzZpVydaBXMGl78JQaYazro49hsrr4WaGa0xD1rbb/mFA1lOc8S09XVzwm7CfB3UXSJWlkSDPeQ//tc7/9BTvGIvGASDL+Q2TXBnwk7X9o3qe7ovDU+XLlGNva4as6+9tFkC2t35si/sdgZh9+SznXupChvrLCzpNI2DypxudB33D/tvvbBjhsq3edMSWlgVyK5+MYl9gxJC1vf5q7fsbBrKel7cPMzeyIwp1IBNT/jUuTCrlQKw3Cs849lvMH74jb81g3IwrgavtMM37DmCV2bzv65Q43JXejD/w0qJgll77kQHu6oaB/L6K0tw19PeQcOkxk313rA2vlvPPkWTC5Xt6L+Z8zTGapiHruj3kKt5lLyBE7Ur35HM8Ny1QMjQqX3LumzDDuozqRV222/4hQC67s43Rvhrc+i3lvLUDWd4cYry8yCo2xXJ++u11Vn/mRTsLIN9iRV9X1P1/sNzeVHeVdfmfLI9wQxmQQIpx4ViNFkvOM6+XvCJ7BsflmIsesoVua/xk1hFx5r85AjHb7dFTdHwWwZKEe2gsi7ad4uK1W/x5OZ0dy+IJ85JQdUkg5V+zxYgf4DdHbGlRILf2ySi2B6a6hSN6yLa19Oz1a3PdXw1kDQHRs43noy8gedY0Ygb3xFtS0841lNjN1417W2Vb9DzcEYOX0o1uE9ZzMu8ed//KYueCkfi174iXZN5DruLZ/jg8lW6EJe3h3MVMMq49Q1u4izHeElL3iaxNu8adezc4t+s7ovw74u0t98atzSGb/Kgj/6gMXHkrTzCDp65g095jnDx1nH1bVjMjqhvuSjUuodPYZ3HyVcNA1uuKODg5CJVpCPjsJXIyD/PT1P54ufrg5SoZh6xtt91hIJfnsizCg3bKTgyZvYY1P/zP4vpxfx4vdf+yfawPCk1PYtedIvfu31zP3MP86EC82/ugNgfy+xL2je+AQhPBzF1ZZJ/NJM8wd11nlfX7Kl5kLqSXq4QUPIYFv50k61IOp/esYWJ4e0OjLHbfw+oRDQFkAeSGIFp+hQWhrkg9vyXDyn70kuzviXBxISjZuGOjoefY+HfnA3Irn4xiLwgEkE0gcc7PaiCbDytJqDQd8OsxmJjk9Zy4Uz1vbBF3bSHH5w/BVwa2cUhKE/A5S09uJ97bfFFXFfrSPNaOCDCu/nelz8qbhpXNBScWMrCT2VvLXIKIWpbG1kk+DSzqsvTfq5uHWTQugg5meZDzom4fxuj5+8g13w5kKNyNAFn+f+ktdiUNolPNIjM1UuehzD14gNnBLnhNPlZdCdtou8NAfms8Y9piqK/Wz9LwzTzUVVH5MI15g/zNdlW44x+9ghPbEvAyX9T1voo3ueuJ7mz0tRTJihvyKvX6QJZXnD86+wPje5nv1pBwDx7Jtyl3a7dCCSALIDcAzIq8FYRLXozaXlyz1c+i7nhfwv5YH9TdFjaLD50OyPpWPhnF0rmWlaS1/wkgN+0ja377GP5W9uQ22RnppGffoajeqmgzu3Wvyc87T1raBW4+M9uyVF7MjYtnSTuTw80njc0Jmz2rTkVQ9vw+V7POcOJkOplX/6a4sXzU+a41H5c+vs3Fs2c4c9FoU+lxJrV3IaBOi95m221I01o+bPtbBUXyropTGVy41fiCGe2rQnKz0jl5/g5PzU/mspY/XSmPbl4m43QG5/MKeFF3Dtvad8TfmgUwtsW94fJgy/cdgZgtz5XvKTs7B79Gj86s3v2g7jC9WfzliC0tOmQtb+dozZNRbA2M6T4B5A8rPCY/is+W86P2+WV+SRpD3PqbdVaB6nlyJIHOqvbE7HnWLBWIiGPLxVH41jbfOgIxW31bcXMNfSV5waZxeqNuQ033hG2jvVH3XNos5ckRW1oWyK18MoqtgTHdJ4BsWyEx+Ut8toG/yq+zeoA3Ck03xixL4fzNAvLv/0n6b18T2UGD1PM7sj7gFZQipm0Q07ogEL/XANARiNms4cq/WNHXDVVQIikFZqNhBv/reHTiK7pJrvRY/EdNfmx+tpUYOmJLCwO5dU9Gsdd5AsiiMrJXM21xf+W/6SyOls9irp2vlbdpdBr8LYdMZzhbqRDaIq8iTVGmPkQDjkDMnvRKzi+lj4eE2n8I0+oc5eyvkXDpNZ+M55/oKmt7HNUW9wogi8qjLXTnWJrlPP4rk9R9e9i17ygZ14pqFzIJGDdLj8axuIgy1Jx+a2kgyzsxinM2kRAZYNnA1XQmIv5nfjc7L/5D7XLElpbtITt5RSGALCqTDy104vtCQ0IDzacBRyDmmP8rKL5zmQz5KOeMSw4v3GwsbUdsaQUgv+b6gaXEDelD1y6B+PkF0LnOFTTjeJu0cAWQm68gNSZM8T/hZ6EBoQFbNOAIxBp7rrzj4MrtZ8YT8Vo3Bo7Y0sJAruCvdSPwVkp4dB3GlxOiCdJo8O41kqhwPySFhg59xpGw4VKbAfnS1T+5kntdXMIHQgNCA0IDbayBy7nX+fPGnebhQXkO87q70k4KZ5H8WtSydL7q5odPx86NXv7Tqt8v3hjobfmf8wH55TEmd3Shw+ebuVlWRVnOQkI0fVl2TV7h9orcX2Lw8x7EiitWXt3WCsPdcg+5+NkLXr15Ky7hA6EBoQGhgTbWwMtXb5DrZVuA1+Q9lXfYGN0JqdOXbJHfolZ+lXWTY/kyZnyjV+yP2c2SvtMB2XB0phTIrLPyW1r0PNo8Eo3/bDJMByToitk9riPuI35rFgc0GaA6kBdD1q07hGNvfMT9Ij5CA/8tDTgCscY1okdrcQZ86/nTEVtadMi67GwyfpoIlubJPWIdd38ajCZ4HlkmIL/XcefHQUgdZwgg12ksNC6y1hOVyIfwtdCA0EBracARiNmet7cUP3zIo5KGTt6r4FnBXW4XlDQLjxyxpUWBXHl/PYM0nkT9Uv0quxf7JuCuGcrPNS9hL+V0UiDqwG+axQG2B6a6gIkesqho7NWMuF9oRmig5TTgCMRsjsfb40z2dqXX0msNLPJ6R7qBR3ObhUeO2NKiQNZr8/kluj1KnxH8lPuWysd7+NJbg2fEDH7ce5hdK2IJ1mjwm3m6WRxgc2CMvVEB5JYrWPbGQtwvYiE0IDTgCMRs1k1TQNYVsy/WF1XnWc3CI0dsaVkgywd6391DfNRsUh/Lp59oubtrEkEuphOHJDz7LSCtqHlORrE5MALIzSI4e/0t7hcVrtCA0EBjGnAEYo09T/++gks/xvDZgEFERvakg1rC1b8PkfLvFtdA+nTzNez88Utsnm24jtjS4kC25qzXBZc5kXKQI2dvUdzU210am1stLeTq6SPs3rGDrdu217u2Z9xvFDyihywqB2v6FH8TuhAaaBsNOAKxxmNVwcWVIwnvFUFYWFe8VGo0vj0Ik383v8IjCO8fxbh5e8h92TwdREdsaRMgN+5AW4Sgp/j3VQz3d6t5563p3bfmn9K4FAHkxho04n+N6uPDdWqLlsU9ws9CAyYNOAIx03eb/GxqyLqZ60NHbPk4gfzmLLMCNSg8I5j8w35OZGZz/sLFelf2raeNVriih9xWFYGeoov7WL9uA2sN10bWbdzMb7vlM5of8aaZC0aTBbWR9LSPc9i1wZRP65/rt2dR4KTv5a14fJX965Yxb973rDl8+xM6/1rP80tbSJ65mP235G2VbaVlkW5z+t4RiNmcfuVdUn/+kd+ynqBtBb04YstHCWTD/ma1GwN//pvKD3CsAHJbVSYV/LEkApXF24tM6wo0eIbGsPjIXV47HNtS/rmcScbVhx8MoLLL3xOqNuXN+qeyyzdk1mzlayuf1k+34u52vvB3pZ3SDY/23riP3MbjNtqTaXOlaSXmr+5fIeNsLvlvzW18y8E4b9opXAiZnyOAbMVvH+LztvquIxBrq7w2la4jtnycQM6aS6AUzOzMhvaTmRfchn8WQG7YN02J7cP+bwSyNJgVl/N5kF/Ag/v3+OtyBvvWfkN0sBftlL4MWplDiSMVTeUNlke4oh60nn8+tOdaXkJhQUF1HvMfcGHZANTqML4+dd/4twLyC0t450g+W/Q75aQndUEpRZCcUUzlex0vX7xqYLtHW+nAlnS1XF/RD7U0hJ/v6yzAW/LHTubPWcnhex9WD3yYlm2xQdxjq48dgZitz66+r/XereCILR8lkPXPDxPn48mwjfmih9yilXpLVSRGIGui2VhQfwGFtiSXdaMDUKpDmHmqxP7hpeYEsoV/dfyzdghqKYIlhsNuWso/zfBcXTG/jXRDFbKAC07Ye7e9Em0YyLY/oxn8aaED8byW8r0jELM9L637bgVHbGlZIOtekX/jOrcfv7No2dY6sJzC6zlk//Wogf83JHwtd7fF4OczmHnH7zs85yh6yA35t6X/3jiQZX1oi48wsbMGzeAN3K3p5Wp5lL2d+XHDCQsOpJN/d8KjEll26DavDBWmjofHlpMwKYbw9hJK3wHETE5gUuIqThq31lU8zuG3BfEM7tUNv86BBPceweTlR7jx2habGwCytoDDi6eRuC6bx9f28u3YSIL8g4hYmEXZ+ypsSbMyP5VFiTNYugxEEAAAIABJREFUe/45d4+vYcqw3gT6B9K17xi+2nKFp+ZDza/vcGRFIsPCQ/Dz70poZAyzN5wj3wBeow8mxxHpL6+zCOfzSQlMmjKLTZdNPclS7qatZ9bYgfQICiQgtD9RCavYn/fcrPGj48GRJSRMXU9W0XV2zYuhT3Ag/n0WkVlu9r+ndzi0NJ6BoUH4BfdlxKwtXHyqR19eQNoP0xneS85jN3p/nszW3Jdmz2/aL5WFJ1iSmMCY3h1RqPzoNy6BSZOnszyt2FBflOVsJDFhLjtvyicBmuJnp23P/ubYqqkMDZPzGUqfUclsvmzuB9NzxWetj1vOF45AzOZ8tfK7FRyxpWWB3OSqtgrOzQlG7T/HrEDZEOzyK/w8cTR9/FwNc0ieXSLoZ7GnrHqP2ZDFGY0+VwDZBl/XVHTNeW/TQNa/LzdoQ6kZwaaHci9ax4P9k+kiSbh0GcrEr5fw/XezGRPmg1Lpw5Cfr1MmH8+6JY6wHt3wkfe6u/nTtUcYoeFT2F6gozI/hYmBrihcgxkUP5dFSxYzc2xvvFQSXkPXkddkT7IBIFdeY0m4K+p+o4nq6IJH0ACGRw+hf3Iab2xMsyJvOb0kV8KjR+DrFkhkbBJJM+LoL+8kUPoQtelu9WiQ9h5bRndGKXWmb+w3LPr+O6aP6omH0hX/SYd4qDP5oCedPSTaaXwJkn3QI5J56eXodU85syAST6WEW+BgYqbNZkb8SEK9XWin6U783vuGRoR8ZkDu0gjUUiQjozuj8gyhX9RIBkbO5XiZ6X99iBrmj0dwFBOTZjMpugfuSgnPIQtZNj4QybsXIxNnMyNuCP4uahSd4jlgOI+gyqZYVN7byvheYQR1dKedwhPfENmOCCbueGgo16/3xSKp5LPyjQ0Nu23rQ1SUP67+gxg/YzbTxw/ET6NG4T2SjXcsh8dtrvRbpLw0Z9lz7mc5AjFbY9Pa71ZwxJa2BXLlQ7aO9kHlP7tRcNZzeHkmCyN7EWqoaORCav0K//pUo88VQG6rwmkLkPU82TYaSVW7VqDs/nEWJ6/nUonZMHfZbdZH+6BsH0/KC6M9DQ1Zlz8g9fu5rL1s3lMr58aGkXipOjLhYFNn2DYO5HYKV7pNS+WBOdhtTLMayGraufTh28xnNT1JbdFRpgRoUIUu4lJ5FRU3V9NHciF04RWzeetXZK+fz9I9uRSbetK6YraMcEMV+h05NfnRU3x0Gn4qV4InH+CO2SKpiscZzOvnjcIzmvV3ZRgZoatQo+4+g0P5pt617OPa/7n2X0q2KR665xybFoRSoUbhM5pNNaufdRTsjKG90p2oX/+tLpM2+kVOq6E5ZEsgO2abpvcCzsk9egNI9TxOnYq/yoXuC68YGyZtVUb+m+k6ArF6fGigUdTa71ZwxJYWAHIFF5YOoXu3HoSEdMFDpUbq0JUQ+XeLK5QuPh4oFC4EfdV4T9ZWh9t7nwByWxV6W4BchaHCVfoxPa3OthZdOc8fF5L/uIR3uipK9sXiqu7JAtOQbENArimoet69KCK/oIjnZXr0Lw8Q41ZdCTeuocaBrPCZzMHnDfm08TSrgSzRIT6VFzX5lJ9VzslpnVFoYtj1sorKBxsYpJHoMHozN940lFYVemtA1hXya7QHyi5fkfay/nfL8lbSW3Kh+3dXKTNBV+nLxEN1GypGICs7Mfnoa4tG75vDk/FU1AeatmgrURoNQXMvWtwvvwWu8VjYCGRHbTv80jI/ZaeY2lFC+mKvYwsKLWJX38eN60vc7wjEbPVpa79bwRFbWgTIV9bFMXxYNEOHRuArSbgHD2CI/Lv5NTya4SMnMGPVcYuWuq3Orbmv/CnXzxxk2y8b2bgthbS8YptbtgLIbVUB2AJkHffkBVTqML4zgbb8AceWxtKrY+2BMGrvbvTvF4Kk7sqcLGMvrkEgV/DP8eXEhHdGMm25knwIiowkUONCl+TzlpVzvcq1cSCrB/xsNt9t8q1taZqGrPv/aByarkm7gqyvQ1BqxrBV7snpnpE+ry8eSjVqn15ExX/L6h1nuPHMfB61ASCXpZHoo8Fr8jHr6y7Kr7Ag1AUpeguFOtOw9CB+rHkZjMkm0/8G8kOdod13p2bhq3Rj7G5LUOtf7+dLjQb/2ZlGH9vmF5t7yA7ZVj//+vILJAdrkEbtqB1tqImFyX7xWVP/NrNvHIGYzXlp5XcrOGJLCwDZTKxNziGb3Wt3YMu5l7qQof7y/JL5/lA3Og/6hv23G1pIVpumAHKtL2wWtd1xspaGDUDWFbFttDcKnwSOvJKf8YozyT1QK32ISFzLgTM55FzMJHXrCiZGdESpahrIJRnfECJJePWZzv9SMrhwKYeMo9tZGt8Pb5Xmw4FsZZuVrWmagDxw7YM6OwfqANng/1LupW9mwZTPCff3qh4i9oogcfed2mFsaz3kt6lM9NTQKelM7X3m8az8y2y7mAm69bcb1QxZW9mKZAJyzIE65a8OkG31i81Abi7bBJCbaJRaK8/N9zdHIGZP3dWa71ZwxJaWBbL2AenbtrD/8tOaOTF7nNfwvXqKjs8iWO59h8ayaNspLl67xZ+X09mxLJ4wLwlVlwRS/jXNDVkXjACydb807Pfmur8pIOt5dnYu3SUNXZIyqldQl6WR0EFCM/xXHtSsupbzo6d4x1g0TQK5nOOJvihcotmYb7lgR/t0F6NcWgLItqdpH5DN4/COhzk7mNHbC4X7CDY+MNpmDcjy4rNerqg/W2ulJ1+F9tkBxnlp6JBwgjemIWsr0P1wINvuF5uB3Fy2CSB/skCuLDjKoklT+GbPXYv9+M32bgXzxq28U0SnJ/PCZbv82cJALuLSkf3syzSt3DSvSD7gZ8PQmitSz2/JeFYfuiXZ3xPh4kJQclajzhBA/oAY1BGffRBvBMi619w6OJ/+7SVU/lM4UGiM75tDjPeQ8IhNsZxjfXud1Z950c4CyLdY0dcVdf8fuFHz8pJSDsTKi5bi2F9ibvc78tYMxk3REkC2PU1bgfwybw9ffzmZtdfNF1npKdoqL4AzX3FsbVFXBbkr+iGpgog/+G+dnvhLfp8fgaTqQuIJeV61JXvItvtFzseNlZGopQGsstjeZFxjUGNzM9kmgNxonWlfOTcvZ7b97AjEbM2TvKjLX+XGiK3FzdxBtG6bI7a0LJDLTjPNV0IzLuUDjkGsb2xF3grCJS9GbW/IsSXsj/VB3W1ho+ISQK7vW1vF/WH3GYGsCiYqaSHz5i9k3ry5JCXGMqh7R9QKNS4hE/n1Wmlt/HT/sn2sDwpNT2LXnSL37t9cz9zD/OhAvNv7oDYH8vsS9o3vgEITwcxdWWSfzSTvqZaHO2LwUrrRbcJ6Tubd4+5fWexcMBK/9h3xknvjHzqHXG/IWm9zmrYCuezGWgZ5SkjBMaw4dImbf9/jj1ObSQz3Qukzkf1PjA0Yaz1kuRFVksW8cA8UmhA+X7iNY+cvk52+j5XxEXgoXfCbcIB8wwhESwLZdr/IOnu2Pw5PpRthSXs4dzGTjGvPDLqwXGXdTLYJINeWuQ9qdDtWtzgCMVvrIm3hdkZ6uNJ9wWXrUzbNbK8jtrQskCtvs6q/K6pey/ijZuuFY4Eyd3rZ2Tn4NXp0ZgWXFvZE3WF6o+ISQP7wWJjHxfafjUA2n/tXuiB5dSF0YCxz1qZx2zBvbJm/yodpzBvkbwB29boBd/yjV3BiWwJe5ou63lfxJnc90Z3lfepq2kmRrLihRa8t5Pj8IfhKtWsONAGfs/TkduK9m2FRVz0gV9mcpq1AlvdjP8pYxedBnihq/CfhGjyW5WfNGqgNAfl9FZWPz7EqNoL2Zn5QeIQQNe8Qt2u2QrUkkG33i0FTpXmsHRFgjLsrfVbetA7k5rBNALnROtP2Mm5Zdm39niMQs/XZ+vfvyFv3OR09ejNt7y1emrYINjOITflxxJaWBfJ7Hfe2xeAr+fDZ4rM8bCYoV9xcQ1/JnWGbHtYZdjOKQPfEsCBI3XNpo+ISQHas0JgE1zafFRTdzOHMqQwu3Gp8Rb32VSG5WemcPH+HpzVD11WUPblNdkY66dl3KGomTTbli2ZPs7KEe1cyOZl2ht9zH/LSYl7dlrjqef34Fjlnz5B+4RoPSizn1Zuyp7n+b7NfdK/JzztPWtoFbtZdUV6vQnUO25rLR/+l5zgCMZv9YzhQaiyRQZ60U2jw8A+nb2T1IVKRZgdLNXWglK3pOWJLywLZeKJWv4DqldCajj2JaA4HVP7Fir5uqIISSSmos91D7kGc+Ipukis9Fv8hgFyvsrKlshb32FroxH1CK0IDzacBRyBms/+b6UApW9NzxJYWBnLznKhlzQEl55fSx0NC7T+EaSu3cygtg5NHdrI6KRp/jYRLr/lkPK+/4Mv8WaKH3HwFydyv4mfhV6EBoQFHNOAIxBxJpzW+44gtLQvkFu2d6SnO2URCZEDtIQ/ynJrm/9k777+mrjeO/ytm3AxGBAfIUMEFDqwbtI4WVETFhbO17rrtt62jrjrqrFq3OLCKCjjQWrVoqyBVwQEqykiiv7y/r5sBSQghiYlSvT/cVyD35N5znudzzvvs05r4tJWcfdh4F5wEZKnQeB8ZU3qHpDNJA+5pwBuINVXbepOW9wfkd9hRy7XBqyktuEjW0cMczsrjZontchDXIpCA7No+ru0u/Vayj6QBSQO+1YA3EPPYBxX3yNq8iHHDEukR14d5Z6oxGsrI3rGbK89c96p68i5v0vIegPzuO2qJRhAnf1z664ndgm5PjOMsrARk32YmZzaWvpNsLGlA0oC7GvAGYu4+WwxXc/8wU7rokMkEBF0oankoYw69Rv9wG4ODBAJ7LOKck33ePXmHNaw3afEzkH2zo5axKpdZMRqaCV2Yf6kaY+VJprYPI7RFa5dX+IRDjU7qunO3iML7D6RLsoGkAUkDkgY+sAbuFv2L2FCyQs2nn3rz6YLywB5M2XOLZ892MlRtBrJpOeGxacSqNHT8Nt8n7296QPbRjlrGmgLWJrVCaPUlP4sb3VddZvWYEXyZPNzlNeL7Cy4NKzr+5l9/8/e9+9Il2UDSgKQBSQMfWANiA8lfQK75ew29VRq6f/eXuae13BbI4oEsT9iR3JzGlsu6W0lockD21Y5aZgMY0ft4IbfUZS11pbmbuaRwklYkDfhfA95AzF2/mM5DFqKYetoyz8gRyG/c21DK3fd5kxa/dln7aket+gZ4Ren9+zwoa2gCVzVPim7zV5HjOa72gpKAbG+P+naW7ks2kTQgaeD9acAbiLnrn8rLC+kgNCd511Nzz2k9ID9lV0pIo1suu/s+b9LiVyD7aketegZo9FjH15ycHIkycmajXdavKqtchqn3br8u5Xp/wpfSJdla0oCkgaamAW8g5nYaKi/wdTs1QueZnBD3fLcDspGn5+YTJx5K9FVj56K7pxtv0uJXIBt9tKNWPYM3BmRDKbtHtETReopL2EotZPeEVc/+UqXEpa4ke0m6kjTgnQa8gZj7tjby8MhU2quUCOH9GD8vnS6Cjn5zf2HVrGRiggSUbTM4+NA3S5+8SYt/gfzmLb7YUcts8Gryvk/mM3HP0YSOhCgFNOFdsd2D1Px3L7q2b4kgUxE27ojLglMCsneZxv0MID1fspWkAUkD7mvAG4h5Zl899099x/AuLW0OqREPoGlBbPIyjhU2NAzqfhqs8fEmLX4HsukA+XfcUcucwGpylg2iS+d4OnVqS7BCiaplBzqJ/9teXeLp0iORlFk7yS93XdORgOy5yKxikz4l20kakDTgaw14AzHv4lDNo1t5nBI3lDqZy58PX7tsvHnzDm/S8h6AbBWt9ztq1TNGY13WbnapSkC2+kb6rKcxNzUk/U7SjqQB32nAG4g1bH8jr5+X8fjJU4+uJy9800r2Ji3vDcj6F4WcP7CddT/+wPdrf2Fv9j+UeXxknMXxNbc5uPJ7NmWXoLcrOF/z8OZFzl8ppMyNJVISkH2XkRrOFO6/42VhNpuXTGf08BEMHzuDJb+cp7DS/d/7Ig7+fcYrCs/v4Ye5UxmVksywlDFMmv0D28/e47mdjn2ZZiNP835mRsYCfr3lowmMhjJyN8xk0ry93HyP/tE/u8j6r6Ywd0+Bz1sz/vW7L/35cT/LG4g16Dt9Eav7Ws5Erz07vO4sdPOZ6vX/F1L2+kRf3qTF/0A2lHFxfToddSrzYfG1hhEIjE3lxwtPHKDqnuBe39rO6J7p7LAOwNf8w470jmhNz1cT0mcZ2dJpTz4RVoOC9xlEjDzI/Ia4IIFmci3B4e2JbBGEXCYQ1G0Wx6w+9tn73NOYq3RX3r9K1umL3G5kWMT6jMqi4ywYGI1K1KdcS1DrtkSGhSIoxAJBS+t+c9l/592A+fzuJbJO51P4yjZ9r9iXqqOZTE272bm+0UPFAUYGKmmm7MCsHN+0Jqx2Mn2+uEfe6TNcKrLvRnz5WxoBMiWK9nN9k44mpCe79H/C8fIGYg3aTtyfesMCZs2eW3vNmTuNxAgtzYRWdB46mVmLlrNwzlS+6BqOIFMTlvQ13x38yyf68iYtfgaynr/WDyZErqJ594l8tyeb/Nt3Kbh+nr0/TiGhhRqZLpEf//QwU9cU8GOfIOShSay8Kv7WyIOdI9Epguk4+jvWLBtFjFpDTCMFkNRCti24P+Df5ZmMD1ehiExl3cXH1IgFkqGc/E2jiBJUtBz1G4/c6PFoMGP6vIAzUrx+EIKyM/MvN67d6nt7GRWtQaaNZdi3u8n9tw68lQ/z2bM0ldhAAUX4cDYXNP485+nUc31pd5RCX1betT/prOzKNmZPX8b+O94+21Ebz7m8dR7TlhzkdpXjvXf/v/rP5cQJGnqtumfWgtV/5flsmfMViw/87ZMC07kd3z3+0nO9t6E3EHPf3hVcWNAdbUgSS3Oe2jcEDeVcWjmEFuqOzDjtev8Kd9/nTVr8C+TyI4xtqUKbsJxLL+s7qeL6SvoEqdCN2MtjDwrc6r9+oLvQnCG/PDIb1VDKliHBKNp9Q7apdVBBZkYkyth5LjOuBOT6PnFXbL4MV3n2ayIUWvqtK7bPJG+ec/6Xtfx29TGV1kK5SXx6AGT9HdYmhSAL6MGs048d0me1v5EnF5bSM1hAk/A9f3gFuYaB7EtfvY9nNQjkJuF7q8+kT39owRuIuRsP/cNfGByoJeH72/YVPauu9IWsHRCIuv86l9xw+30GI2fOX/ToWX4FcuWFObRVhjB8b0M1jgoOpbdCET6NUx4UQpWnpxGmimfRVb05sc8PMqq5msgZ5ywFt4HbP/ZBCJng0hgSkJtGoVJ5fjbRCg3dlt9q5DQvA/cOLCR9/BqyHxfw26I0esVGERbdjYFTfibnsRFjVRGZ/5vIgM7tCAtvT9znM9icX24DQj0PLmxlduoAOkVH0io8hi6J41j8218247h17zn37D7ZO35g9tTJZKy/xOunp1kxLp3hCW2Qy0PpNCSd0WMmMO+3Qqdae35iKmEKLV2X/tFIpULPrZX90ChaMeo3c+29+tYuvh43nU1Xy7h5YDljBsQTFR5F++5DyPjxJHcsXdM1xUdZOC6doXEtkCnC6J4ixmkiSzJLTXGqzF3LuPSZbLtpzi81hQeZP24Sq8494eb+JYzs3ZHw8PZ0GTSN9bniEFI1947/QHpiPJHhEUTFD2Hqlqs8q600V5OzZhJjv9rJjRrxBJ0jfDtOfKeTK30mW/+05NOaEs5vnsfIvmI62hDWthsDxi5j380Ks+30/3Jo0QTShnVDJ1fRoscI0zPTlx4336/KY/X48czYfsvO1i/unGDV1GR6dGxHWERH4pPGs2TPNbtKfl2an3L7yHeM7R9HZHgkbbsNZerPl+zCulvgSuF8X374E8iVZ76ijRDFNPG4RSuE7T6ryZ3TEWXopAbue5Zeb9LiXyCfm0mUEMlk696hdokXE1fNhdkdULaawnEPJoeIe2R3FlqRdqDcZLinh8bRUtmKsYcsGftNGQfGtEYZI7WQnQvPM2H5/Rkvs5neVk2zgC6k/ZTtMAZqG1c9+YviUQpdSewfTmB0IqMmT2N0UgcC5AJBfeeyeHgkgq4zg8ZNY1JqX8LVSmSt0thjGoc2cO/XMUQIAuqIfoz6aiHfzpvG0E6hJrj2XXndAk3rexIYPCgcuWXegyr5V8of7WVcXCfahwUjk2kJie5EbId4hq2xh4TZZlUcz2iDXDOYjf+6XoJnCv9kD8nBAsGp+ykXjxzNnkmEMoSEwf1ortQR3S+NiZMnMqx7GwSZQPN+P3DxxVtq7mxmeOdORLUIoJksiJbtzHEa9ct9U/54sXsEgiKSKZZ8WH11CZ0FDV2SkmgZ1I6+aVPJGDOIdoECsuABzFqSSpgqlNjPJ5CRkUavNgE0k4czcm+JpaCqYFeKFnn4dLKqxPdvMr0/toP4XuvVgZZaJc0UbZmeXY1RX8TutLYo5YG06TOWGQsWM3dysmluiWnY6poY5h82jognNrq1aaxd0yrW9LzOadvN7325h2SVirCpv1viYaQkax7dggVkAW35LGUSGRljSOwQikKmJXr0r9yxVPTr0jyQltpIEkZMZvKkVHqEa2kmDyVxXQOtpnpllq0epb99XTZ4AzF341B56VtihWA+3+I4GdjiR8NTdg0PRRHleodHd9/nTVr8CmTjk98YGaKhw7zLvHYm7KrrLOmmJeiLnTysrX27IfKqqyyM06Js8zkzFn9DUoQGecQ0jj8Xf1vBjR3ptFWpafdNjiXjOn+m1EJ2bhd3BefLcOVXNzEyNtg08U9oEc/gKT+wJ7/UocVsAaVMiabHIi6UWSBneMrhCVEmcMpCh7CudjaxgaJtyTSXB5C44V+TFirvHmHBjDXkWX8r6rLyL9YkhSJvnsbeZ6JN6t4j0/Xiq1+v8bDSiF5vhaqbXdb6u6zsrUHR4VsuutMDVFPAdz00KOOWkV9jAbI46Utoz+jd/9TlIXGW84okdHItXRbl11YiGhpDdg5kJc20PVmQY+09MPL4yCTCxffJWzJofUHt+2ru72BYiIAq6WdLfrIHcn0dGHmUOcN0lF3k2APcN62mqOafQ4uYvvqSTUv7La9vriNRp0KXup+nljKiwS5rByDrHx8mPVyFsm06u27bTACrecSJ2QkEyHX0/+mOqXvSDGQlzdRd+eZM3URS/aNDjG2jQhE7nzx3fOSsHJO+c1nO1tdHw+WONxBz+/mvzjEjWo0yZgqHH9rPsxDnIZWcmkkHscI3+aRP0uNNWvwL5DfV3BQndWk7M36nbZfgW4wVf7N3SlcCdIn8cK1ukou7xi2/tJrBbbSmAlyu68msE6Wmbkn9w+0MEQ+a7jqXU2IXpovMIgG54Yzhym5+u/eqiN9/nsfwhEjUcrF1FULH0Ru5+MzqRwso5a0Yc+iFnW9f7h9DkExNzNxLdl3D+kebSVSpiJrpUDkzVPH0YTGFD8t4bXhL2e4RaJQdmXNR7M6yAllH4oYiJ+NNbgK55hZLu2lQdv/O1LXbqN0MxfzUX4siZh65VVYgC7RKP8wTRx3X3OGHXlrkbaaTZepdangM2TmQBULGHja1xGvjVXGQUcHK+nAylLIxSYs8epbF5q6B/PrmBgaGqgj8bAV5L+prTF9ZxoOiYh48q0L/5jm7UoLs3ukekI0UbRyEWhFNxvHndlowpafqDxbHa1DELjCB1gxkgZC0gzyzs2UVxya0RqZKZruPDqavtafde+rbQQpX3ybeQMx9Oxp5cCiDtqatM/szcdlWfsvM4tiBbayYnESEWokyYix7ihxhXT+e7rzTm7T4F8hV19g0bTS9TeDUEBzbj6EjxzLyi0RiQ8X1YWpadv+SlORkhg79kiGWK3lBZv0M5kzclU+4c7OA+89tDVjB1cxMbphay64NKQHZtX3cEZ1/whh4cuMIK1K7ECgXaD5oE7dNrSwLKIVe/K/A1udveX18Ci3lWobtsAe18cWvfKlSET7tjFlTVfc4vGgEnVuYK3PiWkSlrj09urdDUFq6V61AFnqy4pZl/NNOf24C2VDK5kFi1+40U9duo7YynR+uRtl7DXf0ViAHk7zbCXDe6Lm6pKt5VvXfoi08BbKGHo6TWypPMqmVgPDFLntQv6lgZ7II/xmNAllfmsX0jgEoI8bUK9gq7x5jYUo8oSrr2k8NwdG96BalRRE5k7PW7uWGZlnbtZCrODq+FXJdOgcrnOnYfJSeQjWI9f8asXZZ10vzm2qyv2qHXDWUzY1U4Bv1n51GnMVJ+q4xG3oDscaeaX+/msLjy0nu5LB1pjKUmCGLOHS3ofFlz33nTVr8C+TKLKZ3iKB1WBuProgRljEjPwtcArLnIrMXt59/b3jKsYx2yJVdmH/FpuXqZGmPFcjJe2y6LkX92AH5OadmdEApDyV+3Cr2nMolN+cMBzcvZVR8C+TW8c5aINdfQmROv5tAFiG5rAdKZUdm5TTeC1R9TVzuI64XzjO18s1jyKGkHXJIkylfGCj4vhdKoSfLTZO1PAdyvWVFViCn7KXCLu+5CeSqAtYPbo086DMW5TpUjMpPM729BpmuB+k/7uPkhYtcOH2YTYvHEtdchdxjIL9mf5oOeeupDcw/0fOHzTIwK5DrpVkCsnuNHzs9+C/fewMx78qkKh7czLVsnZnD9X9f+dwO3qTFv0D2txMr7pG1eRHjhiXSI64P88TZc+Ji8B27uVLbzdmweCQgN2wb70TuzfNek791GokD5pPlZGncy72paOQtGHtYBJq1hVwflG4BuTKTdHEsdMAG7tntEmek9JdhqHwO5LfU/L2BAYECwQM3UuBqjFJ/n23JrZGrP2PFDXOr3ARkhYa4pTccxtJFO7/g4NhWyINGsqtM/P8DA9nwhFNfx6FSRjJiV/1u/tdHJ5jG8vuvc7hneMLWIQFeANmqhT78cMe+t8SkXdMEnRDkoeM5VPG2toUsAdmbPPr+fuOQP+UoAAAgAElEQVQNxN5fWeWZHbxJy3sCchUld66Rc+4cZ89mc8bhyr5hXp7hiWFr7h9mShcdMpmAoAtFLQ9lzKHX6B9uY7A4htxjEecaGROSgOyZwDzxj/th9dz4Xy9Uch0JS6/YLD0S41bOiSntkQvxLDQtcbMWwl4C+eVvDA8UCByx134c8dV1VnwWXDcj2AX4zeky8mDjIARFDDPPN9bF9Zory3sRIA8kduJe/nLWvVp5j/3TupnCdJmXU2sDM5CVyMNH82uxPXReXv2OhACB4C938sA0IVLPjWUJNi3mOt86H0N2svGG1y3kav7a9CUtFMF0W5BDmZOK+Iu9qaZJVsP3mFdGWPVRce17egYo7YF8cwVdBQ3dV/xlXxGx67J+S+XV5cSJwxGj91smjtWl+Vn2XDqJE3TGZ5p8LbWQ62xjtX1T/PQGYh6n4x0bcu6+z5u0+BnIRp5dXMfITuIyBOu4Uf1Pj/cO1d9n85BQ5IE9mLLnFs+e7WSo2gxk4xsDD45NM83w7PhtvstuCAnITSSTvrjI0s9Ckcmb0zF1KZv2n+DE4R0sHduDYLlAyNBf+MduDNlLIBv+ZeuwUGSqjoxYfZz8239z/cxOZidFomseitLtFvJbKk5MoZVcTVTqRk7knOPkJfMsbqeZVV/MwWldTds+aiIGMG7xRnYeOkHmob1sXDaFAdFixTKQmHF77Xa+MndZawgJDUXTPoVF209xPu8cB9fNoFdLNbLg/nwvLheyAPDJr6kEybV0mryT33POkHXtiemev4FceWUZcRolstBEpi7/ge/+Z3utZHf+C/TF2xmqExBiRrEq8xoFd27w+/Z5JIa3QKfT2AHZ+HQvKcECQuepbDuTS9bp6+Y0OgBZrLD9PjsetVxL1OD5/HzkArk5WexYPobOQeLOZ6PYZZmgIwG5ieR1J5U1q37FT28gZvv7xv72RUOusXdY73uTFv8C+eVppkSqaBbQkSEzf2TDtl3s2Lm73rX7nPNNFawJc/ys+XsNvVUaun9nqUGX2wJZ3HbxCTuSm6PsuKi2sHJ8hvi/BOSmk0n1z66wYXwCIYJNhU0VTvcJW7hcu0TpHVvIb8RNLDKZ1Tvc5izUAMKTlnJ0SzrB9SZ11Qd/rY6qbrN5eFsEU0VTRdRX511qzbQcb98ikjs7TCaRadB1+JJZO/+wWw4kvsfcQg4keUMW3yV3IFCceW56n5rgTqP4/pzDzl8VV1k1sI0lbRq6Lrv5XoBcYdlj2vlm/Vr6r/8X/RsDRUfn0quVzWb/6igSF2eyeXSo3aQu45tXXFk9mFYWLSi7rWgAyG8x6h+RtSKVTiE2z5XriEqaw56CurF3CchNJ6/X5iEncPYGYq6eZ3fPRw05u2c6SYP1vjdp8SuQK3Pn0k4ZQJ/Vd50sHfFeIJWnZxAmRDHVuuGII5DfmGdYKkMmuiwkJSB77wOr6Hz9+bqkgJyskxw/m8+dZ85mOPsiztU8Eid0HM/i/K1Su2VSnqXnFQ/+vMDxzGz+eFTXUnX9jGqe/J3P2ROZHD2ezaU7Txp8vxnIWobuEGdZG3h29wq/n8zi3LViyhtat294QeHVc2RmnufmE3/Z7x18UFXKjZzTZJ7K5WaJK5sZKS+6xtnjJ8i+9dRlPhbtrX/5iBt5Zzh+Kof8wnKfljeu/fkOtnBRmH+q7/QGYu7aylcNOXff501a/Atk005drrYq807MlZcX0kFoTvIuS0atB+Sn7EoJQdnIqTASkL2zv7uClMK9m33tgfxuz5J8Idnvv6ABbyDmbrp81ZBz933epMWvQDY+PcCoUC1xi646LKN4x8xReYGv26kROs/kRIkRox2QjTw9N584tZqor865rFlLQH5HP0g1fJf6cjfjNhROArKkz4a08bF+7w3E3LWFrxpy7r7Pm7T4F8hv9NzZnkqYJprPF+/nUtGLBrvn3E2kOZyRh0em0t6040o/xs9Lp4ugo9/cX1g1K5mYIAFl2wwONnKOrgRkqcDzTHfv114SkN+vvZuyFj6VuHkDMbdt46OGnLvv8yYtfgbyW/SPc1jYqzkyX86yNrXM9Nw/9R3DuzhMkhFaEJu8jGOFrsanzBldArJU4LmbuT5IuKoXlJaU8syDg1c+SDylnhK/9pR8Sj71BmLu28c3DTl33+dNWvwL5JoC1iaFIpMFENZtGKnjMpg4aXK9a/KGy+8g6Goe3cqz7LiSy58P62ZWNmY4CcgSkBvTiHRf0oikgfenAW8g5pl/3r0h5+77vEmLX4FsPiZRTcyMMzxpaFboB6xdi0B+Vv6citeV0iXZQNKApAFJAx9YAy8rXpuWo7oLPdfhqin+M5cL1/91MofJ+4ac63fWVV6aHJArz35NG6HuHFZ3E9JouMpjjGulRVC5vtSBLQiL7U3yzM1ceGS/05H4DhHI2TmXybl0VbokG0gakDQgaeADa+DCxau+A7K+iNV9NSg/W2U5nMYKy1dkr5pE+vwD3LXbQtd63zefTQ7I+tI9pDTXkfRzseloxEZB625rueYGO+dPpHeYmmYKHRGfpTB28nQyxg2nV7QOuUwgJCGd6dOnkTY4nlBBidBuEvsdDomXuqx9Izyf+dVd/0vh3mGIR/K5pNemqwFvINagPxsEcjnbhmpRdFzEZVf7y79jOeNNWvzaZW18U82tn7+kdcsBLMgsdNJt4K0wKshb0pMAXV8WnH5kv99tTSlnlyYSou3K3PPiiTNGHp9bRI8gNWEZJ+2OlZOA7K39pd81WAi8YyaWnitp61PWgDcQa9BeEpAdMlPVJVaOGkLXMHFbOw3BEfF079mbBIer74Isj2r8+kc7GBqkpcf/CuxhbC0M9XdZ3TcQTdLPFJrGrivIzIhAGT6NUzY1IgnIDv6y2k/69EiPDRYIkh0lO0oa8EgDEpA9FMyZ8xepMRjdM3LVGeYmdCa2QyeXV5evjrv3PEtcxbHpCMHVDmDV5M7piLJlBsdMS0YM/LO6H0pVMtttToCSgCwBWYKppAFJA01HAxKQ/QlkD5/tbsaozJtHjFLHsB0Om+vXvu85v6W1RNHmK343tYiruTC7AwpdOgde1YlPAnKdLdy1vRROspmkAUkD/tKAX4DcYzl5D0t5+Mh6/cPagVoUsbPJ+tf6Xd3nozLx7PV397E3afHzGPK7J8qpYcRTpCJUCJ1nkfW4fmu9LG8pPQJUtBp3zHQ2a2XBFoa0VKEduJkim+VXEpD95B8fiNmp36Xn+qSgkGwr6b6pasAbiDWYFssYsvNTyKwnp9X/9Pg44AbKJW/S4mMgG3j5rK6mUVcjcf2d5zUSA/f3jSNSUKKOHsSU/23nQGYWmYd28sNXXxATKJ6Fmsr2ewZq7u8kWTw7NugzFudW2BVoEpClgqnBzNxAJpPCS5qRNOA/DXgDsQb9YSgjZ8tSFny7yKNr8a9/2nGiwec3UkZ4kxbfAvm91kiquXt0CV90aGFztq2SZsoQ2g2ez/47lh27agrYOHkSq86V1lt69WkD+RX3zv7C4qnppKSkMmbacraeK+Z1IyLzVpw+/Z2hjNwNM5k0by83P5JtJWseXmDbT+vZf92+0tiQ3V7+eYi1a9ay+Uzxp3nU4KticvauYd6UdIZ/mcLwMVP45n87+f3Oi3r5vCEbNtXv9SV57PxpPXvzy30ChqaaTmfx8gZizp7TFL7zJi2+BfIHqZG85oF4tu3Rwxw6eYE/iivczpCfLJANJRz7urvpwHuZKpSw6HaEalU0k4fQdeYJHth06zcFYdeLQ8UBRgaKla8OzMqx7llewT8Xz5B1+b4Pl9f5ryXgmCbz2eFaEjc+arwQNjxlz8gWpv3hFZ38u5bSMZ4f/v9q7h1bxMDIQMSuSJmgo0VkeyJa6swVc1Uk/edlUljjZ9+9uEfe6TNcKnJ/q153bVd9dQmdBQ29Vt1rXAv/hQq0B3H0BmLu2vV9h/MmLb4FsgeG94lxKoq5fOIAO375hc1btta7tmbddSnoTxXIZccmEaZQEzF8I3ml5h3M9GV/8PPIdigV4aTurd+b4BN/+Uwfz7m8dR7TlhzktnUZW80NlsRrUPZewz9+3H3HX3bwBMj6h9sYHKQiUBeKQhnD1+d8MwnFX2nz3XOrubMjjTamoaovmb8jh8IKK3j1PL55mKVftEclb07ihkK/9hxU/7mcOAs0a3yma3NaJCBfdFlu+05PVu345/MTArKR0rPLGRCuNdWSGxq0b2xw/tMEcjVnZrRFrkpibZHDhLjyXLauOUh+qbXV6R+h+iVDfTJANnB3bRJqRVum7FhDolZl2vDmhY+h4BcfvWMcq2+toU+QgCZ+DqfEc9CdPU//L6d2n+SetaLmLIwPvpOA7J+ywRuIOdWBD3z8rs/1Ji3/zRayOMs6UoUsKJ4x//uVo2cucO58Tr3rwq3HzjOtxVmfKpDPfRODXEhg2U29S/uYBWmg9Mou5qcOoHN0BK0jOtNrxDx+ufy0/tCA4Tk3Dn7PxM97EhPRhtbR8fQfvZS9N8Ud08wZuPrWLr5On8Sq869qvzPfq+byxmmMnbzJ/L2+iP0LJjBu9QUeXtvFN8MSiAqPIn5uNpVvqslZM4mxX+3kRo2B+4eXkD46mS7NBeQte5I8Jp3R45Zz7FEZZ3/MYEzGOi68rF+AlJ9bw8SxU1h1oYFx25oSzm+ex8i+8USFtyGsbTcGjF3Gvps24W3i+fjOMZalJ9ExKoKwdgl8Pm0zeU8cwKF/zMXtCxjRJ86UnvY9kpnxcx7FufOJUbrRZV1TwHcJ4pKN+eRVlrLtixDkoWP57Vn99Im71JXdPMSKSUPoHhtNq7B2dB6QzqJ9t+x2rHM/3FtqHuezfUEafbq0Jywsmtjeqczels9ju2GOCm4dXM6YAaLdIojo0Ith09eRVWRb0XMnjG2aXnB0YhvkqgSWXPW8R+DFnROsmppMj47tCIvoSHzSeJbsuWYTbwP3Diwkffwasp/8zeHl4+nXqR1h4bF0HTyDjRctetf/y6FFE0gb1g2dXEWLHiMYPSad9KXiXgo2z3h0ne2zkukaHUl41/mcsVQQGo/HW6QWstRCdigcbTOC/d8ebQzip1qKeR2yll4r/36nbqlPE8hveXFmJtFKJdqO6aw5W+xizNVA0YEMYtRKlC27M3TcNDLGDqVzqIZmmk5MPlpSB2VDCUenx6OVCQS0TWTkpGmMH96XiAABWXAvFueYoVyZPZMIhZahO547aO41B0eHItOlm7+vucbCLhqU3YeQ2EJNYFRPBiT1pceMTF6/qWBXihZ5+HSyqgzc/jmVTh3aE6pW0kwbTltxI5ouY9laVMOD7SkEK0L5codDN7yhxAyz5qnsctba0hexO60tSnkgbfqMZcaCxcydnExHnQqZLpEfr1ngYo1n3CAGtAoirGcqE6dMJiUhEkEmEJy0gb+sXej6YvaN74AgUxHYPonUSVNJH9KdUFUgMUlJRLkB5Mr8RXQUNHRbftO0S92zg+mEKkL4wjF9b4w8OPYVnQKUyAJj6Js6mYwJqfSKDEYmD6HHklwLlN0N95aa+weZEBtAMyGMuGETmTx5HJ+bziMPJHZKpmXugYGCTcMIVWgI7Z7K9AWLmD1pKDFBAso26ewpFiso7oSxL3eMlSeZ2EqFeuBmiu3g7xCuXpljpCRrHt2CBWQBbfksZRIZGWNI7BCKQqYlevSv3DHBUk/+oniUQlcSE8PRhPdm+KRpTBzeizCVEpluEGsLDBj1/7BxRDyx0a1RyZRoWsWaNj3qnLYd4xvrMxIYlNQaRVA7uicOolfCTI5UuhsPCcgiY6wV+P/y5yfTQhYL9UghmmlnbGvcjWXM+vc/VSAb37wgf2MaMQHiGjwtoV2+YPL/fuNKiX2LWf9wL8NbqFB1+prMh3WnZdU8ymJ6Jy3yNlPJfC7a1cjDvaNpqdDQbtw+btvMfK64tYVhrVUEfr6VQv1bPAWyuOVq+wkHHbogbYFs8WtDXdYvssiIUKHqvZoCKxjfvKXmzhp6q1VETP0d59291fxzaBHTV1/imQ0AXt9cR6JOhS51P0/Fwt8C5GayALrMyqbUGtZQyoH0KOTKjsy5KOrUyIPdqYTINcRMOMDd2i5VI6Xnl/BZsGDyhetJXVVkz4xBoUlizV2LPyp+Z0qk2rxNrE369I9+I7WVCmX7Cey5Y9OifFXAz1+0QR40hE1FBtwNZzSUsHtEa+TqOKYfL6mrCOtLOTEjDkERRcbxFxhrbrG0mwZFB7EFX5fnynLWMnPxbi6L+wa4E8YBrDV/r6GXoCZ2/hUqHe65KrT1jw+THq5C2TadXbdtJmDVPOLE7AQC5Dr6/3SHGitMZUpUcXP4vXZ/AyMPD44nXKEmZu6l2nc777K2AFmmRBkzid8K68on9+MhAdm/QH7B9T2LSO3blbYRkYSFtaG1wxU16YhPKgSfDJCNT/eTGhpE/7XvNnHj0wWyuaCsKMxm45xUeoQHmmbsyoPjSFt/hacmqBgoXD8QlSKCCZl1Xc7mws9IyY4UAuUtSTtYgVF/n7UDApC3mcIxm61JrWEfFfzFQwuAPAWyLHQM+57WFezmZ3oA5Dd6ri7tjlIEY561gKzm8rdxKIUeLLluXwlxVrjrK8t4UFTMg2dV6N88Z1dKkLnLWEyTBcgysdu4zD6erzMnESrXMkzsDdAXsaafFnnENI6bKjG2Yav5c3lPlLJGuqxfnmRSuIrAYTtsZsJXkze/EwpVH364ba00GShcl4RKEcWkTMeeiLfoS25z45FoC3fDvaWmaCMD1CrCJh536O5+i750F18ECTQffYjn+kJW9dEiC/2CdbZd+7YQdSeMbfg3b6m+sYKupp6BW873r3cIb9Ve0cZBqBXRZByvbwdj1R8sjtegiF1AXpUFpvKWjNrvsNyo8jjjWwgIX+wybTQkPtslkMVn/FZmU6gbcT8eEpD9B+Rq/lw9EJ1cILBtf74cmUSUSoWu8yASu4SZeq5CuqaQ/lOeje9s86lnfzdRIPujRqLn9pZkwkL7MOvIXV46zYyNG+9TB3ItfPRl/Hnoe0Z21CGTt2TgRnEooIqj41shU7Smy8AvGTLU/hrcJwatTOw6vYWxMpP0UBXBow836gtPgazsudLhLFPRr54A+S36+1v5PEhF6/HmnduMpp3e1AR+vsVu57Zae1j0VHn3GAtT4glVWXfz0RAc3YtuUVoUkTM5awNkZcKPdV3T1t+fm0mUQsvnW56gt9pojHMbVV76lthGuqyfHhhLiFxL/JSt/Lpnb+21c0UKYQoNXZZct8CqiiPjWiLXpXOwdhays/zgbri3vD42iRC5itC4wfW0MGRIP6IDlCi7f8eNGiOlp+bQJUigmdCK2KSxfPXddo7ffGoDUnfC2MdX/2grA1Uqwqb+XttKdfRX/f/NGm7YDtXkze2IQjWI9f9WW7qse/E/sWvatkypOs+MaBXC4F9qe0BcAlnozfd3bJ/hSTyM0hiyv7qsyw8zpoWakM83mvYvMK1sUHVj8TWxUv6c/PXJhOl6s/SSzRwRWx14+HcTBLKfaiR2p0ipCfLyFCkJyA6F3pPjTIpSWc4Jfc1vo3Q0U8XQPy3dNHFFnLxif01g/oH7GF8dJDVIRavJpxrdWMRjIDtdxuQZkMXMdmR8BPKgL9jyr4HH+0YTomxD+iGHlpBthis/zfT2GmS6HqT/uI+TFy5y4fRhNi0eS1xzFXJHIDuJZ6UtkBuxkdgCjBdctJANpWxPDnG5qkARM5ccU0+E2Xfy1lM5btNtbAcZU1rdDfeWiv2jCRTHXAeMddBAnSbSFxw0DUuI73nxdxbr5o4jMS4SrUJpWuPeafxObtnEx50wtXGuuc6SOLE1O5ccm2fU3rf1Xe3fr9mfpqNhO+j5Q+w9Efqy8m6VBcji37YwfYvRYyA7PsOTeBgkIPsJyKa5R0IkU06LQzhGHmwchCp8GlmW3jujoZQdKS0IGGiZWFqrI/ty0rXm6sI2PSD7q0bio1OkPkkgv/qDLZM/p/9cZ2Onr9gzIghZ8/Ecqqzm4oLOKJwtj3IUalU+8zuqUX62yklrtk6gopArz88ytRoHia1G2+cYSvh5oJZmjpO6nIDO0xay6b2XxclQWnosP826gTqUsfPJtWZE23hY/n59dALN5QH0X1dUN14q3jM8YeuQAM+BXHWFeR3UKHutdmqjp3tHESxvGMj6op/NS5zStnAu7yK5dlcexxb0RlBEM+W0OHu9mssLuqAQ+vCDXUvN3hfuh3tL5aWFphZ8/3XF9n5zYjvHAquiOI/NGV3RyoMZsK7QvvVp+X3jYQzcXj0AjTyUpPV3XLaS9c/LKTONp1snWTVgB8NTdg0XZ6mP51CFNawjTH0BZOuz3YmH1GXtry7rytMzCFPFs+iq2CI2cPvHPqiiZ5FdWw4YKPi+N0KLSU416qjrxv5vckB+3zWSxgzkeP+TBHLNX3yXEIAssDdLHLtmyrKYHK1C2WUJ+TVvqby4gFhBQ+yM322Wh4iFuriX+FcMHbeKMw/FWbMivONQKqIZc+CRPcD099me3o8h845wT/+Wmts/kiCoCJ+cZTeZ6vW1/9FDo3wHIJsnEyl7/I8bznZp0heyLjEYeWgbWgiB9F7teob+i72ppgk/w/fYt6Irrn1PzwCl50AWl2rN6YhC2Zb0Qw4zvl9c5Ntu4s5TDQHZQMGPfRAUbZl2xmZikg0MxTHeRI2KFuOOmg9UuSRWQFS0GXuQBzaTvUzjxjvG03voAg4WGqh0M5yx6hJzO2hQdphJlsNSrpri/UwbNoEfzpagf36NbV+nMGr1n3bQ1JfUdTkb3Qljk7bafFtxmSU9gpFpOjN+V4GdfqxhKgszmdmjFe3G7OWuOInw6nLiVCrCR+/nvp0d3vIsey6dxG7w8Zk8s07qMrWW3Wgh3zSPaXdf8ZdNV7wVvPWh7n48JCD7C8g1d9fQWxVE4npzJfvZ7pEEqPqxsrbSWsGJyZEoI7/+SIH8nmsk1kzp7ucnCeQ3b3met4KeOgFZUBwjF2/lt8wsDm1bwZiuocjkrRiy5Z4ZqobHHJ0ci1LenI6jVrD9RC5550/wy6IU2moEAhNWcNEyRql/ksX0Dlpkmg58uXgnxy9cJPvYNr79siMaeTDdl1w2jy/X3GBZD62pKzx5xX7OXszjxPZFDIzQoWseVH/Zk7st5Ddl7B4egkwVT8b2bC6cPsPV2pmy5pbhkwPptJArkTW01MkGAvri7QzVCQgxo1iVeY2COzf4ffs8EsNboNNpvADyW/SPjjA+WoMsoCMpS3dxIuciZw6sJSOhJUJo64ZbyJbuWnlb29q8Q2vX8IBNnwcj06WyW0y34SknZnRCkAfSLnmpyXe55zLZsjCF9loBbY9l5Im+czfcGyMlx6bRVhAI7DSapTtOceFiDse2LeGLdoHIgnqx9NIrjFU3+aFPc2SqdgxbdoCcW3cpyD/JuvHxaBWtGLGn1L0wNr6wzc/VRYeY3EVHM1kg4b3HsWDdLvZnnuLY/u38b0YyseJsdaENA1desUw+K+f32fGo5VqiBs/n5yMXyM3JYsfyMXQOEg+hGcWuIhHADcPUWZe18eleUoIFhM5T2XYml6zT110/44278ZCA7C8gG/WFrE9qjjx0ID/mv6Lm4U6+1KkIip/E97v2s33pCKLFClrGiY8TyL6rkfjnFKlPFcji+MnTS5sY172V3cEcQquejN+Ub7fMx1h1j4NzhxAdKC7LsUxuUjQnZvhKskvtN72ovn+SxV92IlhpnQSlRBbQnsFLsyi2aZ28uLqR5GjzXsSmZ6ra0Pub/eya3s50ZrWpALau73UbyG95mb+GpNYaczyFBJbesJ9BrX+8k2EBaiKn/d7o5DOxJVl0dC69WlmeJ6ZdHUXi4kw2jw6tP6nLSTztxpAtgHldsI8ZfSNNa1jN9tQQmjCdnZkr6NHAGHJlrnj+t5qYORftWp22oDItPduWTKBcx+dbHpgLlJpiMpekEKtT1/lOHkzUkOWc/NemFehuuDfiUrD5DGyrM83KN8dfRWBsKt+fqzubvObhaZYMbodGbqMDbTsGLz3DQ8uyMHfC2KfPpgLy4i/2LUylSwuHnfqEUNonTWPtuUc2rda3GPWPyFqRSqcQG1/KdUQlzWFPgbXHwUMgv3nFldWDaSWY06jstqIRILsbDwnIfgOyOGR2eydpidM4aOrZ03N7+2iixP0LTGWbQFD3OWQ+si/XGtRhA5VGa/gm12XtsxqJn06R+nSBbC3cqnh0K49Tx09x5vJdnjrr6rWIrqaskPxzWRw7fo78IlcHeBh5fv9PLmSd4NiZfO6W2RT8tgKuesKt3CyOnczhz4c262Rtw3jxt/55MfnZJzl2roDHdukx8M+6gWhVPVjqxlIna6YyVpVyI+c0madyuVliXTZltZ+3n9WU3L7M7yeyyP7zgYuNWbx9vv3v9C+K+SPnNMcys7l0r9x+SMHGxu6GM+rLuXv1AiczT3L2ajHPrWuvbZ4ltjif/n2FrMzjHM++SuFzZzpwJ4x9Wmr9Ir6rppx7Vy9wIvMEpy5cpaDEtY70Lx9xI+8Mx0/lkF/YsB3s3mGXJse4GCkvusbZ4yfIvvXU7VaV7+PhGK//7v/eQMx9fzm3y4uiixzdu48Dp29RaldmOA/v7vu8SYvft870SY3ET6dISUB+N8G5K8wmEa4yj1mxGtMGJUVOAfIJ2cIlZCQ7NAm9fqI+8gZi7vvrFaX37/OgrKGKdTVPim7zV5HtGnLv84M3afE7kJ0Zy181EmfvcvWdBGTvxebKrk3vnpGSvaPMS50O20/Sanpx/VR8IqVT0l59DXgDMbft+OoIY3QaOi+6Zj+kUVv5ec1J06SumW73drh6tzdp8TOQ32+NxJVxnN2TgFw/Qziz03/+u5oC/tfTfCCDq6VO//l01hYsn4hfpfT6BBxNSffeQMzt+Lo7fqwAACAASURBVDcGZEMpu0e0RNF6ik/s6k1a/Avkxgzwxrc1ErcdY8nIEpA/lYK7imclpZSUN9RV9anYQUqnp2WEFP79asYbiLn2UTV53yfzWc/eJCR0JEQpoAnvSoL4v93Vi67tW5q2zwwb97HuZd0YkH1cI3HtmPrCkoBc3yae2lAKL9lQ0oCkAV9pwB9Azlk2iC6d4+nUqS3BCiWqlh3oJP5ve3WJp0uPRFJm7SS//KOaZf3haiSeikICslSQeKoZKbykGUkD/tOA74FsE9fGGog+HgLxJi1+6LKu5kPVSDzNKCKQ8678waWrf0qXZANJA5IGJA18aA3kX+f6zQKfjOHW40HNbQ6u/J5N2TbnuPsYwrbvbCJA/nA1EltjuPO3COSSx88of1EhXZINJA1IGpA08IE1UPb8JWK57E753dTDND0gv+caiacOkrqsbSpPfqwpeuoXKbzkF0kDn6YGvIGYZ1rxx3HAzn3lTVr80GXtGLn3ZwDPHPPWVBN7Vel6dx9PnymFd/S/9L+kCUkDkgbc04A3EHPftn46DriBxow3afEzkN+vAdx3jFkcUgvZvUziqV2l8JJdJQ1IGvBGA95AzO33+Os44P8MkN+zAdx2jMWAEpClQsNTzUjhJc1IGvCfBvwJ5Pd9HLA3afFrC/l9G8DTjCIB2X8Zy1NfSOElX0gakDTgDcTc1U3lez4O2Ju0+BfI79kA7jrGGk4CslQAWLUgfUpakDTw4TXgDcTc9ZvvjgN2z07epMWvQH7fBnDXMdZwEpDdE5bVXtKnZC9JA5IG/KkBbyDmdnz0haxPao48dCA/5r+i5uFOvtSpCIqfxPe79rN96QiiVSrCMk74ZNmVN2nxK5B9dh5yA4Pmbjuigd9LQP7ECxdDKRd2rmPV6p/M15q1/LR+K9sPnuHqv698kinfVaMN/r7iPud2r2LO5LEkf5FMctoUZv1vJ2fuVryXeOtL8tj503r25ptPz9I/u8j6r6Ywd4+fNnVoIA83aB8p/HvRga/t7w3EPImDT44DdlNb3qTFv0B+85b3aQBPHCOGlYD8iQO56irfdlbTTKasfylCiPliEfsLvAfc87uXyDqdT+ErX9q5msLMRSRFBJjiLFOF0CqyHa11WuRiOlRt6DPrILd9+s768a++uoTOgoZeq+6ZCv6Xv6URIFOiaD+3DgQv7pF3+gyXil7XfedmYeZpXpbC1/fRf9Em3kDsXdPpr+OAvUmL34HszFj+MoCzd7n6TgLyx5GJXfnY5T0LkJWfrSDvXhH3Cov45/ZN8k7tZeWMwUQFKJGF9GNpznMvgKLn+tLuKIW+rLxr8OL3znyj5+6vY4kSBDTtklmw8yLFldZw1Ty4vI8lIzoRIFfTethmblZZ7/n+0xHIxvJ8tsz5isUH/q5Na/Wfy4mzQLtGAnGtXVxq8hO3kzcQ88iehtc8up1P9uksTpzOJf/vp1T6yebepMX/QH6PBvDIMVILWSogLEAW+m+g0OAILSPPrqxlcGsViuhpZD719AQY3wO55vYGEoMFtF3nklXaQHwMZZxf3IcgeRDdl/3ht8KmHpCdFGoSkB01Jf3fWBntDcQae6bpfmURx3+YSO+IYHNPUm2vmJqg9oOYsj6HBzW+9Y83afEfkD+AAdxyjE3BIbWQfStAT+3/wcO7BLJoGyMlv42llSKA3qv/qa3AVD/MZdOcNPp0bk9Y60ii4wYyZskBbrww27Om+CgLx6UzNK4FMkUY3VPSGT1mIksyS83PqCnh/OZ5jOwbT1R4G8LadmPA2GXsu+mqe7yC45MjkasSWHK1kXOdawr4sU8Q8tDR7H0iglvPzR2zGDt+DecqHHxelc+GyePJ2JjvdvpEv9UDclUeq8ePZ8b2Wxj1/3Jo0QTShnVDJ1fRoscIRo9JJ33pcYzl5/hh4jgm/ZTLC5u8aNbCC7JXTWZMxk+ct9jyg2ukXhwd7Cfdr9WNL3zlDcQae6/+WQ5L+7ZELlPTvPOXZCxczYZfdrF9y0a+mzeJxPY6ZDINYcM28odj/ngH/3qTFr8A+UMZoDHHON6XgPyJFy6NAvktxspspkWoEBI3mgqemsK9jIrUINNE0zttJvMXLiBjWBzBCoHgfqu5WvWWmjubGd65E1EtxHHeIFq260Rsh3hG/XIfo76I3WltUcoDadNnLDMWLGbu5GQ66lTIdIn8eK0B2FaeYlJrFeqBmymu15qv78fHu0cSJA9l5L4XGN9Uc3ZGW+SqZLaXO4R9dZg0nUDw6MNup0/MR/WA/HIPyeIM1am/Y9T/w8YR8cRGt0YlU6JpFUtsh050TtuO0VDCti9DkeuGs/2RfStf/3Anw4JV6Ibv4ZEbaXTMz9L/Dr59B5h8KFt6AzGXcTU8Yk9aBHJlJINX5vHYma6q/uX4/D7o5Bpivs6mzEd28yYtvgfyBzSAS8c4MbIE5P9+BvbU53bh3QGy4TGbP9cij/jK3BKousfBb2ey6mI5+lpNVXHjp0EEK1owcl+ZpcXQUJd1Nf8cWsT01Zd4ZlM4vL65jkSdCl3qfp7WPrfOPzV/r6GXoCZ2/hW3uqGr//qB7oKGLov/oNoDIBvdTJ9LIFvi31CX9fOT02ijCKDXyjvUjS0buL2qHypFW6acdtVTUGcTO186sZl0/79nK28g5srPlRe/JVbQEDPzHOWuNGIoYZ8Ibs0AVt3xzZwPb9LicyB/SAO4coyzexKQ/3sZ1pkfvf7OHSC/qWBXihZZy8kW0FptZuT1s0cUFj3iaaURY/kekrVqYuZeagTI1t+/RV9ZxoOiYh48q0L/5jm7UoJQxM4nz8lkrOqbK+gqaOi2/BbVrgoWyz39/Q30U6lpPzuPSk+AXPts1+l7FyAba66zJF5jSmuuNa1V+SzopEHZdTl/+Hgsz2t91NqizmfSs/xrC28g1rBPqrk4vzMKVRI/FTYO2cori+io1NJnTaFDXvcuzd6kxcdA/rAGaNgxzg0qAdm5XTy14382vDtA1t9lZW8Nig7fWjJpNf8cWUJyl9YI1okhQihRCQlEqtREzDjXKJAr7x5jYUo8oSrrcisNwdG96BalRRE5k7NWSNkAQV+ylYFil/Dk07y2+d7O9oa6LuDKi/OJUWr4bOU/1HgEZPfS905AfmOkaPNQAhVtGHfEPIP9RdZ02ih1DNpUbNPz8InrsyE/f8TfewMxuzxgZ5sytg8LQNFhgdNKbr3fVWYyLlRNi4kfzcYgH9YA9Qxs55z6mVsCcn2beGrD/3R4N4Csf7iNwUECIaMPmUBblvU17QSB4K4T+WFvFufzcsk6tJVFad3RKVSNA7n8NNPba5DpepD+4z5OXrjIhdOH2bR4LHHNVcgbALKx5oa5VdluFtlO1hg/y/mRzzsPYdUtcQxazx/ikitlB2bliP+7P4bsbvreDchvMZZnMi5cReCQbRTrn7J3VEsUrSdwsOwT12QjZdZ/Or+5kTafAtlQzE/9NCh7rqRA74auqnKZ1V6NesS+j6SF/IEN4KlYJSC7IVI3MpGndm8y4RsDsqGMrBkdUSraknFSHNes4si4lsjUSax16ALTP97OYHXjQH59dALN5QH0X1dkM376FqPhCVuHBDQM5DcGbv+UhFYewoA1BfXGkWvu/cKQUBWB/dbw591dJLdUIXRfwXVT928152a2R64awubHda1o0Q/6h1tIUiktk7rcT987A/lNNZcWxKFUfcayrI0kBWqImXuxXrqajFY+5nzQhNLmUyDri1jdV4Pys1XcdgvIeSYgCyl7PxIgf2ADeJp5JSBLQBZ36nK2Dln/vIC93/RCJ1cTlvYb900TsCrYM0KHLCiVX+1acq+5+l0ftDJ7IN9YloBS6Mnym/raDP5ibyoBch3D95i3nLRqtuLa9/QMULoA8luMr/JZmqBDpu5I+q4CXtoVpAbubvmSEEUQIaHByNTxzD4nzrAWfWyg4PveKBVRZJyynTBVxdUVvVDLrEB2P31uAdky7t19xV9Ox71r7m1kQICKkNZhKDX9fDaZxmpT6fO/l7/9AuQey8l7WMrDR41cxSeYGq3i4wPyBzKApxlQAvJ/L8N66mOX4S0tZHnEIDJmz2XW7Ll889U00lP60765hmayQNqO3MTV2jWxRu7/kkywXEv7kWs4dvUOt//MZtucQYQ1b0GwYAvktzz5NZUguZZOk3fye84Zsq49QV+8naE6ASFmFKsyr1Fw5wa/b59HYngLdDqNayCLy42KDjMlTmdaTtWmz0QWrf+Vg8dPcmjPJpZM6ktrQRyX1tFv9W271mb1n9/RXaVEaDuC5fvOkZebxbYFQ2gT1AKd1rrsyf30uQNk49O9pAQLCJ2nsu1MLlmnr9dWTMx+KWP/6DBkMkFa6mRXufp086U/gOx0a1zr/A8nnx8dkD+UAVwWvk4ELwH50834Jq1YgGyrV5lSS1B4Jz5L+ZqVx27XXyqhL+bI7L60NIHPPClL1eZzFh3bSprOdlLXW4wVV1k1sA1KU6bX0HXZTVNrtejoXHq1EoFvmdSljiJxcSabR4c2OKnLTtsv/mLvghF0CrV5hvgsdQQ9Ro6ip9h13Xc1N+wmh1WQv34EURrrRDIlQlg/Zu7bw7Qode06ZKOb6XMLyG9ecWX1YFpZbKXstsIByEZKdySjVbZj6ukmfpiHk/LDzifSfQffele2+BTIhjJytixlwbeLPLoW//rnB0uLb2dZf2ADeJpBJCB7l2k8tfPHGL6y5C8uZJ3k5IUCHtmBz8GmhhcUXj1HZuZ5bj6p67o2VpVyI+c0madyuVnSwGYgjRXyVWXcuXKO45mnOHPxFoVl4vMNFO6dx7R1eZQ4GTerfFxAzqkTnDh/kwe1+2A7xFk8FMbd9DUWxzdGyouucfb4CbJvPbUv6PT3WJsYjNB1hbTUqVE71vfRx5ivfArkD2xTb9LiWyB/YAN4KlAJyJ9GJvdUF1L496OL17lziRF0DNosLXWSNGfWnDcQa6q28yYtEpArq+xr7f+xSkVTFaMUr/cDtf+snQ2P2TPSvNTpkN0EOclu/1mf+qDs9AZiTdVe3qRFArIEZKlC4oOCpKkWCk01XtW3fiRBJe5sJi11aqo++hDx8gZiHyKe7rzTm7RIQJaALAFZAvL710BlOY9KHlPmavxd8sv798sHtrk3EHMHjh8ijDdpkYAsAfmTy/QfInNK75S6oiUNNK4BbyDWVO3qTVo+eSD/fe8+hcUPpEuygaQBSQOSBj6wBu7d/xdxsm1Thawn8ZKA7GF3i+j4G3/9zd93i6RLsoGkAUkDkgY+sAZu/1MoAdkT6p85f5Eam1NlPPltUwsrLXtqvAupqflMio/kM0kDH68GvGlVNlU9eJOWT77L+pU0hvxRdA811UwpxevjhYfkW9/71huINVU/eJMWCcgSkCUgezjU0VQLAClevgeEZNP3a1NvINZUfeRNWiQgS0CWgCwBWdKApIEmoQFvICYBWRpDbhLibapClOL1flsVkr0le38sGpCA7GHNUJrUJWX+jyXzS+mQtCxpoGlpQAKyBGSpteuhBqRCrGkVYpI/JH98LBqQgOxhYSy1kKXM31Qyf/Wdk6xfs4njfxs8rFQZeZT7K2vW7udKmdHD34r+N/IoZzdrVv/Emu0XeGBwpYnX3Di0gdWrf2Lt0QKqPcxvTcXWUjxc+Vi65yt9SED2sICQgCxlPl9lvnd9TsXBsQTKQxlz6LWHUNWTvygepdCXlXc9hbno/2quLIxHIVPSTEhg6Q2bc44d89PT/aSGCjSTKRFS9vDC8b70v4e+cz//Pb97iazT+RS+cv8376pJ6ffvZmsJyB4WCBKQ301wUob1nf2aBJBlamLmNHRikZEHW78gUAS3BGS/gdd5ntJzfWn3d6h0+U6nzuMnPd+ZXSQgS0B+zwWFlBGdZURvvvvQQFaqejGgTxDyNtM4+dKJX/V3WdU3AEV4P3q3VUstZA/LGm80UfcbCch1tnCizffqC/ffLwHZQ8dILWT3xfVfzBD/pTg7B3IFtzPXMGVYLzpERdImtgeJ6cv59epT9LVat3ZZ92fV7btk/jCZpPgYwsJj6ZI4nqX7b1HmclzY0mWtGsbKDSMJVrRi1P6yehW76j+XEy+o6Tj3Z75q7wDkmhLOb57HyL7xRIW3IaxtNwaMXca+mxW1z6kpPMj8cZNYde4pt498x9j+cUSGR9K221Cm/nyJx7ZxdON5Vt9WP8xl0zcjSOgQTVhERxKSZ7Mpr4Sbu+aQPvlnLtkciVjzOJ/tC9Lo06U9YWHRxPZOZfa2fLt318XzCTf3L2Fk746Eh7eny6BprM99gv5NNfeO/0B6YjyR4RFExQ9h6parPLON/5u3NP4uA/cOLCR9/Bqyn/zN4eXj6depnclvXQfPYONFs49rio+ycFw6Q+NaIFOE0T0lndFjJrIks7TWtlZbSJ9NqzyTgFxbSLnnGAnI7tlJyuj+t1M9IBsec2pOAkFyAW1kH5InTGNS2iBidWqaqWJI23WXSpPerUCOJzEpAqUmkoSUSWRMGEnPNoE0k+voOud3O+jY+9MK5M/ZcCeTCWEqAoftcJjcVU3O7I4oVH344WY2M6JUdS1kfRG709qilAfSps9YZixYzNzJyXTUqZDpEvnxWrUJHNVXl9BZ0NAlaSAttZEkjJjM5Emp9AjX0kweSuK629SI6XHzeWIaqu/tYVS0hmZCSzoOSidj8ngGx7VCqe1Mn4Qw5EFjOWAZc625f5AJsQE0E8KIGzaRyZPH8XmXlihlgcROyaxNb108k2gZ1I6+aVPJGDOIdoECsuABzFqSSpgqlNjPJ5CRkUavNgE0k4czcm9JLSDde5fVb11JTAxHE96b4ZOmMXF4L8JUSmS6QawtMFBzZzPDO3ciqkUAzWRBtGzXidgO8Yz65X7t++z96X+tSu9zz8YSkCUgS5nUQw00lcLFHshGSg9NIEyhIXrMHgpsJvJUP8xiVncdsqAk1twWJ3FZCnaZEnnrL1l3va5Vanxxgw1fRiBXtmNK1osGtGEF8iA2PHzNuW9iUWgSWWM7QexlFhnhagIHb+X+q3NMj7QB8ptq/jm0iOmrL9m1El/fXEeiToUudT9PRXiagKykmbor35wRW5rmQk3/6BBj26hQxM4nz9Sade95RsO/bE9uiUwdz/Tjj8wwF59pKOX3OQloxbFuK5ANJewe0Rq5Oo7px0vqwupLOTEjDkERRcZxs31q46ntyYKccks8jTw+MolwhZJm8pYMWl/Aa0v8a+7vYFiIgCrpZ7N93X5Xnd9UcXP4/bF1hryRhwfHE65QEzP3Um2lSxpDdg+CTSU/i/GQgOxhYSy1kP97Im9KGc6XcbEDsqGYDUmByCOmklle30eVV5cRJ6iJmXeZylogN2fwln9rQWeNm/7hDoYGqwhO/Y1nTvOHLZCNVF9fTpygoeuym7XLmp7uH0uIoiWjfivDWOUI5Lr46SvLeFBUzINnVejfPGdXSlAtaM2gEwhJO+gQjyqOTWiNTJXMdoe0unpezb219FGpiZqRXX+296tcZsWqa4FcU7SRAWoVYROPU+5gA33pLr4IEmg++hDPaysOAiFjD9uHrTjIqGBlbXqs9hUrABuTtMijZ5mA7P67LECWt2TU/nL7ylLlcca3EBC+2EWZKb7SGHKtvR3815S/l4DsobMkINcVpk1Z2J9C3OyAXJnJuFAVwWMO89KZpqsuMSdWjZD0M8UGa9dnIj8VWVtZNn41FLO2vxZFh4VctBlPrbOpPZCN+rus7heIInYeuWJ4Qwm/DGuOwjrZywmQK+8eY2FKPKEq8wzsZjINwdG96BalRRE5k7NV1hayhh7fW7qma9NVTfZX7ZCrhrLZ0kp053mvj06kuaIFYw47WyZWxbGJrWu7rF8fm0SIXEVo3GCGDP3S/hrSj+gAJcru33GjxkU8K08yqZUZkvZQr2BnshZ5mxkmqLr/LqvfevG/AoflalXnmRGtQhj8C6WmsWkJyHV6tdF2rYaa5ncSkD10kATkpink/2Lme9c41wG5CuOrg4wKUtFq8qnarlG759f8yZJ4Dcrea/hHbynYVUNqgWYX9s1TtgzWIm87m3PuAPmNkQfbkwlSRpFxqoKau+vop1ETa2qNv63fQi4/zfT2GmS6HqT/uI+TFy5y4fRhNi0eS1xzFXIHIPdada+uy9iUXx2A7ObzKvaPJlDRhoyTVfatS8szs6ZFobB0WZvCyrREDxjL6DHipKj6V/qCgxTq64BcL55WIKfspcKunLEHsvvvsgLZyfpxCchOfPrfK6skINtllMYdKAG5cRvZF+5S+He1h/7FPbLP3TJ1j9o+69mOZFSKCDJOVWOsucbCzhqUn63itr6+zfVP9pASrCIk/SgvrV3WinbMyHYCp6rzfCW2tvqtNwHH9p3mvx1ayGIeKjvMmJZqQtJ+48KyBJSqz/julmXDEIcW8uujE2guD6D/uiJ70BqesHVIgMdAdvd5lRcXEKvU0meNw3vF+BuKWZeore2yrry00BS2/7riel36jvawTuryFsjuv0sCsqPtP7b/JSBLQP4oapYfW8asTY/hMduTQ5AFDmDlLfPsY9M9Qwm7RrRCpvmcDcVit3M1+Uu7myYbpe371x50b8o5OzseQRHBuKPi2KOlYJcJ6AZu5C+7VnA1tzcOpbk8kN6r7jg8xwp6J0B+84qs6e1QBMQSE65Gm7SpDuYOQH6xN5UAuY7he+zHQSuufU/PAKXHQHb3ecbKXL5pr0YZO5OsZ/Zd9c/OfEOsYDOpq+oScztoUHaYSdYT+7A1xfuZNmwCP5wtMcH6XYFsdPtdngH5hlgxEnqy/KaLndQ8LP9qdSn9zi/lpgRkD4UltZCthbL0+b4Kp+fn59NJLSBEf8H8TYc4lrmfVRkJBMtVhI07TIl1PWtZNrO6BCJTtePzuVs4fO4iF07uZllaPIFyNWEj91ggaSnYFS0JDdUSljSXn49eIPdcJptmf064oEQdt4Ds5w352BmQ31J5ZREdleKs4hYM/7VuVrTjpC598XaG6gSEmFGsyrxGwZ0b/L59HonhLdDpNB4D2d3niXtwP/gtnXClQHDXify/vTN9a+rq2vj7p5DknEAAA1EmyyCjOGFR64BWa0FFEdQHqXNV1EeFamtbbavVWlsRR4RWAsgso4JWcOBRQaoMKohAIAN8ud/rhCQkIUCigkHWh1wOnJyz971+e917PHx/KQ/FpQW49GMspokdMEHsAJ52l3WPCo3pm+HNsnAIjEJi0nUUlRUj/c8ELPfhrgtFYnmHOim/syGb/SxLDLkXLy5EwpEvQmDcOeQW5yH79osRMZHRagfj4TlkyGTI1EgtZGD0E0M3HqfFYx53/lbzGkobgRN8V/6CUqNfDiF/notDK6fBiRvtaa7lOfhg4c4ruK87CqVJ7MIvcTzvBFb5O4OvvS9fDO+lB5H+dKhRlWlDVike4sinIvDd45DepmfmRiNkVY8SddfiEepipyujja0nFh6U4nSUZMCmrgFTwT1Ga8hm3q8vbh2oStqMEFc9LYUemPN1CpK5Eb44Bqk6nbjjVHsR5i0GT6sPTwgHv0gcKWzWTWW/uyFzWpnzLMsMWdVeiaNhHmDUZe/bBT/67OpxYPXt7MOXlQzZQkhohPzhoR23SaWrGdXF2UjPLMStujadIQzUQ4W25/dQknMdWTdu40mL0Y5cY+aVbaitKEBGViFuPmkZZJp6BOLe1YSq4hxIr5egulFvOt64fOb+25L7dTSiqiQXGdnaZ3cgde1ECCZvR57BFD734pFWPK4sQpY0C/mV9XitnZEwt1yWXPe+n8XFtrIQUukNVL8YqpM1AvG1pN50rXpgRIZsIQhkyNRwBxogaTImNFG2oOTXzViy+hfcNTJdRVMqorg3jkWc1xwbopiOiZhamL+tvU5kyBYGlAyZEpW1N2oq32CMdqPy2zmw54vg+UUiLty4jyd1T1Bx/Xdsnj0JfOFU7CrUe2uZhbmBdB9Md/p/c9kgQ7aw0ZEhU+Myt3HRdVbIiuIZpP9drH73s3aNXf2rIV0/w7YU7bu+rbDcFuYpYm9sxpAM2ULQyZDHJuiUoChu+gx0NlQhO+0iziZdxNWcf/BMt5GLdNLXif4+ujyQIZMh0y5rCxmgJDW6SYr0Jr3HCwNkyBYmYxohU3IYL8mB6kmsEwOjywAZsoWGnFtYio7OLsi65GP+w9XleWMzXrW20Yc0IAaIAWLgAzPw8lUruLz8MfgL55NcXSzp1P2fJRdz13IPyL9RhoLicvqQBsQAMUAMEAPEgAkGOJ8ccUP+mKasLe2M0PWjO31FepPexAAxMFYZeJvpd4tHyGTI1EDGagOhchO7xAAxMFoMkCFbuB4+WoGh51ASIAaIAWJgfDFAhkyGbNEGAkoQ4ytBULwp3sTA6DFAhkyGTIZMDBADxAAxYAUMkCFbQRCoBzp6PVDSmrQmBogBa2WADJkMmXrGxAAxQAwQA1bAABmyFQTBWntr771cyiYUnTuOn1PuUON/V+4UDSg4exw/X71rnpbtT1F4/ih2x0UjfHk4wtd8hZ3fnUPe47H0m5o68CT/DxzcFIOIiEis3XwIZwrr0fmuWtL3zWOIdBpxnciQCbIRh0xn7F2V+G+QLdj5v77FM9vxqCwP2Tefon2sxKztCUpz8lBe1/kW9R1mWrGrFDun2IJd9Nsw9+5GrfQAFk22B/cbmnhCZ7h84gNXsQh8HgMboQfm7UrFQ9kwz/vQmisbkb59Jhz4XB0kcPPygUQkhA3fGdN3ZOKZ0srL/6H1o+cP006sgx8yZAJ19EB9F0OWVyFhmh2YOT/hkcI6Go+uozEIQ913DyGYtUPo0SeQD3LNcPcY9OdmGbICjy9Ew5NlYecTjn3nylCvM95uPLt5GQkrA2HPt4Vb+Bnc77JeXVvSY+EmsMXkFSdR2qRUM6toHFZRaQAAEUJJREFUuYNTq3zACNwReakJivetMd1v9HIDad3HtFIF7r0dg7Z7EzrRi0FMiGKJgOP2WjJkixrakJyYYcjyh79i4QQWounxyG5SmX62sgU3Ds6FI98Rs769C5lVst2NvK3e4AsX4Zc6o3q0luDMT6moaOo2XT+rrI/1dnyGZI60HHHGaIRMkI04ZLpGbmzIijqk7NuAdceK0FyTjm9iFiHAczLcfEKwZPNplL7gkq8ST/9KQExUOKY6seBPmo3wtTGIWncI6Q3a5KxE061k7I1cgCCvyXCdHITQlXvwx82XA0dN8kYUnd6F8NmB8HD3gu/sFdhxugzP7l3A1+s24cRNLrEr8eTqfsSs/wkFDf/g7M5wTPf6BO7T9yKPG0XKG3Hj9B6smjcNnu4ecPOegQXR3+BytWY9VvEv0g5swJovZkDMF2LirJWIWhuDmMQMndby5gqc3bcGc6dOgZubF/zmRGLXnxVoHjD1qkRj+TnEr/oMAVwZfGfji22nUfxvKXb7DTVl3Y6MuE/AF4YgoXIYs5I/wA9zHcGXrMVlteYKVCftRMymM6h49QApieswP8gHbh4BmLFkE77PeGxi2cCMGJgVb1Nm1Y3Cr33BZ0PwTbVCp6GOKxNtuK0mE0c3hWNWgA/cJgdg2qL1SLh420Df7nvJ2B4Ti6M3Oozu2Y2bJzcjOk67HDAMDz0qtFSn4XDsUsz084KLmw+CFsTgwOV7aDUomxkaGVxvSgv6v6HiPtZ/RoZMDcAoGY1ggzc2ZPlt7J9qByZ4MRa4OMJtdiT+81UcIkI+ActjMWHRr7ivUOLhqUgE+k+BxJaBjcgd3v6B8JsajTN13NSlEnVXN8LXlgEzaSaWrduMjdHLECSxg41dIOKuNfabsrwWyWt8wPDs4BS4FFFxmxC9dAacWUf4zQvFRIETVqdy670KVByYBoYNweJFrhA4+mDmwsUIDdmBv9vrcH6NNxi+AzzmRmPrvoOIjwtHgFgInnghfrjdDZXiEU6unAY/L1cIeQzsXPzg5x+IoDVn1VrLn6Zig589bFg3BH/xH8TFrcOSqZPA8Bzg95VUbz1UidorsfARMuA7+mP+6jhsXLccwRNFsPVbgs+8hjBk2XXEugphG3Ya9QNMfmCMm8+vgiNfglWX26Dq6Ub+Vm8IJszBkrmTIHDwxbxI7tnhmOEqgg1/EuZ9dwuvdW3HzBiYFe+BZeOSbFveDngxDEQBMfgpv95Eh0D7PRUas/dgxgQWPHtvfBoRi40b12KhvwQCngheURdQo5malxXswGSBCMuSXhu1gU6kRknAE8do/n8IHmQqPEvfhkB7BjytThsiEfrJBPD4zpiVUKIxZTM10mmqrQ/9OdZN1pLykyFTAzBKRiOYAAYxZBuePabuLECT1jiUTbga4wk+E4DdZZrR3SBryIrnl7BiohDCwO2QPu9bW+QagLwhG1sCReB7bIL0NVcnFZ4mrYAT3x5BW7PwTLcOrUJD3h7MsGdgwzMyZB4DxjcWV2r1R5jdeJR2AFuOleOVtrw9veisPo6FYiHEkSl4qWHK5BqyshHnV7qCbxuMLRmN/WvLiiZkbg0GK/DExgzOFHuheH4RKyQsGL9YXH7SXwZFczH2hzqDx2MG3dQl/99PCGVt4bf3llnT0N33v8dM1g5TE+6gW2PI3KYvxisGyTVdOkYUL8twaP5E8ITTsf9WX5nMjoHGkM2K94B22YaKk2vgq46TCJKpyxH33RXcajQcMSua/0KMuxCMdwySH+ptppM3IHNXCOz5Ysz/uUatu8WGbIIHRcMVRLoIwUzZgIt6Oqk6HuDUcg/wHZfitzolzNZoQL1HsD3Ss3RcW2KaI3ktGTJBOXpQDmLIPEk0rrQYJp5OaSwkfBG+0I5eTBqyErUnwiAUTMYGaZ+J9TcWFRqTIuDAn4Q1qe1QKWpxbJ4IAq/tyH1j+CxVTydu7AqAwNiQ+ZOw+krLoPooZC14VlePZ6+6oOh5jeQIRwj89qJUMwIzZcjyupNYYCuE238yjKYze6FoSsZyRxZOUWl4zU2b/7wQrMALGzON69YLWdW3mMkObsjd1YcxnbXDjEP30G0G44q6E/hMaIspu8sg0xoy3wPRaQPr3/3wKD4VCuG+KRedPRbEQGPIZsV7kDK31xbg5O5IzHJ3UHdI+BOCsebELbxUd45UqDu5GLacZhnGo95eqLru4OA0Owj89qljZLEhD+BBidrjiyAUeCJWOvB5isaHqGrgOi0WaDRIvfu5NmaX/v0xaUOGTA1gUMN576APYshMyA+4rxux9iUYWeEOeApEWPL7i74pZ5OG3IVr613AE7hiatiXWLrM8PP5XF+IeH2mpJJJEeMshDj6msnpzk7pRkgGTFnPwZGa/lG3Vg/Z43Tsj5gGiZAbVXMfO0zwCsUMTxEEn+xA/hCG3JkeC2e+EJLgzweUd+nSz+Blz4CZ+S2q5F34e90k8MUxSG03kXS7bmGP/+BT1orGMwgTCuH2Va5ZI2RZ2V74MtyO8MeQaw3ZfhWSW008W/4PDgb37XivUVgQA+2UtTnxHq5dKlpwN+0IVgWIweNPQtjJ/0He01eWQTXr6UZpfAAEwsU48a8KFhsya8zDMDHS1cECjXTfMaE7/Wz0ctUH0poM+QMJr03u4+rPwQzZxFEm8wy5E1dWi2Ej9MX8NTHqjVPc5inDzwbsvfoUqo5URDoK4RqXbfJFErKcrXBnjKas2Xn48bGRIbfmYMsUO/DEsxDzw2VkFZWhKOcv/HYwGsFOQvCHMeT2lCg4cGuZC6KNytlf7ph9qahV9NWN77oJGbqjSnpJWl6NxOl2g05Zq+RV6p8LfONRZOr7BtwrUJk4Ewzjj50l3IhOs4bMdQY69J6p/Y6iBt+F2IGZ9R2q5BbEQGvI5sRb+6xh/lS8yECspxCCgAO42dWJlDViDKpZjwJ3uHpq4mq5IRvzMEyMdGW3QCPdd0zoTj8jQzbBAB17MiHKuDLWt63/ezfkbpTtC4LA1HEY4zJ23UQ8N6Kc9wueGI3GufXluhNhYI2nrE0Ycue1Dep16PnH6/rXf7lnKV/gzFL7YQ1ZVr4ffowI84/X9282My6r+t/dKNsbBAE7Fz+YGKWrXl3GSjE7uCH3KFFzPAz2fAkWnagZcpQsrzuHL7l1+JAjuCvnjKDPkPnsTCTcNVyjVXP++i+slQjhEHERr3osiMHbGnLHHfwetwTz43PRNkCrDlxc6Qie03qkybSbr+bie1OaKV8ieYUz+JL1SGvvhezGTvUszGLtLIz23spGnAoTwWbApi5jQ+7GzX1T1TEy+Tzt/SzRSPcdMuTxmFNphEwNYPR6ne9kyPeQOEM7KutPVrKyffBj7eC3NdfgSIv6uNTlbVi27ijynnPHo7pwY6c/BGwAtuS0GJphSwG2+dsN3NRlwpDbLkWqNwatuNhqoFv77SOYbc8YGrJmHXfm4fv967hd5Yj3twPjvwPZ6iNG/XWR16dg8xcb8H1+385wWcke+DK2mLzubzzX20Cm6mlHyf4Q2A6xqUudzDoq8U2IGDy7IGy48BBvTLDe+TgVm4K5a6Yj/ob2NZoaQ+YJ4bb6Ep4adGA6UHFoDkR8CZYnacppbgze1pDl9/FtiD14DnOQUK4to0a3lmzEeQnBTE1AhbwXsspDCObWt6NSjMrdi1cF8QjkpvHXS/GK2/j38AeEsEK4x2UbGH3n7e8wy44xw5B7ISs/gABWCI/oVL2NglzZlKhNWo85y/YhtVYJ8znt52E8GtJ4rzMZsokkNd6hGLH6v4sh97Tg/Apn8ITTsPFsAYpy8lDZrIJK2YxrcX5g+E4IWH0YZzNLUHojE38ciIC3HQuHkMMo06zBKp5fRZSHrWa6+QqyS8qQe/kY1k2XwFYsgS1/+ClrRf1ZLONGpr6rcVR6Gw9qqpB7dg8Wuk+EWGxnYMiql5cQMYEFG7QJf+aVIDvnH/Vu78b0zfBmWTgERiEx6TqKyoqR/mcClvs4gOcYisRyzblYZRNSN/iA4U+A74pDOJtVgpL8VByLC4WzcBIkQ46Q+xK7vO5vteHa8BzhMS8WB05cQKo0C6kXTiNxYxg8HVjY2AUg5sIjvVG0ZsqanQRnsSN8vkzEn5klKCn4C79snoeJDAvHuT+iUrNWbnYM3taQe3rxuvQwZotZ8ByDsergGVyRZiPtz8NYO10CHt8FS3/Xvg2tFbm7psGWL4Ln53tx6u8ilBRnI+nQWgQ5shC4r0ay+rgcd568Ct/MEqmXPMIPpyC/rBSZZw8gbLIYYidHE8eejEfI3MzIS2RuDQTLd4BPeKKav5JCKX7fH4EpIhaiWd+glOPPAk5HrP1RrjPoRFujzmTIBOnoQfpOhtyLNxU/YZErN5JlYMOGILFKM53a9QSp8UvhxZmLepMVAxuBE3xX/IgCozdUvak+h42zPcBqr+OJ4DJ3Fy6d3wZPRoKoNP1zyCYSMHfu+Vo8Ql005eDuY+uJhQelOB0lMdjUperpwK1jn8OF7dv8xcw4rNGaOzq1F2HeYvVO4b4yC+HgF4kjhc2Go3fZQ1zctgBu3BlsTZmZiZ/iq+RMJIYMsYasz3XbfVzatxKB3NlsXb05DSfCb1k8kipbDZ+pnbK2W4UTWd/jyyl65WQkCFg1UFeVOTF4B0PmlhVelv+GdTNdwOjVgXWZjfW/VRgcQVMpGpB9OBKBznr15YvhuWg3Lj7QOwrFnW+uPIlwL4d+XYQemPN1CpK3+EAw7JS1ZjQrr4c0IQJ+Ytv++/AnwHPpIWT9q7cHwRyN9ONGfx+93GQlWpMhW0kgrLG3Zo1lUryuR0VBFtILH6BZvd7ZP8Unb6lFRWE20jMKUVHXbmQy/ddxx5yeVZciOzMHRfea1CPDN2kxEDNe2JLff953yPp3NaGqOAfS6yWobhzqOyq01t1GfkYmCu69NEwwilY8rixCljQL+ZX1eG0wLa1f3l7ImmpQmncdWYVVqDe10cocjrtaUHOrEBnpUkjzK/CwebBya6asheE4y+2yVrTiUXkBMq8Xo/Jp2xC69sL8GBjWb0itDerWhYZ7pbiecR15Nx/jpRED+vdRvGlAVWkeMq4Xo6K21XDNX/+eXS9wryQb6VnFuPu8/8y1/r3M+buirR53inOQLi1A+ZPBnzfyGr2ttvQ9c+I8kteQIes3TPq7oWF8VHqo8KL0FDZ+HoVjVUZGpGxGylruJQ4rkcRNg39U9X6bJGtkyONej7fRkL5D7chyBsiQKdmMGwOS3T6CEAcWrFc4DlwsRlVtPR5VZuPUljlwEojgv7vIYHPP+E0oZMjjN/aWmwhp9f40I0MmQx43hsztfK3POICF7qL+tT5uPZJbN9yeqnvHMSUYMmRi4P2ZDGlpvpZkyGTI48iQNQ1D1oR/cv5CctI5JKfmovK54UYfSiC9kL1+gYbGVpMvUSF9zE+wpBVpZQkDZMhkyOPPkCnmFHNigBiwQgbIkK0wKJb0qOha6oETA8QAMfBxMECGTIZMPWVigBggBogBK2BgVAw5t7AUZRX/4GblXfqQBsQAMUAMEAPEgAkGOJ/k/NKSGQ+Lf7lEh6wLrW1v6EMaEAPEADFADBADQzDQ0WnZy2ksNmRL3J6u/TjWQiiOFEdigBggBkaeATJkK1hrINBHHnTSmDQmBogBa2eADJkM2aI1DmsHmspHSZcYIAbGKgNkyGTIZMjEADFADBADVsAAGbIVBGGs9uao3DQSIQaIAWLg/TFAhkyGTD1jYoAYIAaIAStggAzZCoJAPcz318MkLUlLYoAYGKsMkCGTIVPPmBggBogBYsAKGCBDtoIgjNXeHJWbRiLEADFADLw/BsiQyZCpZ0wMEAPEADFgBQyQIVtBEKiH+f56mKQlaUkMEANjlYH/B8d0MVCL/D0DAAAAAElFTkSuQmCC;" vertex="1" parent="aD3c_HmT-s8xsHDP89Bb-18">
          <mxGeometry x="160" width="332.16" height="210" as="geometry" />
        </mxCell>
        <mxCell id="aD3c_HmT-s8xsHDP89Bb-13" value="Involves" style="text;html=1;strokeColor=none;fillColor=none;align=center;verticalAlign=middle;whiteSpace=wrap;rounded=0;" vertex="1" parent="aD3c_HmT-s8xsHDP89Bb-18">
          <mxGeometry x="340" y="230.7" width="40" height="20" as="geometry" />
        </mxCell>
        <mxCell id="aD3c_HmT-s8xsHDP89Bb-15" value="" style="shape=image;verticalLabelPosition=bottom;labelBackgroundColor=#ffffff;verticalAlign=top;aspect=fixed;imageAspect=0;image=data:image/png,iVBORw0KGgoAAAANSUhEUgAAAVUAAAE3CAYAAAAaMNJ/AAAgAElEQVR4AeydiVMTWdfGvz+FhCQsCgqyKeoIbvi6oaKyCIijuKAyiuvM66COIi6DuKIoCrK6AIoriIo7ioo6bCKOqPCqSImMQCWVpJ6vbmcPCZvBScyxiqI76b597u/cfvrcc27j/4H+EQEiQASIgMkI/J/JWqKGiAARIAJEACSqNAiIABEgAiYkQKJqQpjUFBEgAkSARJXGABEgAkTAhARIVE0Ik5oiAkSACJCo0hggAkSACJiQAImqCWFSU0SACBABElUaA0SACBABExIgUTUhTGqKCBABIkCiSmOACBABImBCAiSqJoRJTREBIkAESFRpDBABIkAETEiARNWEMKkpIkAEiACJKo0BIkAEiIAJCVi1qIo/PEVh1iHs2PgrVq1cg3Ubt2P30bO4X/8P5CaE/L2b6mgoQ97hndi4bg1Wro1F/OF8PGgQf28zlNeTovF2GnbEH0bhq45/yQa6LBH4fgSsUlTF725g37IpcBUKYMMz8MN3xog5W5Fb9c/384QpriT7gJJdofCyM9AnB18sSHqI5u/9tGjJR6Szwh7RrKOm6CW1QQTMmoCViaoMH67HY5qLSCGmAhf4zInBpl0HkZKRjfSU/dgSEw5fZzvue57TZPz3SiNk392FUlSnRmPmjEAsT6uFtEfXF+PZnhkYwB4SgiHwW7gF+1OzkXn8ADZG+sHJVgAbvgtmHazAd41Z265jzTDGU4hBkWd61BM6iAhYMgGrEtUv97dj0gAWNTlgaOhuXKn7anCaL/1wHwfnj4KQ5wiftVfw8XtHd5CgbMsY2PLs4Bv3BJIejDB50xkscBbCxnYYFmS/0hPODlSnzoMbE1anecho/L4dEr97gPPnbuHl1x50hA4hAhZOwHpEtfUWfvOxhw3PHiOiz+JNd+Gf5G9czi7G2+6O65cB0HtRFRevhRtfAFvfODwypMKyN7hwIAkFzz71MPLtl45Ro0TghydgJaIqw8ukmbDjCSAY/Qfuf3PEJEXT0/NI+mMVIkNDMDtoLiJXbUPyxQo0G80VSPC+LB/7N67EgtAQBM1djF9iDyCv7H9aUaUMr0pykJGejvhQL/B5IniE70RaegbS07NQ8PiT0QEpLloFVyaqY+LxxJCoGj0TgPg9Hp87jE0xUYgICUFQ+GLEbE7C2fImnSj5a1URMtMzkFlYjTaj7YlRW5yNjPRsXOFy0jK8uX2K2y+sUoGX43P5RWSkZ+HS8y+Qow2vSk4gbtVihAXPQdji9diRcQ/vjOYp5Gh9cRVHtqzB4ogwhMxbijU7M1Hyug2Qf8HzS1lIz7yEp591I3LJ+0fI3b8Z0QvmIjB4HiJXbMS+vEdoNHodo52kL4iAUQL9Jqry1mpc2L8eYZPHwMt9KIaPD8KSuCzcb+ztHW/U9p5/Ia3EnxNYlDoYEdkfDE75e9yYuBa566bAmU2lOxW57ODiH4uC13p3qbwJ17dOM3wO3xm+K07jJXdKB/IiHQ20y66lSAUYs1P29hhmswKV7VDMS+1K9HRbaKvMwrLRg8Dr1BfW1hBM3XwVDcoHhbRiNyaw4p5zJE426QqWutXPBVjiIoSNcCJ2PmdhfgcuLHXhZggzk98qD5OiYtdECHj2mJxQiIxlY2Df6foiuMzah0cqHVZdQP4RJdsD4WaoyOgwGkszLmPXZHvYCCfhz0rVNEOOputxmDJImUvXuZYQjqNjcErhANVV6DcR6DOBfhFVyatcLPMZYFAc+K6BSCht+TZh62V35Y2pCBQJYGMfgUxjYtCTNmXvkBs1HLY8AXhO4zB/azquPHiOyqeluJS6BeE+TlyfBSNX4cJ7jei0XFoJd1sBeM6TEZNyHZUNzWh+/wJ3sjdhxhBWxBmIgMN1kEGKyrwExMfHI2aaG3g8IVymr0Fc/A7Ex+/EkeuNxq2Ut+D6b2MgZILBd8aoiK3IuF2PrxozOp8rrULiFCbiDvAM2oS04r/w9lMLPtWX4+L+ZRg9QMgVtwJTmG0AZPU4Mov5dSACj701UMCT431mBFcss5t1FK+5k7oSVSGc3T0gFHpjVuwJFD2qRFX5HeQmLIaPoyL37bfzqVa0LMbzfTMxkC+AjcgbM9cfQcHdp6h8XoaizO2Y7+sMntANLiy3rC2qLZcR7SGCDX8wJqw6hmuVjfjU/B41d3IQG+DB+dN+ZjLqjM4yOqOjT4iAMQKmF1VJFfb5K8SlcySniO74w1bjyndc2yN5sBkjBQLYjtqCB30OlOX4mB+FIXwBeC5zcPCpfgjFZp5lSJjhAh5PBM+VhWjhqItRsn44+Dw7+Gx5pCUQCpd8uX8Cu7NK9aa6vc+pcq1J6nFx80wMUUdxIgwYEYjoXSeNrlOVNFzD3oSzeK0K6tQjRY73+Uu5h4Ht6G14zHGT4+PJSDjxBBBO3Y8X+ufI/sahAEdOiOefalI+OLsSVfYAGII5x2q1UiDMAClepYRw4qydI5a9SUOwE1vdMBxReW875Ybln+9i0wTlw1xLVMU3f4OXLcs3b0WZvv+/lCI1MRv3/7V1vGrgtPGDEDC5qLYXr4OHwamx9nTZEQHJfxuIdPqHqrjkV3jaCiDw+xPcjLQvl5HV49BMFtU5Y/bReqO2S6v3YyqbhjuG4QRXZZfg0VZWyRdiUERm9wUyzrY+iip3rgyfn+Uj4ZfZGD5Qa7rr6IuIhOt4py8qXbEQX8MqdyFsROFIV0X4rVfwC/tM4If4ct3GVOkBvsdqFLaqGu5aVG1HxysFW3W84re84Thms9mFXSROc88vKWr2TIWAJ4TTvJPQmgjonPj12noMY+NPS1Qlj+LgIxCAN/hnZHRbodRpjnaIQK8JmFhUJXiybTw3nTIWpao+d1iQC/V912uze3eC5PE2+AoE4HtvwG29dGePW2o5jXkO7CYPw4mu1ljJ3uDwTEX+dkmBopwjebYXU7jprD1cJ0Zh8+F83Kr+pBedaVvyLaKqaUfe9gb3Tyfil2nDIOLyiPYYuvh0p6j068tiJG9chuCpEzBqpA9GjZ2K2QvWYtuR/YgaLoKNcDYOv1HNjcW4+7sPV0QbvuGuVh/EuL/Rl1sGNmrTA63PuxJVIdxWF2sdq7EdHWcRyXirBf0zsueyKHQAwrKajaePOooRw0RfS1QheY7EqcrUzJApWPRHMnJv1aCpr2NBy0zaJAL6BEwsqmLc2TASfJ1CgHaEqtkWhqR/v/Wfn09hHhM1YQAOvlKJgz6KrvdltfsxWSgA32s9Srq8GcW4smIIeDx7sMKM4mpSNBT/iVBv7TyzHQZ4T0fkH5ko/aA/jzaNqGp69A8qs6IxikXQfHcszleJkhgvspdhFBMvlie2GwIvn7HwGeGFgeoUAuOmLaqA9HkC/IQC8DxW4Yrqyfi1GKu8mABPxe4q7f50JaoiDI+9b0RUz2Eh85koTBEly2qxZ4o9bGy9sa4rB0irkPAf/UIVIG24hp2hI7kVIKoHu+3AEZi6cCsyHnzolErQsKMtItA7AiYWVRneHglUFEu6FFYRPNeVGL6Zemd/z46Wv0NKEBM0B0xKrO7TDSR7fRjTmZC4xqCwS1Ftx7klg7lrBaXqrTSQNKHiahYSY5chcJwnRKzgwhPA1j0ch5+1a/Wlj6IqkxlNSwBtuPXbKPBZGiL6Cthb+NLqA/C3VwjtzPhC1LVqqlrSLy9RcmwVxg/sLKqQ/Y3DrGDFd0VkHhNoOZrzozCIL4BDcCre6Ty3TCWqf+PgdHvY8D0Qc7ULB0jKET/WTjdSVZOVoKmiGBl7NiIqyA9udkJFMVXghTnJz6HtAfUptEEEeknAxKIKyN6cQAgrJnQlqgJfbLj7PYewHE15Udw6Tp7rfGTW69z1xpGJOyBWHdpxFTFuimnlrgrtSEzvdMkj/OFrBxvb4fi1y1yDFM0VZ7FpOotqBbCfnQKNWb0UVVkjru9dgWneExB7z9gfLZGjKT2ce+CJQrPQDBnqDsyAgCeAaFYK1LN77e50FGEl12fdSBWQ42P2fK5g5RiajgZpI9JDnbmi00JOZHUa6WJJVS8iVbTj4nJXbgYweV+t0YeHvOkk5rK35rSn/9rmaG1LmyuQvymAexjYOATjqMYBWkfRJhHoHQGTiyogRtXRULgYLVY5wve/1/BJExT1zuK+Hi2tRXLgYE7ABkz6A9c+qNTSSINtf+Ho3J/gG52HOi4wasXlFV5cZX/oiitG7JejMXcJ92YT3/tXlHDPDbZQvQiHt5/AQwPPEWn5TozliigrcVkdgKmKW3bw2fq404qBThbLm5G7kImzEE7Bx/DSoOa349ZvP3GRqsuKQnRAgvLtflwBzXXlVQOzBjmaCpZzfdGf/nPXb72MaJa7tAvA/msHMc1OAP7Q9bjW6a0AE0WqkKPpzCI4cW+Nbcb9TtdhVklQvS9AMcXXElV5ay0Kk3ci1aADniJ+nB33QIjWOKATYvqACPSUQD+IKrt0Gypz1mOyGyvYaEWtrAK9+xa607OeGt/b42Rvz2LZCAfOJtGwUGzOLsVbfaGTf8Xr60mIGqsQYBv7iYgvU0R/kqokTGfTYb4HZifchW4qVIKGa/HwZ2sk+S4IPv5KEU1JnmDbWMbBEaPXFaJBR/BkaDyzmFumZTtmu9abUKpKtwADI3J6lHsWlydiEpcbHQDfFaegfnmJg9SG2rw1GM2m+rZD8cvlL9ynLXmLuWiT7x2Di3rFt9anRxHO1nYy/+nlVBXcO3BnA0sniODm6cktGfM1+AAwlagCaC/FptGMpT1GLj2FFzq+E+PtpQ3w4wqC2pEqK576KSLyMetxRdcBkDXmIpJF44Lx2NbrV9F6OwLpeGsg0E+iqkTX3ojya+eQk5mD05dK8fKzjqL8K3wlby5hw1Q3dTFNMMgXk2bPw8Llv2DRvBBM9B6k+c49CPHX3mtNNaV4fWY5RrClPjwhHIfPwsK1G7Epdh0ipw+HPZcjdYTPqgtaeUU5Pt/cjHGc4NnBeex8rNu+H0lJidi0dAY8uOKRB8IzdJdpiR9u5ZYBMYEev3ADNv0eg+iDZV0wk6DuzC+KYhRbRzrED4ELV+CX5Yswe6yHMs/tiJ9WXlC/IYW2B4jzU7zBJRoWiJXbDiDpwG7ERk2Hp50QIt9gTOeKT/rTf4UZ0me7MF5V0LKbgf21hqJ/E4oqgNaHiYoHF0tbeEzFz6tisSl2PRYGjIQDXwDB8CAEjNDNqco/38LG8QO5B4TtID9ErNuJvYcOIWHTcvh7sv4L4To3U/myQheI6Ssi0AMC/SuqPTDgXzlE8j/cO/47QkcP4SIYnWia/X0A1wmYtzkbj5oMPQSk+HDnEJZOdO90rtDdHyuOPkBTJ22R4eOdg4gc46IWbNU1he7TsCrjeeflZfIW3N8dAneVaLEXCtbd7AaXDB9LU7ByiqdyCZVmliB0m4KlB27jvV6XpG8LERc8UvlAUB7PHwjvkO0ofPUAW1l+2GCkyt6wUi725wkwICwThv/4lWlFleVzv5SnY80Mb90+8gdiWNBWXKz7C7u511SnIEFrFYLs413sXzhe8ScQtWdPIk9MWZ2JZ6pVDN0Qpq+JQHcErFNU1VQk+PzqCUou5uNUdg5O5l1GSXk9vugJj/pwnQ0xmqru4XLeSWSdzMeVey+6X/cob8O7pzdxIfckck6fR9GDl+g6eJejtf4BLp85iezcIjxpMFaE0jGMeyOp+UUpCs+dwcm8i7hWVo8vnYRe+xwZvtQ9QFFBLk7lF+JuTXOfVkhot9j/22J8rL6PonO5OF1wFfdftijTLQ+w8SdjDwI52hqeoeRiHnJyzqDg6gOzmD31Pyu6wvckYOWi+j1R07W+nYAcra9KkJ5122ieWVqzT7Ge2HM9rqsLf99+ZWqBCPSUAIlqT0nRcf86AXljBkLZcinb4Vh4Uv8PcbM/iFWL1AgPxQqNdTe6+POE/3pXyIAfmACJ6g/s3B+va214uHMqHFlOVOCG/yzdieP5RbhadAmnkrdioZ8rl7O29YrCGd03EH48FNQjsyVAomq2riHDDBJg/7nhn+EYylZNaBecuG17DJ78K07rrrUy2Ax9SAT6iwCJan+RpXb7lUD721LkJe9C7LrVWBGzHhvik5BzoxZfvvdLJf3aS2rcEgmQqFqi18hmIkAEzJYAiarZuoYMIwJEwBIJkKhaotfIZiJABMyWAImq2bqGDCMCRMASCZCoWqLXyGYiQATMlgCJqtm6hgwjAkTAEgmQqFqi18hmIkAEzJYAiarZuoYMIwJEwBIJkKhaotfIZiJABMyWAImq2bqGDCMCRMASCZCoWqLXyGYiQATMlgCJqtm6hgwjAkTAEgmQqFqi18hmIkAEzJYAiarZuoYMIwJEwBIJkKhaotfIZiJABMyWAImq2bqGDCMCRMASCZCoWqLXyGYiQATMlgCJqtm6hgwjAkTAEgmQqFqi18hmIkAEzJYAiarZuoYMIwJEwBIJkKhaotfIZiJABMyWAImq2bqGDCMCRMASCZCoWqLXyGYiQATMlgCJqtm6hgwjAkTAEgmQqFqi18hmIkAEzJYAiarZuoYMIwJEwBIJkKhaotfIZiJABMyWAImq2bqGDCMCRMASCZCoWqLXyGYiQATMlgCJqtm6hgwjAkTAEgmQqFqi18hmIkAEzJYAiarZuoYMIwJEwBIJkKhaotfIZiJABMyWAImq2bqGDCMCRMASCZCoWqLXyGYiQATMlgCJqtm6hgwjAkTAEgmQqFqi18hmIkAEzJYAiarZuoYMIwJEwBIJkKhaotfIZiJABMyWAImq2bqGDCMCRMASCZCoWqLXyGYiQATMlgCJqtm6hgwjAkTAEglYjaiK35Wj5MZN3K5qskQ/WZHNHXj75BZulNxD9Se5FfW7H7v6tR5lN0tQUlqLFhVS6f9wO3UX4g8Voa6jH69thU1biajK8e5oEIQ8AQZGXbRCN1tQl2X1OBRgDxu+B1YWiS3IcPM1VVqRAD+hAPwRG3FPibQlbzGceALY8BwxM7nefI23QMtIVC3QaT+0ySYUVWl1GpbOmomZ0el4If2hqXXZOUOi2nZtPYYKBLDhD8GC0x+1zpeiOjUaM2cEYnlaLawYmxaT3m2SqPaOFx3d3wRMKKqSsq3wEQhgOzoeTyT9bbj5tm9IVAEx3j24iHM3X+KrjukSlG0ZA1ueHXzjnsCKselQ6c0OiWpvaNGx/U+ARNXkjA2LqrHLkKgaI9PTz61bVOWfUX4hC+mZl/H8ixxo+xslqfGIWTgXQcERWLR2FzLuNqCrzJ644QFO7Y3F8vnhCAycg/DF67AtpQg1rD2tf/LPT3E+MwMZl/7CF7kUTeV5SFi7BGHBYViwqQCvZZqDv9Zdw7FtaxEZFoLZQRFYuDoeRwtfoFW3Sc0JEOP94wIkbV6NRfNCERgcgciYLTh4thxNRkINyftHyN2/GdEL5iIweB4iV2zEvrxHaOyis723S8tEvc221zeRGr8eS+eHI3juEsTEpeF63T9AV6Iqfo/H5w5jU0wUIkJCEBS+GDGbk3C2vEknopK9uomsjAykxc+Fm60AfM8IbE/LQHp6BjIKnqBJm2MP29Qz38huG16XnED8umj8HBqK8EVrEJd6A3WtAKR/40ZWBjJO38M7pa9lDaU4k6EaE4aabENVUTbSM07jzlutAcIO7YXdBkVV9ga3T2YiPasIVVyoKsOrkhxkpKcjPtQLfJ4IHuE7kZbOuGWh4PEnoP0FirIykZ55EeWftSHq2v61qgiZ6RnIvFyp+4WV7PWbqMpbq3Fh/3qETR4DL/ehGD4+CEvisnC/0chd3q/AjRSqpBXYNcEeNkJ/JFzJwlLfgbDhkvcsga/8sXXHrL2P9aZIzNh/8DR1GXwGaB2rOocngNArHHtKm6EaeqqBLZiyGxeOzIOnUHOeuoAgb8HDpPnwttN8p7aDZw/PkD24p18Rb6tExvJxGMA3dI4Ig/y3oLBB+4aUo+l6HKYMEmn6qLZbCMfRMTj1Uk9Z+2KXMX/Km3EvMQyeIgP22o3CgpQbOBTs0KlQ1VaZhWWjB4GntlXrfNshmLr5KlTd7MhbBJGh43i6qYDetGmsO6rP5Z/uY/ccb64YqvGZwkbRiIVIeZiF+XYC8IasQqESr/jGenjaCiCYsh+12i5SN/oOR2cxFq5Yfknjk97arRp76nHG2u+4hKXOAtgIA5HMCXYH8iIdDYwJ1gdFKgCyOhycwY5xhP+BWhgyGfL/ISNsEGx49pjwZ4WqJ1b1u19EVfIqF8t8Bhh0EN81EAmlLWqx+T60uxFVvivc3Bwg8ArC76nFeFRZjfLb+UhYOAYO7OYUTcSOcu2HgRR16fMwxFYAG1tX+EUl4tT1x6isfo57F45g3XRPCHgC8FznIUMZgqoHtsdPGGYnxADf+diYlI1TOWnYs/csXkgleJESisFMHIXeCNx4AoVlVaipeoJrWfEIG84GsxCDgo+hVl09kKJyjz8nIEKvEMSmXcPzt81o+VSPJxcPYskYZ/B4QjgFHUOd6g5ouYxoDxFs+IMxYdUxXKtsxKfm96i5k4PYAA/Y8gSwn5msOR59scuYV8WoOhwMJ9ZHWzdMjN6D0yVPUPG8DEUZ8Zjn6wyewAue7sw+req/tAqJU1j/HeAZtAlpxX/h7acWfKovx8X9yzB6gBA2fBcEptRxN7q0Mh+7tu9AXEwAx5PnGoCYuB2Ij9+B7UduKMS3l20a6xH3ubgah2a7cILPd5mC5Ym5KHlSgecPi5ERtwA+A4Sw9RzORc3fLKp9sFs99rSq/51FVYrKvATEx8cjZpobN25cpq9BXDzjthNHrjcCkKMpbzEG8QWw9d2KhxqdV+OR1R6EPwsKBoQh7Z0qpFB/bRUbphdVSRX2+TsZFFTVE5w/bDWuNH9P4N2IKhPAweFIqdUbJdK/kRLEnrp28Nn6WD0g5I0n8fNgdiO7IyS5Eu3qb5Qb4lqkhLqBZ+uCmYdquAqqamAzBg6Td+C+esGg4hx5Qw4iBglhYzsMC3LqO1VdZQ35WOLFxMYdi89qImBIGlC8LxH5r9VKq7ZG/v4sFjMBFYzD1seKh4L45m/wslXcFGXazwl21pdSpCZm436DhkOf7VJbodmQvctAmDPj5oGw4zXQXx4pbynFtsnOirGjLaoAJA3XsDfhLDp3U473+Uvhzvo0ehuU3eQu2l2hqi9tanqj2pLhXfpc7kHBc4vAsepOvULL/e2YpJzRfLOo9oGFaux1Hamq+tNNTrX9Lv47go1DL/xymeU1tP+JUbZ1LGx5QrhFX8IX7a+saNvkotpevA4eLIIzMv1SfO6IgOS/DU8f+gV+d6JqrNIpR8OxYG5KJ5qfq7RMhroDAdxnDrNT8EoVAerZLX3zCLdrWtR9VA1sG8FobCzVv/FkqDuoaNM+8BjqDbYpw8t907nrOv58EvpZAL3LK3fFKF7tBR7PAXPSP3GzA8mjOK4izhv8MzLedBZi3XZMaZcMtfumcRG8Y5CxPgLix/EYw1IjeqKqa5fenvgaVrkLYSMKR7pWwrQ7UdVrRXfXSJu6BwGQ1WLvVHvY8JwRmFKv9rfucWI8jvNTzF5MMP3XbVtvz4DdqrFnElGFFNV7FbOjgeGZaNSOjb4WYzV78AvGYPMDzYNZz8IfftfEoirBk23juSlk16IqgMOCXOg/5/qPdjeiyvfEqquGB0FH/mLYsxxpaIbSvM/ImcdSG44ITvvQ4zSGamDz3Nag85r2Fpz8meVz7TAqOgVnzxXgnIGfvIS5cOULwPf+Hbe1zf36EkXJmxEVMg3jfHwwwscPkwIXYtW2FOyN+gl8nj0Ckt8obnjJcyROVcwkBEOmYNEfyci9VYMm7fbUjvhGu9TtsI3PyIlQcAs50QU36XPsGG948f/Xl8VI3rgMwVMnYNRIH4waOxWzF6zFtiP7ETVcBBvhbBx+o3ki9URUe9umTpe4bp3EXHsBbOzCcOKDtsLoHil9tgvjhKbJqbKWe2O3auyZRlQB+YeTmMdmHCJ/JFarHsxyNJ1ZBGe+AKLph/BS4wZdEFawZ2JRFePOhpHgdxmlKqJYYUg6PhofgyZG342o2o7C76pXTfSu3HF2CZdXFc5RiiqLTKbYw8bWG2tLDCqRXguKXYMDW3Wkqs0ecOMeVk7LUKAMdsUvchDloyyw8R0xaOho+PqOgpsTi55UMwYtUWWF6IZr2Bk6Enbq7wWwHTgCUxduRcaDD5rUwzfYpeqa+reqrW65teLkPEe9SFWMF9nLMMpB0R+e3RB4+YyFzwgvDNQq+PVOVPvWpro/yg1Z7X5MZm8rea1Hl8Oh9RQiTFKo6r3dBsdep0KVqmfdTP+5w9pwfd1w8Hl2GBlbqlgdI6vH0cCBXFFtwemmHgcbqqv+SL9NLKoyvD0SaLACqrnB2Y0hgue6ki6XKpkWsilFtR4Hp7NIyh0rVGXcHhhrcGCrzpP9rWiTNwjTf0/jlv6w5T/GfjJO3QNXsJXWYJ8/i/6EcJm1A1fq/tEMZukXvCw5jpV+ikqsOlJVXRMSNFUUI2PPRkQF+cHNTqgQYYEX5iQ/V+SJ+2qX+hpaG6q2uuMmb8KJEN3qv7T6APxZNMh3x8z4QtRprS2TfnmJkmOrMH4gK/D1PFLta5taPeI2Za8OYRqLQF1j1FV9/WPYvrwpHcGi3keqR2axsaap/vfFboNj75tEFZBW7MYE1m+3aJxvYfsJ3D7f+1fcaDNEwHo+M7GoArI3JxDipIqQjPwW+GLD3U7lnX6kbkJRRQeurHAHj2cPv11/aaK6bqw3OLDV57TjUvQQrs3ph4zl5dQHqzdkdUnwZ5GaXRCOaE171QegA4UrPbh2O4uq5ii2JW2uQP6mAK6ya+MQjKNcYrdvdum2rNrTtOW3q8I4t/ZirPLUrv6zHPYMLh8pmpUCw90swko3YS9Ete9tqnqj/t1+GctZ0VI4EbsqVFNh9bfqjfara7lagyw6C+wAACAASURBVE6h6tZ/uaKh4D+JqDR0quQR/vC10xLVvtltcOx9o6hC3oj00MFcLjkktQ63Nozi0kwTenFPqOH8YBsmF1X2+lvV0VC4GC1WOcL3v9d6WGgxFW1TiirQcn65Irc5NAaXjFSMWm/vQ0xsCopqW7no0eDAVndPjua8JVw+SuAXjzIjT/r28gzE77+MGmWkJinfibEC3ehH3SQXHZ3HUlbA0cqpyltrUZi8E6kPDTzUpE8RP47dxEMQfZmlNvpml7YNmm05PuUu5vrI916DQoOrP2SoTwtXLLlSF6okKN/ux1WUXVdeNTC7kaOpYDncuKVoepGqsihn6xuHRzorHfrepqY/yi15M84sdAWPJ8KwVUUw3K16pIUqllxpi6r0+Z8Yz6K9QctQYKDA0H5/E1dU1ESqfbPb4NjrQlQfbVW8pspWvOhg0+t8a+Fq7kEh8A3AFBchbAaEIlX1ZoPesda02w+iyvC1oTJnPSa7aef1BLBx9EXE7lv48N2T2KYVVYifI2Eyy2OKMCR4H+436XaorToHS0awvg/ApMQKbmAaHNjaI63jEbaNd+AE0HtROp7pvZHVVn0SS0ex7x0xMeEvxWBvyUckW8BtOwK/XPyomfqzdlufIXnuUGV+W5VTZYVERRVaNGY9rjTohkeyxlxEsohPMB7bVC/L98Uu7X5pb7c/xJaxrA8iuIcmoUxHgSR4d/UPTGIFEJbrVYsqoPqLSnzvGFzUS8S3Pj2KcLZsjJ2jN/2X1uzFJBbJO/2MLL3z+tqmdndU2+0P4jCGvcxgOxShBx/pCqukAUWbpioeFGzpnlb1Hywq92D9HQT/hCc6hVvJm4tY7atcjK81/e+L3QbHnlFRlaJmz1RuZjAwIqfruoekHPHjVPe4YhlViwqKFf/uJ1FVEm1vRPm1c8jJzMHpS6V4+Vn3Jv5+3E0squwtwRcZ+NlLMaD4zmMQtOw3bNqyCasXTIMny/+xPGfQYTxXFpQMDmw9AO3PDiNwiEIghEP+g9BfNmDTpt+x8uepcOfeshLBLewYKtX1sTaUxv1H8faQ3XDMXLkd+w4l4c/YZZjq5Qie3RjMnuGtU/2Xf76FjeMVhS3bQX6IWLcTew8dQsKm5fD3VLxg4Do3U+e12d7bpdcxrd22J/sQwNbjsrebnMchJHoDNsaux+KZP8GBLSr3ikDEZL3qf9sDxPkpBEY0LBArtx1A0oHdiI2aDk87IUS+wZjOlvLoiSrEZYrpM3sBwm8xft0cixW/JOEhC7/62qZWXzSbbXiydzYXhbMVHE6jw7D8t82IXbsUAcOdwOPZwTNsniIHqS2qkODZbn9udYkNzwnes6Lx6x9b8OvyEPw0UAieSyCCJ7GinSan2he7DY49o6IKiB8q/hANe6Fi/MIN2PR7DKIPlmm6q96S4c2xEMULMoIx2GTFy6jUSAD0r6hqX+lf3Ta9qLLuiN8WI2HBeDixP6GmVUm3sfPGrN/zUK01jTc4sA0waa89jy2hPpzAaLfJc/TBnLhLqFMLqvJk6VtciZsDbwdlhMfZIYS9dyi2Ff6NUm4xtipSVZwj+3gX+xeOh5N+ikbkiSmrM/HM0FS0t3YZ6Jvqo9aKU9gQNAqO2q/W8gfAc1Ys8ms/48wC/eo/IH1biLjgkbDXOWcgvEO2o/DVA2xluUd9UYUcLaV7EOihiqZYlf5XdZW+b22qeqH/+x9UnIxF4Aj2FptmPPAcRiBw03m8fHUMs/UKVVwLkjc4HxsAN+1VDDx7DJ6wAimPPyB/kZOuqLL8dy9ZGBx7XYgq5C24vzsE7mqbWGH5pn6Huf2OWxvgbcuWUSVZ9TIqbThWIqraXTb1thztDc9RciEX2dmncfbqQ9R9c0QuQ2v9ExQXnEZ29hkUXHuC+lbdFIN+L2Rf6lB69TxOnzqLK3dfoLnbSYEcbQ3PUHIxDzk5Z1Bw9UEPZhK9t0vfTs2+FM0vy3D9Qh5O5xfibnVzl/k7xXkyfKl7gKKCXJxi59Q0Gy94aS4EeWs9Si8z/+Sh8Emj3ptcfWtTq3ndTWkzXj68gfO5uThbeB81SkfI6pMxQ2+dquZEOdobn+HGhVycPHMB18rfdX5LT3OwcsvEdndqX47W+ge4fOYksnOL8KRB/4UVLmmPMwuHgMd3xYJTeumnTu1Zzwckqtbja+rpv0iga1H9Fw37hktLa/Zjip0A/GHrcV1rVvYNTf4Qp5Ko/hBupE6YO4EfT1TbUPIre9Gnd0sLzd1PprCPRNUUFKkNItANgR9NVOXvcxDBVmrQMqpOnidR7YSEPiACpifwY4mqFBV/ToaAJ8SQ5ZdAy6h0xwuJqi4P2iMC/UOg4y2esP8m+m7Nd37xpT+6o/pvxG/j+ftuK6L9YYBZt0miatbuIeOIABGwNAIkqpbmMbKXCBABsyZAomrW7iHjiAARsDQCJKqW5jGylwgQAbMmQKJq1u4h44gAEbA0AiSqluYxspcIEAGzJkCiatbuIeOIABGwNAIkqpbmMbKXCBABsyZAomrW7iHjiAARsDQCJKqW5jGylwgQAbMmQKJq1u4h44gAEbA0AiSqluYxspcIEAGzJkCiatbuIeOIABGwNAIkqpbmMbKXCBABsyZAomrW7iHjiAARsDQCJKqW5jGylwgQAbMmQKJq1u4h44gAEbA0AiSqluYxspcIEAGzJkCiatbuIeOIABGwNAIkqpbmMbKXCBABsyZAomrW7iHjiAARsDQCJKqW5jGylwgQAbMmQKJq1u4h44gAEbA0AiSqluYxspcIEAGzJkCiatbuIeOIABGwNAIkqpbmMbKXCBABsyZAomrW7iHjiAARsDQCJKqW5jGylwgQAbMmQKJq1u4h44gAEbA0AiSqluYxspcIEAGzJkCiatbuIeOIABGwNAIkqpbmMbKXCBABsyZAomrW7iHjiAARsDQCJKqW5jGylwgQAbMmQKJq1u4h44gAEbA0AiSqluYxspcIEAGzJkCiatbuIeOIABGwNAIkqpbmMbKXCBABsyZAomrW7iHjiAARsDQCJKqW5jGylwgQAbMmQKJq1u4h44gAEbA0AiSqluYxspcIEAGzJmA1oip+V46SGyW40eXPTTyo+2LWDuuZcR14++QWbpTcQ/UnufIUKRpvp2FH/GEUvuroWTN0FBEgAr0mYCWiKse7o0EQ8gSw6fLHDj5/lPUaotmdIKvHoQB72PA9sLJIrDCvJR+Rzor+i2YdNTuTySAi8KMQsDpRFbhPxOygEAQa/AnDyvQX38230uo0LJ01EzOj0/FCasLLGhLVtutYM8wONjwhBkWeMeHFqCkiQAS0CVidqA6MughzmfxKyrbCRyCA7eh4PJFou+Ubtw2JKgDxuwc4f+4WXn79xvbpdCJABIwSIFE1iqb/v/jeotr/PaIrEAEiQKLa5RgQ4/3jAiRtXo1F80IRGByByJgtOHi2HE1GIkvJ+0fI3b8Z0QvmIjB4HiJXbMS+vEdoVKY22eVkr24iKyMDafFz4WYrAN8zAtvTMpCenoGMgidoUtWWurQNaHt9E6nx67F0fjiC5y5BTFwartf9AxiMVGV4c/sUMtKzUVilH6pK8L4sH/s3rsSC0BAEzV2MX2IPIK/sf9AyW9cacSNKT+3DhuhIzAkKRtDcKKzedgyFNV9g1HzpJzwtOIzNKxcjNCgYgWGLEbP1KC5WNEOm3frXKhRmZSA9qwhVbdpf6G6La68hMyMDmVeqdL/4Wofi49uxauFcBAaGIGzRWsQdLUJNq75lcnwuv4iM9Cxcev4FcuknlOcmYs2iuQiaswibztVD1v4CRVmZSM+8iPLP+udrLvu1qgiZ6RnIvFyp+ZC2rJJAv4mqvLUaF/avR9jkMfByH4rh44OwJC4L9xuNqFG/4tcUqno8/W+rRMbycRjAN1TcEmGQ/xYUNmhLgRxN1+MwZZDIQDFMCMfRMTj1UiFRHXmLIDJSMOtRKkDejHuJYfAUGbDNbhQWpNzAoWAH3UIVOnBhqQtsePaYmfxWQ1vehOtbp8HZ1kBbfGf4rjgNpdnqc1qfnsASX2cD/RTARuSNOXtL0aynP+LafKyd5Aq+oX4L3DH19wt4rVJwaQX+nGAPG95g/HyyyYhIf8a5KDfwePbw2/WX0jY5Wh4eQoS3o0HbBF6h2H2vWas9KSp2TYSAZ4/Jf17CkbneEKjtE2F47H2IZXU4OIO15wj/A7W64q8iIv8fMsIGcWwn/Fmh+pR+WymBfhFVyatcLPMZYHBg810DkVDaojWwvwf53oqqFJV7/DnhE3qFIDbtGp6/bUbLp3o8uXgQS8Y4g8cTwinoGOpUutpyGdEeItjwB2PCqmO4VtmIT83vUXMnB7EBHrDlCWA/M5k7XlqZj13bdyAuJgCD+QLwXAMQE7cD8fE7sP3IDehodSc8YlQdDoYTE3tbN0yM3oPTJU9Q8bwMRRnxmOfrDJ7AC57uzBat6r8RUW25tBLutgLwnCcjJuU6Khua0fz+Be5kb8KMIaywNRABh+vUYiKty0C4G3twiOA8YRkSTt3Ao8oaPLt3EYfXBcBNKIAN3x3hGfXqc2Tv8rFEWSQbODoSW9MKUfqsEk/vX8bxzfMwypEJuj1GrLyE95wYy/D6SBDsGLOg43irYqzFQv4+C2EDBbCxD0Lya8UBkhfHEOwi5NryDNqM1KJHqKypxuNr2YgL/4nzJ2/wHKTUqqqCKlEVwX34CIj4g+AzbzMOZp1GTuo+7MmvhRRyNOUtxiC+ALa+W/FQJfxatshqD8LfTgCbAWFIe6f3NNE6jjatg4DpRVVShX3+TgYFVbWciT9sNa7ohzL9ylsjqiK/5diVkIgEAz+JOY/xRXVPSBpQvC8R+a9VN6DGQPn7s1jMBFQwDlsfKyJv8c3f4GWruPHK9IPxL6VITczG/QbdO7IvOVXZuwyEOQs5wQw7XtOp6CZvKcW2ycoosltRFaNk/XDweXbw2fIIncy+fwK7s0rxTmW2/H/ImT+Ee6C4zDmKynYNE8WWGC+OhWMwXwSnWYdRzdDJPyJ/sQd3zuDgQ3iqn3mAHF8eJmI665OtN1ZeaeGakn88hZ/ZEjDRNOzttDRChleHZ0HEHmzzTyvSJfJGZM1zBY8ngkfkSXRym6wBeVHe4POEcFlyDorluypRZaLuhEnxpWhR+V+7a+138d8R7CHlhV8ut2p/w8p/KNs6FrY8IdyiL+FHWOWs10Ha7SUBk4tqe/E6eBiaSqqnVWwAOyIg+W91JNNLm/twuEZUVcJu6LcgIBn1BqKizhcUo3i1F3g8B8xJ/8RF3ZJHcVwlnzf4Z2S86SzEndsAei+qMtTum8ZNUR2Djhm1Vfw4HmO4iLG7SFWCR1vHcIIwKCIT3Zktq0uCP0s5OAbj6CsjoKRvUHb7BVqUX8teJyOAi+KCcVQZUXZmIUX1vulcJOkwJx2NnLC14vIKxtgOY+LLdQVflR6wHYqYwn+45pht05htDsFIMeJE2csDmMqOGbAAOZyqakTV1mcz7htdFiJF9V7FzGVgeKbSPmUvvhZjtRd7wI7B5geqp0/nHtIn1kPAxKIqwZNt47mpriHR0v7MYUEu9J/5/YddI6qisUuwNV4x1WbTbe2fHekPdCOVry9RlLwZUSHTMM7HByN8/DApcCFWbUvB3qifwOfZIyD5jeLhIHmOxKmKCF0wZAoW/ZGM3Fs1aOriPuu9qH5GTgRLqzgi5MQH4ykU6XPsGK+3+N/I9F/ybC+mKKffrhOjsPlwPm5VfzJYoPqcM5+bkotC0vHBUERnwIEtpxbAnieAaE46PnZxjuzNEQSwB4HzMhQoi1Piu7EYwQp5I2JxR4ujuHQzfmJL0Xz+QKny85aTiuvY+qzA0bMFOHfOwE9eIsKGsIh4BH67zU5UiaoQQ1YVG+yzqkvyDycxj0XTIn8kciE4+0aOpjOL4MwXQDT9EF4aec6o2qDf1kHAxKIqxp0NIw0XI3QiVQGEIV3fZKbFrxHVnhaqxC9yEOUzUJHG4Dti0NDR8PUdBTcnVkBRFXW0RJXdog3XsDN0JCc8qmNsB47A1IVbkfHgA/Tj116LqqwWe6fYc9PktSVaKtMJVitOznPsUU6VCUtD8Z8I9dbOgdthgPd0RP6RidIPKqtZlOwPAU8Ez3U3uxQgjTm9OEdciF8GC2EjDESyKokq/Qu7WMGKPxQrrygiUuArrq5m03h7TNpdrWSquo7KL939Howl51lYqhJVZVFKY7iBrTZcX6dIlYyMLVX0X1aPo4EDYcN3xYLTxgpqBpqij35oAiYWVRneHgnsweug7MYs6eGNaQr+vRRVaQ32+TOREcJl1g5cqftHExVKv+BlyXGs9FNUe9WRqtpMCZoqipGxZyOigvzgZscKJwLYCLwwJ/k5tNOQvRfVv3FwOhMZd6wo7EJU5U04EdLD6r/KbkkTKq5mITF2GQLHeUKkXPVg6x6Ow8+Y1TK8TgqAgDFZUdRD38nw+tDMnp3TXoDFTiyHOgep6jBYhlfJgbDjCeG8MJ/Lg8qbz2IRE1/HOTj2ThUayvCKs02AATNicTxdsTyNLVEz+JNxGnc54e6NqALSit2YIBSA5xaN8y1sP4Hb53v/ihtdLP1SIabf1kHAxKIKyN6cQAi7OdTRnIFtgS823NWWl/6G3TtR5XKHbCpqF4Qjb1Q3rraNHShcyYovupGq9hGqbWlzBfI3BXDVY5bvO6qV7+u1qKIdl6JZoYgtI6roFPmqron2Yqzy7Fn1X32OzoYUzRVnsWk6u5YA9rNTuPxtx5UYuPAFEEz4E89VAazOeZ13OopWYwh3TgIqujhHxYI/bAO4mbmyKfnHk4hgBasB4TjRIEVD+lw4sldtFylEVnXF9ksrOMaCGYdhNHWrOlj9u3eiCnkj0kMHw4bnjJDUOtzaMIqLmCfs+su4L9TXog1rIWByUWXV0KqjoXAxWqxyhO9/rymrr98Lc+9EVVK+E2MFAvCGrIKhgFDedB5L3RVLd1SRqry1FoXJO5H60MDDQvoU8ePsYMMfgujLmghTVdyy9Y3DI/3Su0E0cnzKXczl8Pjea1BocAWFDPVp4YolV91W/+VofVGEw9tPwKDZKg6DV4Izu+UClnI5yeFYcUl7vaeWsa13sGfVJhy9WgturX3rFfzCWNkOx4rLRs6R/w9nFnlylfth627qRPNAKy79wr5zxLT917F/uiPX1ppruqGhvDkfCwex9MF/EFem+53auvZypG8/iEs1rcqZRy9FFUBr4WquECvwDcAUtnxrQChS1RGz+kq0YcUE+kFUGc02VOasx2Q37fwjqxr7ImL3LXwwFPz1qxN6J6pQ/UUn2xH45eJHzdSf2dj6DMlzhyrzxqpIlRXo/LiqvGjMelxp0A3JZI25iHQTwkYwHtu0XvKX1uzFJBYRO/2MrK6qONps2h9iy1gHbp2oe2gSynSEVYJ3V//AJFZQYTOF7kRV8gTbxjIfOWL0ukLomi1D45nFXJRpO2a78m8TiPEsYSpXeOK7zcGe+590V3C01SArahTHwW7yHlRwDwoJqg7OxAAee0gFI+GOXm5Z0ohrcQHcQ4DnHIpjBlYVdNyJxXBWsHIfxr2BZjt6m4GHUAfKtk3gUk+C4UuQ9kzvza62GmQv9eW+F01KxHPOtt6LKiTliB+nGteKZVSKRWDaTqJtaybQT6KqRNreiPJr55CTmYPTl0rx8rOu2Hw/8L0UVbShNO4/iree7IZj5srt2HcoCX/GLsNUL0fw7MZg9gxFsUQdqX6+hY3jFYUt20F+iFi3E3sPHULCpuXw92Rv5AjhOjdTd2oqLsMfvoq/HOXktxi/bo7Fil+S8LCbqLXtyT4EsKiMJ4Ct8ziERG/Axtj1WDzzJziwRepeEYiY3JPqvxyfb27GOAeWorGD89j5WLd9P5KSErFp6Qx4sKVQfA+dhfwQ1yJ9vvLNI1sX+ARHY/2mrYhdsxBTvBTFLp5rCJKea61Pktbj9FIfRa6d7wzvgCVYE/sHfl+zGNOGDeRSDDZ2YxBzvkFXpFUDhK1m8FMJmSP89xt5s6n9OZKCPBQPPJEHxoeuxK+b/sBvKxdgkofiLSu++1ykVKlmC30QVcjw5lgIHLg8+RhsomVUKi/RbyWB/hVVs8HcW1FlheG3uBI3B94OyqiPyxELYe8dim2Ff6OUW/CtilQVHZV9vIv9C8fDST/1IfLElNWZeNZpDZkcLaV7EOihEgwB+F6/osvCvpJpa8UpbAgaBUft12j5A+A5Kxb5tZ9xZkFPq/8yfLxzEJFjXDqt2hC6T8OqjOedl76J3+JqwkKMdmYPBO2cuSN3/TPVBqbf0g+4kxSN/7hq+qo41wFuU2Jw9IFe1KszdlSL/QWwGTgXGYqFrDpHqHfaa1GwNRwjHLX9xh4OThgRGo8Lr1SCys7oi6gCHbc2wNuWLaNKomVUavC0oSJgJaKq6m7vf8u+1KH06nmcPnUWV+6+QHO3wbYcbQ3PUHIxDzk5Z1Bw9UG3Ebq8tR6ll3ORnZ2HwieNnd6SMm61FM0vy3D9Qh5O5xfibnWz7iJ54yd2/kbehndPb+JC7knknD6Pogcv0d3EQt7eiGclF3E6+yROnS3Gg7rP3RdsxE2ounsFeTk5OJlXiHs1htfEdjawd5/IWuvxuPg8TmWfxOmC63hc32o4Cu5ds4C8CWcWDgGPLaM6pZca6m1bdPwPSYBE9Yd0K3WqvwhIa/Zjip0A/GHrcd1AQN5f16V2LYcAiarl+Ios/dcJtKHkV/Zyi+IvY3U7afnX7SUD/g0CJKr/BnW6pkUSkL/PQQRbWUHLqCzSf9/LaBLV70WarmPhBKSo+HMy93bYkOWXQMuoLNyd/Wg+iWo/wqWmfyQCqv/2+zaev6eJ/4/kWVP3hUTV1ESpPSJABKyaAImqVbufOk8EiICpCZCompootUcEiIBVEyBRtWr3U+eJABEwNQESVVMTpfaIABGwagIkqlbtfuo8ESACpiZAompqotQeESACVk2ARNWq3U+dJwJEwNQESFRNTZTaIwJEwKoJkKhatfup80SACJiaAImqqYlSe0SACFg1ARJVq3Y/dZ4IEAFTEyBRNTVRao8IEAGrJkCiatXup84TASJgagIkqqYmSu0RASJg1QRIVK3a/dR5IkAETE2ARNXURKk9IkAErJoAiapVu586TwSIgKkJkKiamii1RwSIgFUTIFG1avdT54kAETA1ARJVUxOl9ogAEbBqAiSqVu1+6jwRIAKmJkCiamqi1B4RIAJWTYBE1ardT50nAkTA1ARIVE1NlNojAkTAqgmQqFq1+6nzRIAImJoAiaqpiVJ7RIAIWDUBElWrdj91nggQAVMTIFE1NVFqjwgQAasmQKJq1e6nzhMBImBqAiSqpiZK7REBImDVBEhUrdr91HkiQARMTYBE1dREqT0iQASsmgCJqlW7nzpPBIiAqQmQqJqaKLVHBIiAVRMgUbVq91PniQARMDUBElVTE6X2iAARsGoCJKpW7X7qPBEgAqYmQKJqaqLUHhEgAlZNgETVqt1PnScCRMDUBEhUTU2U2iMCRMCqCZCoWrX7qfNEgAiYmoDViKr4XTlKbpTghs7PTZTce4KqN58hNjXZbtvrwNsnt3Cj5B6qP8m7PdrSD5A23sHxnTuQVPgKHZbeGau0/ytel7HxWoralv4dr5Y+VqxEVOV4dzQIQp4ANgZ/HODqF4ltBbVo/143jKwehwLsYcP3wMqi7y/p36ubiuu0IHehi4K9XSCS62Xf9/J0tW8nIK3Argn2sLEdhd/v9ed4tfyxYnWiKnCfiNlBIQhU/czyh4+bo+KG57th9oGn30dYfzRRldbg+LJATJ+1AmkvpHo3cRuurR0OW54AvMGLcPpj/0Y6ehf/xl0pqlOjMXNGIJan1UK/Z9/YuOWcbkJRlVanYemsmZgZnY5OQwWWPFYU7rQ6UR0YdbHz9FPcgGvxMzGIL4CN3RT8+UzS/4P9RxNVySP84WsHG8E4xD0xwE/8DqUXClDy8mv/szXpFSQo2zIGtjw7+MY9gYGemfRqZtuYCUVVUrYVPgIBbEfHw9BQgcWOFYX3SFRVo1jegKx5ruDxRBgRW9r/OVZrE1UVZ4v7TaLKuex7iqrFjRFdg0lUtXg0Z86FiCeAKDQLzVqfc5tf61B8fDtWLZyLwMAQhC1ai7ijRahp7Xoq2/b6JlLj12Pp/HAEz12CmLg0XK/7BzAkqrJG3M/NRHrmZTz/YrjdtqqryEzPxKk7b/UtBCBGw4PT2PP7CswPDcHs4HlYtGY7UgpfwEhzAL6irjgV21YvRlhQMALDl2BVXAoKa1ph2AK9y8r+Rkl2JtLTdiDUXQQb22EI25GO9PQMpGeex+MmRSuyN3dwMiMDmYXVUMWq8s9PcT4zAxmX/sIXuRytL4pweOMK/DwnBHMi12J7dhk+qOfbHXh3Lxs71i7F3JA5CI1chS3Hb+JNF1Wvr3XXcGzbWkSGhWB2UAQWro7H0cIX6MZlyg7K8KokBxnp6YgP9QKfJ4JH+E6ksX6lZ6Hg8Sc9EFI0PT2PpD9WIZKxD5qLyFXbkHyxAs29TSGL3+PxucPYFBOFiJAQBIUvRszmJJwtb+oUKesyBNpe3URq3BpEhs1BUHgU1uzMxN0GYzlQMd4/LkDS5tVYNC8UgcERiIzZgoNny9GkH5Lri2r7CxRlsbF6EeWfjY+Ur1VFyEzPQOblSshe3URWRgbS4ufCzVYAvmcEtqcxnhnIKHgC5VCBobGiDVvc8ACn9sZi+fxwBAbOQfjiddiWUoQag4Ncgvdl+di/cSUWhIYgaO5i/BJ7AHll/+u3wKnfRFXeWo0L+9cjbPIYeLkPxfDxQVgSl4X7jfre0sbVX9uaQpXB6T93WRneJM+CgCeAQ2QeWtWmyNHy8BAivJV5V71Cl8ArFLvvNXcWIHkz7iWGwVNkoDhmUEc7HAAAIABJREFUNwoLUm7gULCDbqFKXIK1XiLYCP2xt9bQnajqhxDO0ZfVFnIbrc+QGjUGjnr2KQpzDvAM3Yf7zbqDX95ShoPzRnIPkk4FPKE3ghPvo9uFCR35WGBnoI/MDq1UQMfF5XDiCSCYdRRvlV2TViTATyiAYMpuXEpdguGd2rGHx9xUVLW/w4X1EzGQpWd0+ieCS+AhPNMXVnkLHibNh3en9tj59vAM2YN73XcMeZGGfW6jTAWoHSCuRe66KXC21beP7dvBxT8WBa+NCZu6FW6jrTILy0YPAk+nn8p2bYdg6uaraNAaGhqGibiSGQ0fh8428F2DsOeR6lGmvF5bJTKWj8OATkzZ+SIM8t+CQt0L6RaqZHU4OIPxcYT/gVpomaTpkPx/yAgbxDGf8GcFOvIWGR5rPN1UgKGxomj0HzxNXQafAZ37yMaF0Csce0q17kV5E65vnWbYL3xn+K44jZc9c4umTz3Y6hdRlbzKxTKfAXo3gAIE3zUQCaUtnUWoB8b2/RCVGAlgVFRbS7F5vANseAMw+2i9epBIXhxDsItQcTMGbUZq0SNU1lTj8bVsxIX/xA0S3uA5SKlVh1RcxFh1OBhObMDaumFi9B6cLnmCiudlKMqIxzxfZ/AEXvBkkZ129b+voiqtQ/pcD/B5AvAHTURUwmlcf1SJ6mf3cT75V0xzt4cNTwiXuZl4rRr9klqkhLhxN6/AKwQbU6+irOoFqh5fR2ZchEKQ+EMQlNJNcUZaidxdOxEftxr+jBPfHdNWxSM+fgfid6TguvLGNHSjqASBN8gLQ0SO8A7biVO3nqKy4gHO74uCjz0bMwMxZup/MIDvCO9w9v0zVFU+xMWkaIxxZN87ITBF4y9AghcpoRjM2Au9EbjxBArLqlBT9QTXsuIRNpwJgRCDgo9Bx2WdBpcUlXkJiI+PR8w0xkkIl+lrEMf6Fb8TR643Ks6QvUNulLII5zQO87em48qD56h8WopLqVsQ7uPE3QeCkatw4b3uQ63zJauQOIXZ5wDPoE1IK/4Lbz+14FN9OS7uX4bRAxhfFwSm1KnHpy5De3jO2ojUq49RWfUUt/MSEemruL5wwi6Uq+MZKSr3+HNjV+gVgti0a3j+thktn+rx5OJBLBnjzPXXKegY6lTjRT9ShRxNeYu5OoSt71Y8NCBOstqD8GcPtgFhSHsnh7QyH7u270BcTADnH55rAGLiGM8d2H7khvphYWisAFLUpc/DEPbgsnWFX1QiTl1/jMrq57h34QjWTffkAiKe6zxkKAd5y6WVcLcVgOc8GTEp11HZ0Izm9y9wJ3sTZgyx48ZWwGENy07+6OMHphdVSRX2+SscqRtVaJ4u/GGrcUUvauqj/T08zbioyjo+4cWtdKz3d+NESeAbixJVmCpvVOdZPSJP4rW2brIryxqQF+UNPrvhlpxTR3WydxkIc2Y3gAfCjtd0KozJW0qxbbKzcsWB1pKqPomqHI05kdzg5rmGIbmy86Iw8YvjmOMiBN85EEnVrBNyNGTPhzOfTcEWIadzx/Aubxk82YB0XYqz3UZ1ALopVBm6UVSCwERu8Nx0vFLf9AyuGE93TuRuFO6BEJGpx1+K6r3+3DI5UVAqGpR6JW/IQcQgIZeGWJBT36laL2vIxxI2G+C7Y/FZrajG6EjqKqcqx8f8KAzhC8BzmYODT/WiQUb6SxkSZrhwuXrPlYVoMXodxReShmvYm3BWr6/sOzne5y/lRMJ29DY8VrLSZjgo9Dhq9cRN+uoYAgeyWcMYbHmkBVjSgOJ9icjv5HtA/v4sFnuIuJnGVs2FdCNVZlL7Xfx3BGPphV8uq24aVQfFKNs6FrY8IdyiL+GL6mM2VLopVBkaK/LGk/h5sOKhHZJc2XmFjrgWKaFu4Nm6YOahGkghRsn64eDz7OCz5VGntMmX+yewO6sU7/R4aZnZ502Ti2p78Tp4GJwGaUSVTRkCkv9WP237bH2PT9SIqjGhZzfugDErkV2jmUvK6pIwjU3fHYKRYmRtpezlAUxlxwxYgBxOfGSo3TeNEwPHoGMwchrEj+MxRij49khVVocD01iE7YTZR40xleJN2R3UtCjDDjZ1m87OGYjZOlGeFlDZS+zzZ8c4Y15OD8TnW0RVOAHbn2rd8EozxPc3YQQbSwI/xGvCLLWRkifx8BUIwB+5Cfe5m0OGuoMBnNDaBxpjL8PLfdO5Yxx/Pql+EKob7bTRhaiyvPhMFlk668xu9JuQVu/HVBaxOYbhRGM30ar+ydr74mtY5S6EjSgc6coEpFpUWapFJYDa58gbkRLI/OiI+Wc6i772oZptMYpXe4HHc8Cc9E+KWWWnSJUdrXiwsTrEwPBM6HTtazFWs4eXYAw2P9BVrt6Lqgx1BxR+dZidgleq6FljMLclffMIt2talLoiwaOtbNWGEIMiMvFGPyDSO9eUuyYWVQmebBvPrUc0Ll4KcXVYkKuVtzRllwy1pRFVnoM7vIYO535cHNi0XgDhyHmIO3EHb3V9j5aTC2DP8j0+K3D0bAHOnTPwk5eIsCEsMhqB326zBj4jJ4KlPhwRcuKD8TSH9Dl2jNdb/N+XSPXzSUSwabJdKNI+9PCGbTmFeSz3JhiN5UfPGe7XuXwkhHlwEdaw/97pPqn/DaLKc1+Lq3rsmRelVYn4j1AA3pBVKDTwvexVEvyFAvC91uMG930LTv48kMtjjopOwVlD/jpXgLyEuXBlUbr37+BcZmjIqD/rQlRbTis42oXhRFdrb2VvcHgmS8EMxpKCNnXLxja+vixG8sZlCJ46AaNG+mDU2KmYvWAtth3Zj6jhLOc+G4ffKJRFJarGGAIdyF/ImCgEUueaX1+iKHkzokKmYZyPD0b4+GFS4EKs2paCvVE/gc+zR0DyG4VIGRRVQP7hJOaxWZnIH4ncLIhdQY6mM4u4mZBo+iG81BPB3ovqZ+TMU9xTwWld3FM6nQMkz/ZiCpcisofrxChsPpyPW9Wfuh/Leu30dtfEoirGnQ0juWl0d6IqDElHV+Owtx3p+niNqGpyqnJ8KlwDbwHLucxBykv9RxmLOP2V00/tKNvY9mAsOd8ByGqxdwp788Qba0sMKIHa0FacnOf4zZGqrHY/JiuFpcvLqa/LTFSc052PVN8PjLrQKYWh1Zxi8xtElT9iIwy9pCOt2oOJrG/DNhgUv06iqmJvqMhj6DOnZSjQTEw6dUnZMaPrVFUcmah3zV6MKyuGgMezx8zkt13M0MR4kb0Mo5TFJp7dEHj5jIXPCC8MZLMaVR8MiKoxhkxUzy5i6TgHhKRrViyIX+QgyoeJLZstOWLQ0NHw9R0FNycm/qprdS+qQBuur1NMs0eqliLK6nE0cCBs+K5YcLqpU2DRa1FV+bXbe0rfhVI0FP+JUG/t+o4dBnhPR+QfmSjVLC3RP/Gb9k0sqjK8PRLYxeugKmeJ4LmupN+fGBoyhkSVPVA/4dIKNiCEcApK0StcyPAqKYAT1QEzYnGcW0qjWP7BLRfS3884jbusrC37GwenswjUHSsMhVcqo+RNOBHSh+r/kUAIeJrqv+z1IUxj0ZxrjMFoTnU57d+yV4pzbAbOxIbULvrE9TETp+52JQTKls1CVJXseYMw/fc0xbIufT9p7WecuqdeiaDNR3fbeKQqe30Y03vEvh3nlgzmhC0o1XikJa0+AH826+C7Y2Z8Ieq01n5Jv7xEybFVGM/yo98qqtIa7PNnQiOEy6wduFL3j0b4pF/wsuQ4VvopqvbdRaqMlbRiNyYwDm7RON/C9hO4fb73r7hhIDDvvajW9+ye0nWcZk/ShIqrWUiMXYbAcZ4QKVc82LqH4/CzzjUIzYl92zKxqAKyNycQ4qQSTyO/Bb7YcNf0nTGOwIioMl1tuoTooSzZPhizk1/oJLTbL63gCkCCGYc1VXPjF1F+045L0YqoxG9XRadCifr09mKs8mTX1S5U3cavzBbhZCRU6kfO7EzVDa4RVXQU4hdXIWyEE7HzuaFz1FfUbLRfxnKW9BfORJJ6OYDm6z5tmYOoQsN++iHtFQF96pHyJBVzA29UdVxFjBvjOAm7Krpgr2JjOxy/Gs03sLzhDO4hLpqVAuXsXtfwjiKs5K7Xefrfm0iV1QpY2sTGLghHDF8IhStZ6qcnkSq7iRqRHsoeGs4ISa3DrQ2juNTBhF1/GRz/vRZVdODKCnfOHj8jbeqC6mpPiuaKs9g0nd2jAtjPTjFa9+iqla6+M7mosqpt1dFQuBgtVjnC97/XelAg6Mrs3n5nXFRZ/udjQbSi0u0UiIPVmoKJvDkfC1klWfgfxJUZeOQyM9rLkb79IC6pF8vL8Sl3saKy7r0GhQZXOchQnxauWHKlLarSv7DTj0W5rogq0K+msmuVIpa9CqoVqQItKFiqyH16rbhshOs/uL13DWKPFqOWRT/yZuQtYm+P2WN83CMY7lk7nqTvxP5LPVwsL3mMLdxrqnpVZqWrDFV0VflAY4LQ6+k/5GjOW8KxF/jFw7jLMhC//3K3L24oTFcVPOzgs/WxzkMXaMXlFaygI8LQFVeMsJejMXcJ3Lgc7q8oMRpLSFC+3Y8rrLiuvGpgFidHU8Fyrp1vjVQl5TsxlqW9jOSq5U3nsZQVxHoqqgBaC1dzBWqBbwCmsKV1A0KR+k4vmaocC5JHcYrXVH3joL0gQfk1DI2VlvPLFXnwoTG4ZGQ1SuvtfYiJTUFRLXtxRfkyyfYTeGiAuVTFYPBKXO4qS6cyqhe/+0FU2dXbUJmzHpPdtPMzrPrpi4jdt/DBMOtemN3bQ7sSVfakfY/8qGFcLnhgQBIq1ZA7ULZtApfOEAxfgrRnXzTTJK6bNche6st9L5qUiOcqPW5/iC1jWcVVBPfQJJTpCKsE767+gUksuc/ls7QiVbTj6uqh3BN0wLREPNbWVckbnF8zVrl4WitSZYuPniViEsvD2XogaG8pmnT4tqE6exmGs8jEfip2VyiM7CjbjnFs1YLwJyxMe673xhU7Zzl+Yt/bTUGCumNdcJe+QOJkRTFmbvZHXU6AwRvF9KLKLvQI27j1xvbwXpSOZ3pv2bRVn8TSUYpq+MSEv/RE0lD/pKjZM5WLIAdG5HSqA0iqkjCdTcn5HpidcFfrDTDWlgQN1+Lhzy2vc0Hw8Vdd5FOBlrzF3AsSfO8YXNQrOLQ+/f/2zvwriqPr4/8KM8wMSwRFZfEBEiEuxLggbiyCoAH3DfGJy6OICuIS1KCgxB1kFVAUBRWDGhVcUHiUTYyo8LjEI5KIB87MnO97qmd6NnoGBhtelfsDx57p7qq6n7r17VtVt8dDmMPSnJjPfOr0v60QUc7MX7yxotikr9qrkRY+Srsv0stIlTP1PhLH8eNdk0ZlLn1MWf8rJjJ/dJqHTBM7WVFCoorOGiRNYmvACowITsYtYyfHh7psLPJm9X+DiXseoqurCtvGss+O+H5NKVqMJhIqtJ5ayKXC2Y7ZLvz7A0Ku0Mvv+klUtbV3tOJ+2Rlkn8xG3vkKPH5nZFkvmyjGZT2IKjeDKcQClowvGYqpyQ/1kUJHDVKDNIn1Ngo3jA+Nxrq4LVgfHYmJbiydRgapazgO1+qUmGvwh6pkTGdRLssecB6HkOUbsCl2LRbO+A4OUhlsPSIQwUTIMFJlw7B6LyZpNyocvIKwZH084tavQODooZBIR2JGyGQojCJVVl0nGtKj4M5tZijg5DsbS9ZuwZbYNYic4gk7TrxdEXjgvwYbTh2oPhCC4dyMgv30YTiWr9+CuP/EYO6kURrxtvVA2OFaPQuLXdGJ29wPj7CNvwmIWr8VG1ZGI+W2VsQtvFElXqSqaWBH9UEEjtAIkHzEBISu2IC4uI2InjcFrtxbVgqMDDti8PC0aBg6b2t+AIQl3o+fvwFxG1dhecod7U1KPD21DN7sASSRw9FrJub/vAlxsWsQFeAFe279zhE+MedgJnDTV/6hEgl+Gp9S/CsQ0dv2I3X/bsQuDoC7nRwK32AEcG/cfdr0nwU9FQkTNH1s54UZ0duRfCAVv8QuxRQPR0jsxmDWNJZ/bYWoQoVnR0LgwHxNNgZxJmlUeiOZu97R/PgO28vwW4h1m2OxckUqtK4iLKrstoYMzPPQCLfUeQyClq5H3NY4rI6cCnfuRRE5XIIOoobbfFTj3dXNGMeNJTs4j/0Ja7bvQ2rqHsQtmQY35gdSN8zJEGuZSG9h/4qqvp7/56OeRZVLiM9bqJleOU7D3hoDkexoRFH8HHg7aqNL5jicUDnBOzQR554YXGtgafvDXGwIGg1H7cK45p5v4D4zFoWN73Aq0mT3n7u3C8/ObYI/9xaUfk1a5jIRy45U4VXhIjh0E1V2YyeeX9qDyDEu3VLaFB5B2JBfLzDN70BjUQJmf+tk8lqkHA7fzkFC8ZNeCqrGaPZSw+6gUfqMCVtPrNFuiwtFH/0SqWr5dzSexdZQH+4BxnHX9pnE0QezE86jSbjLtHeb/KNuw63dIXDlHlqsT9hG61WDi5R49ccBLPnRVW+7tj65qz9WHqo0mT0Y3GpyqHxeioTgb7VizPvZEHiGbEfpk0rEsyWWT41UWZ3K5yhJmA1PbVqhhpEc9p6h2Fb6Jyq4xH1rRBX4eG0DPG1lUASkdkujMjZTjbaKvQh04yNblha3TpdBIeQr/P2dzy8jKXI8nGT6scG13c4TMzcWoM5oLUuF13+kIGqMS7eMJLnrVMRk1PRLWucgEVW+Sz7tX1V7M+5dPovcrBzkFV3BveZ2i9M5TW1KvH18B1fOFSCvsBQ36t72YsoJqDv+hwe/FyMvJx9FZffxQmBdSNAadQdaqq/i7KkcZOWewcXKJvQ4QVD9jeZ7ZSjKzUFW3lmU3WtGu9ESgmBNwl+q/0ZzZQnysnJwqrQKLT2mLAkXI863KrQ3V+FyUR6ysk6hqKwKzX03DO3NlbjAuOZfRJWgYZ14U3sTFwpykJlTiJKbDXhjjXjrjFbhfVMlLhblI5f5TP1bwQ0f3eWfcKB634SKS2eRl3saJTca8Lavk0n1G5yaPwISlkaVa7KkYKZ96vZmVFzIR1ZWAUqrWg1mUWZu0H2tRkdLDcrPsXvzcPrSbTRZcnL1B7x4cBXn8nOQnXcWFysf9zwmdHVZf0Ciaj0zuoMIEAETAsr6fZhsx3KK1+KKUbRocuEg+EiiOgg6mUwkAv1L4APK17GXfuzx6SlP/dvSgSidRHUgKFMdROArJqB+mY0IluFgIY3qKza/m2kkqt2Q0BdEgAj0noASD3+ZxL3lN2LZ+R5/hav35X65V5Kofrl9Ry0nAp8BAf6/Wr+Ompd93eX6DMwQsQkkqiLCpKKIABEgAiSq5ANEgAgQAREJkKiKCJOKIgJEgAiQqJIPEAEiQAREJECiKiJMKooIEAEiQKJKPkAEiAAREJEAiaqIMKkoIkAEiACJKvkAESACREBEAiSqIsKkoogAESACJKrkA0SACBABEQmQqIoIk4oiAkSACJCokg8QASJABEQkQKIqIkwqiggQASJAoko+QASIABEQkQCJqogwqSgiQASIAIkq+QARIAJEQEQCJKoiwqSiiAARIAIkquQDRIAIEAERCZCoigiTiiICRIAIkKiSDxABIkAERCRAoioiTCqKCBABIkCiSj5ABIgAERCRAImqiDCpKCJABIgAiSr5ABEgAkRARAIkqiLCpKKIABEgAiSq5ANEgAgQAREJkKiKCJOKIgJEgAiQqJIPEAEiQAREJECiKiJMKooIEAEiQKJKPkAEiAAREJEAiaqIMKkoIkAEiACJKvkAESACREBEAiSqIsKkoogAESACJKrkA0SACBABEQmQqIoIk4oiAkSACJCokg8QASJABEQkQKIqIkwqiggQASJAoko+QASIABEQkQCJqogwqSgiQASIAIkq+QARIAJEQEQCJKoiwqSiiAARIAIkquQDRIAIEAERCQwaUe18cR/lv5fjd4t/V1HZ9F5EvF9ZUcr/4fqxXUg8cBFNH78y2walOf/g6Z1r+L28Ao1t6kFJoD+MHiSiqsaLQ0GQS2SwsfhnB58td/qD81dRZlvBQjhx/BwxI635q7BpUBuhfIhdP9jDxnY0Nt7sHNQoxDR+0ImqzPVHzAoKQaDgXxii0xvE5GuxLGXdcSyZOQMzlqejQWnx0oE5qazH0aWBCJi5EscFGvShbC1GyWSwkY5AZN7rgWmTKLUoUXdsOWZMC8Sy4434HFCLYtanFjJgojq4+A86UR2yuBify8y16048fGQy2H6fiKquTx0hItzfdRdbfO1gIxuHBMEGdeJFZTHOXH2Mf0SobuCK6MKdrWNgK7GDb0IVPgfUA2e7hZoGTFQHF38SVQs+19+nvjxR7W8i/VX+4BrUvaZIotprVNZcSKJqkVYnXt4rQurm1VgwNxSBwRGIWrUVKafv442ZcKfr5V3k79uM5ZHhCAyei6iVm5BccBetBktWqidXkZmRgeOJ4RhpK4PUPQLbj2cgPT0DGUVVeGOyZ/BPUxmObPsZUWEhmBUUgfmrE3GotAHtJtdB/Q73z2Ui/eQF1LxXQ/nmAU4lrcX8sNkIidqCM09Vwtaq/kR51kmkH9+BUFcFbGz/hbAd6Vx70k+exT2+QapnuJ5zEumZF1HLh6omdarbG1GathnLfgpDYOgCxOzIxu1X+gn3xxe3cHLnWiyMCEVQ6AJExx9D+TMLc4d/mnD56HbEzA9HYGAIwhb8jIRDF1HfzXgh01R4Up6NjPR0JIZ6QCpRwG3OThxPZ6wzUXTvL5OblHjz4CxSt8QgKpSxDkdUzDakFT/EWzPoTAoAoMa7+8XISM/E+Zr3UKvb0VD6GzYtj0JI0BxErt6JzNuv9EsQH1/gZuYu/HvRPAQHhyMyOgFHyp+ZmU1Z4Y8m/SLoCz2Iqur1XZw+mYH0jCwUV7cZmdo7n7SWv1EVX+yHfhNVdXsdzu1bi7BJY+DhOgpe44OwKCETt1rNqFG/ItRvVPV6+v/hETKWjcM3UqHNLQWG+m9FaYvhSFPjzZUETB6qENgMk8Px+1XIfaxR1o8FC6Aws2FmtBSgbsPt1J/gaSfUBnu4h+zFzb8MlJUfJHJ//FJ8GHM87PVtsbQZ8bEQkYJ1yIyXAj6exxJnGWzkgUh7rrXdsM7zJzDf21Ffp9ZGmftcHKntwIvi9fBzknc7Lx0ejJRqU2FVo+32AUR4di+PbTbKPEKx++ZbGFgv4EEfURAlfL+NdilAd1NnI/LXTIazrRBrO7j4x6LoqcGTUXej6YESD3f9CJnEHpN+uYBjC0Z372v5vzDnaB06XpzH2h+GQWLqC7aumJVaYyys1vqjYb+Y8wX+GgHfUL++gtgfnGEjkcNp2m5U8NkBVvmkFfxNMX7Bn/tFVLue5GOpzzfdBg8bDNLhgUiqaOthMIhN1FpRVeLRXn9uMMg9QhB7vAw1z9+i7a9mVBWnYNEYZ0iYswUdQROvq20XsNxNARvpMPwQcwRlj1rx19uXqP8jG7HT3WArkcF+Rhp3vfJRIXZt34GEVdMxTCqDZPh0rErYgcTEHdj+2+/QaHUXGg6Hcudt5J4I3HQCpXdqUV9bhbLMRIR5MbGQY2jwETTygaBukIyCp6cjJEPGIGLTAZzMzcHRX5NRKLD5xJFWPkL+rp1ITFgNfxc5bKSumBqTyLUnccdhXOEfHpZEVTocI0c6QOEVjsTc67hf+xAV5/Zjga/GD+zHTsX4IXIovCKwPfc6HtQ+QmXxASwZ68T5iUPQETTzLAF0NRxBMGuLxB7uQZtx7OJdPKqvw72yLCTM+Y7rG8mw2TisM17IZ5R4VJCExMRErJo6kuszl4B/IyGRsd6J3660am5SvUD+Yi+ujyRO4/BTfDpKKmvw6EEFzh/bijk+mjbKvo3BuZeWZRzgRVUOZ1c3yO2+Q9j2PFy7X4uHlcVIXjgGdkxEHfww2W8oJOz8jjxce1CHR5XnkbLUDw7svGMIDuuA9MEfe+MLumuMd//Vb8oRN3Goxsf9d+LGW95ma32yl/yFuu4L/k58Ue2qRbK/xgnNpS9J/7UaJbqOGgh6elFV+C3DrqQ9SBL425N9D+91/tOCy8l7UPiUVyx9O9UvT2MhE1DZOMTf00TenVfXw8NWBlvfeNwxDcbfV+DYnizcajGOdCytqapbshExVM5NxSOzm/XTRW0zVC2FWOTBRNwVC09rIzZ+kHCDcgoSrX149bRRZUlUJTJIXObixBNj4zsf7IKfXBP9SYbPQ4YJT2VdMiYpZLCxC8GRFi18dSsy5w6HhE3Xo3JgcgugakHBYk9IJXK4LDoDw2Bd30uGR5bWVNV4XbgYI9jDzWU2Uh7w6xr6+9Xv7yBpmgvXHvfoUhhPhPXXaY54UWVZEiMx58SfxhtjndXYwdKYWB9JXRGeYdK3ynrsnewAG4kjAo+26oOPLuv8Eb3xBf4ag0hV/dd1xE9m0bMcQyYloNwAbp98koNiib8pvy//s+ii2nF5DdwEp1CG0ypHTE/7EwaBST+T1IuqOaFn38umpxlFS+Yb1YnLqz0gkThgdvpfnON33U3gdvIlw+Yh41l3IRYqy7yoqtCUMp3Lq7UPNI7g9OWo8Dg5gLvGcV6ORlj4QSKxw+hNFcbTR/2N5o8+SVTtMW5HtbGAsJo6KxD7LVsSscPY7Q+6n++qQsL3drCx9UHsLc1DR9WUiqlMaB2CDaI142arHu/HFHbNN5HINhj4xlfxnywMalUzDsxgUb8zZh1qNuuTyrp9mMKWSBzDcKKVf/Ly5Rv+qxdV2fideGD8jGFAcCvWB1KJDLbjduJ+t/NdqEoYB1uJAt6xFTB+DBvWY3jc3R/1omrBF3h/0Yqq+u1NJPqzh4cMjhM2o4xfS+eq6qNPcvda4G9oxldyLLKodqFq23huGmVJvNg5h8h8tA8YRL2oKsYuQjw3/dNMt9mUm//bkV4JfumIa9o/j3ExbTMWh0zFOB8fePs/YGHQAAAJI0lEQVT4YWLgfMRsO4xfF38HqcQe09OeaQZiVw32TNFOE0dMxoItaci/Vo83FkaFeVFtQ868IZwQjV5+GKfPFOGMwF9BUjiGS2WQem7EdVYPP0ikblh1yULF5rh/iqhK3REjVKeyFkk/2sNG6oboiwJtUj3Bfn+WgO6Jn3/XnG/LiYQ9Ex2flTh0Wtj2MwV7EDaCRfLeWM8Zb84o9r2FQd2Wh7kOLFIOw4nXFsRS9QwHZ7AIcxgWFX2wUBkvqnKMXH1ZQBSVeJQ0GTKJHMOjLwmcV6Fp/zTIJAq4ryk3Pm+NP/bGF/hrbEdjQ8l17ArQCKrEJQrZ/JKPztI++iR3vwX+uvK/ngORRbUTf2z4lnsK9ySq8pB0WPJhcRHrRbW3G1WdDdlY7MOEjU3THDF01Pfw9R2NkU4Gmz+Goso0raUMO0O/1ayZsfuYMAzxxpT58cioNNjx1RpnVlRVjfh1smE9hlG+wLHTUhSxfR6DQdKnN2Q+RVQNppBGfaesw+6JTDS9sE5I/FRPkDLVUFRVaEz2h0zLryc/4kTurOkml1ELLIqqqnEfJsllkHqsRbmA5utL6kTJyhGQSOwxI+252YhWv6aqgFfsLWNR5ApTonY3E1UFRq3/Q+C8JiI0FVWr/bE3vsBfI3WGm7vBhpnUFXMyTKL2vvokZzOJqt6PrD5S4flvgb14HVTgKWx1XdbcYKWoKuuR7M82WORwmbkDJU1/69e2lO/xuPwoov2GcpsoukhV15wuvHl4GRl7N2FxkB9G2ml3u2UemJ1Wgw7ddYB5Uf0TKQFMVIciYONxTWoTlwakSbtiqVeGfxm5N8FtxvODxJzAGdQtePiZiOqT1OmcqH4zLRZHTWw1tJs7zsjDDT4TQdAo9qX5Qa16ehABcrZZuAqlFkW1A2cWDYONxAFBx17p/aFbnXykKqKo9sUfe+ML/DXaB5jCdxX2bwuGE1tfHhaO408MFuhUffRJjo95/t3wfQVfiBypAqpnJxDiJBBNGUYeMl9suGEoL/1N0jpRZWt6/mxzxS4Ivz0zcCxdMz+iNNqNi1q6i6ruIu5A+fYhCuOmYyhLzXIIxiHdjq4FUUUHzi/XREUBB0wiBuPijT/xg+SLFlWg4/xKjpds2kGYS601NrynTxYG9cdLWDVSDhv5ROx6aGEtnH/gmIu4dU0QX1T75I+98QX+GokMCt8YnGF7AcrHOBTElgHkcJ59DE06JH30SY6LBf46bl/Pgeiiyhbiaw+FwsXsZpUjfP9T1osdWzEhWyeqXfd3YqxMBsmIGMHoRf3mLJa4atJ9eFHVJL3vxLHbAg8L5QMkjrPj3plffkEfDvGbW7a+CbhrtGGhxtuCRXCWyiDzS8QdM0t4HfczkLjvgj4Rnh8kfRbVe9jKvaY6BluNG6TpDEu7/+bqtHr6D6jfFmI+y3yQT0CCeeORvj0F5+vbLUSNvA914W685jVVn/h7Jptl7biwkm06KjBqZYkZv1SjNX8RRnLr1+tQLtDFfE39Mf3viz/2ailI5y9eWFOuX0JRPj6MQGeWWueCwMP8byX00Sc5MJb468l9LUf9IKoMzQc8yl6LSSNN1gUdfRGx+xpeCQV//UrUOlFFWyGiWJK7rTdWFL82HrTt1UgLH6VdN+Y3qtgGnR83ZVWMWYuSFt3jnbNK1ZqPKBYNycZjm8E79cr6XzGRRcRO85BpusD88S62jWepNfbwXJCOal2ulwbUh7ocLBmtSb35Mem/GqHQDRLjvMNeo1U2YM8k1mfDEJ5lYjcrZIBEFfiIO9t+4JaRZF6LcLz6vXEffKhH1hJf7rxi4h7UGD2QhKxVon7vFK5/hkRkd1vL76pNRcAQtnbuhllJN2DwAhi3dNBSlgh/rcgEH31iYT2V1S1+pGq9P/Zyfd2svyjReChEswzgHIy0Bi3gvvgk1x2W+Qv12Jf8XT+JqhZJRyvul51B9sls5J2vwON3xmIzcOCsFFV8QEXCBM2bMHZemBG9HckHUvFL7FJM8XCExG4MZk1jeZK8qALqd9ewabxmY8t2qB8i1uzErwcOICluGfzdNYn6w8NPGk9nO+9ofsCEvUjgtxDrNsdi5YpU3Nb6cEf1QQSO0LyhJR8xAaErNiAubiOi502BK/cGlAIjw47gER/8mh0kvSXdidvcD4/IIHGegKj1W7FhZTRS+AYNmKgC6KhBapCb5uGlcMP40Gisi9uC9dGRmOimeUtK6hqOw7W88ZZt7Lyt+fEaFn2Nn78BcRtXYXkK/zOPSjw9tQzeLEVLIoej10zM/3kT4mLXICrAC/bcW3WO8Ik5hxc9BgT9IKp98EfrIlWBh7CyUbcM4DTzIOr66pPabrHM33LffWln+1dUPxsa1ooqe9I/R0nCbHg6GL5WKYe9Zyi2lf6JivixsDUQVWaq6vUN7Js/Hk6mSx8Kd0xefRLV3XLI1Gir2ItAN31EL/VYZ7QL3dF4FltDfeBg8rqsxNEHsxPOo8lQUz5ZVAF1WwV2B43S777bemINvy0+kKLKgHY0oih+DrwdDfuARZRO8A5NxLknhsb34GzqNtzaHQJX7YsINlzK0lWDm5R49ccBLPnRVW+7dh9A7uqPlYcq8aZHQWXF9Yeo9sEfe+MLPVyjbNQuA0iGYVpKnY6VVT7J39Ujf/7CL//fQSKqfe8o1fsmVFw6i7zc0yi50YC3PQbbanxoqUZ5cQGys0+h6FJljxG6ur0ZFRfykZVVgNKqVoGkfRXam6twuSgPWVmnUFRWheb2Xo3wvhmu/hvNlSXIy8rBqdIqtOiX2/pW3ifepWpvxr3LZ5GblYO8oiu419zewxTcXIVqtDdX4sKpHGTlX0SVoGGdeFN7ExcKcpCZU4iSmw0Wc43N1dRf31vvj/3Wkj74ZG/491d7B65cEtWBY001EQEiMAgIkKgOgk4mE4kAERg4AiSqA8eaaiICRGAQECBRHQSdTCYSASIwcARIVAeONdVEBIjAICBAojoIOplMJAJEYOAIkKgOHGuqiQgQgUFAgER1EHQymUgEiMDAESBRHTjWVBMRIAKDgACJ6iDoZDKRCBCBgSNAojpwrKkmIkAEBgEBEtVB0MlkIhEgAgNHgER14FhTTUSACAwCAv8Hxfx+qz+armcAAAAASUVORK5CYII=;" vertex="1" parent="aD3c_HmT-s8xsHDP89Bb-18">
          <mxGeometry y="81.40000000000002" width="141" height="128.6" as="geometry" />
        </mxCell>
        <mxCell id="aD3c_HmT-s8xsHDP89Bb-17" value="Value proposition&lt;br&gt;" style="text;html=1;strokeColor=none;fillColor=none;align=center;verticalAlign=middle;whiteSpace=wrap;rounded=0;" vertex="1" parent="aD3c_HmT-s8xsHDP89Bb-18">
          <mxGeometry x="90" y="230.7" width="40" height="20" as="geometry" />
        </mxCell>
      </root>
    </mxGraphModel>
  </diagram>
</mxfile>
